G75*
G70*
%OFA0B0*%
%FSLAX24Y24*%
%IPPOS*%
%LPD*%
%AMOC8*
5,1,8,0,0,1.08239X$1,22.5*
%
%ADD10C,0.0600*%
%ADD11C,0.0600*%
%ADD12C,0.0690*%
%ADD13R,0.0690X0.0690*%
%ADD14R,0.0780X0.0780*%
%ADD15C,0.0780*%
%ADD16R,0.0453X0.0591*%
%ADD17C,0.1090*%
%ADD18R,0.1090X0.1090*%
%ADD19R,0.0591X0.0453*%
%ADD20C,0.0640*%
%ADD21R,0.0290X0.0540*%
%ADD22R,0.0840X0.0840*%
%ADD23C,0.0840*%
%ADD24C,0.0867*%
%ADD25R,0.0867X0.0867*%
%ADD26C,0.0640*%
%ADD27C,0.1857*%
%ADD28R,0.0611X0.0493*%
%ADD29C,0.0700*%
%ADD30C,0.1340*%
%ADD31R,0.0493X0.0611*%
%ADD32R,0.0240X0.0510*%
%ADD33R,0.0510X0.0240*%
%ADD34R,0.0827X0.0158*%
%ADD35OC8,0.0600*%
%ADD36C,0.0634*%
%ADD37R,0.0634X0.0634*%
%ADD38OC8,0.0560*%
%ADD39C,0.0434*%
%ADD40C,0.0500*%
%ADD41C,0.0296*%
%ADD42OC8,0.0640*%
D10*
X007161Y016971D03*
X008161Y016971D03*
X009161Y016971D03*
X010161Y016971D03*
X011161Y016971D03*
X012161Y016971D03*
X013161Y016971D03*
X014161Y016971D03*
X015161Y016971D03*
X016161Y016971D03*
X017161Y016971D03*
X018161Y016971D03*
X019161Y016971D03*
X020161Y016971D03*
X021161Y016971D03*
X022161Y016971D03*
X023161Y016971D03*
X024161Y016971D03*
X025161Y016971D03*
X026161Y016971D03*
X027161Y016971D03*
X028161Y016971D03*
X029161Y016971D03*
X030161Y016971D03*
X031161Y016971D03*
X032161Y016971D03*
X033161Y016971D03*
X034161Y016971D03*
X035161Y016971D03*
X036161Y016971D03*
X037161Y016971D03*
X038161Y016971D03*
D11*
X038161Y021691D02*
X038161Y022251D01*
X037161Y022251D02*
X037161Y021691D01*
X036161Y021691D02*
X036161Y022251D01*
X035161Y022251D02*
X035161Y021691D01*
X034161Y021691D02*
X034161Y022251D01*
X033161Y022251D02*
X033161Y021691D01*
X032161Y021691D02*
X032161Y022251D01*
X031161Y022251D02*
X031161Y021691D01*
X030161Y021691D02*
X030161Y022251D01*
X029161Y022251D02*
X029161Y021691D01*
X028161Y021691D02*
X028161Y022251D01*
X027161Y022251D02*
X027161Y021691D01*
X026161Y021691D02*
X026161Y022251D01*
X025161Y022251D02*
X025161Y021691D01*
X024161Y021691D02*
X024161Y022251D01*
X023161Y022251D02*
X023161Y021691D01*
X022161Y021691D02*
X022161Y022251D01*
X021161Y022251D02*
X021161Y021691D01*
X020161Y021691D02*
X020161Y022251D01*
X019161Y022251D02*
X019161Y021691D01*
X018161Y021691D02*
X018161Y022251D01*
X017161Y022251D02*
X017161Y021691D01*
X016161Y021691D02*
X016161Y022251D01*
X015161Y022251D02*
X015161Y021691D01*
X014161Y021691D02*
X014161Y022251D01*
X013161Y022251D02*
X013161Y021691D01*
X012161Y021691D02*
X012161Y022251D01*
X011161Y022251D02*
X011161Y021691D01*
X010161Y021691D02*
X010161Y022251D01*
X009161Y022251D02*
X009161Y021691D01*
X008161Y021691D02*
X008161Y022251D01*
X007161Y022251D02*
X007161Y021691D01*
D12*
X006911Y019371D03*
X014911Y019371D03*
X022911Y019371D03*
X030911Y019371D03*
X039211Y018590D03*
X039211Y017590D03*
X039211Y016590D03*
X039211Y015590D03*
X035911Y013446D03*
X010411Y011721D03*
D13*
X008411Y011721D03*
X006911Y020371D03*
X014911Y020371D03*
X022911Y020371D03*
X030911Y020371D03*
X036911Y013446D03*
D14*
X033161Y023971D03*
X031161Y023971D03*
X025161Y023971D03*
X023161Y023971D03*
X017161Y023971D03*
X015161Y023971D03*
X009161Y023971D03*
X003561Y012671D03*
X003561Y007721D03*
X014761Y002871D03*
X018261Y002871D03*
X021761Y002871D03*
X025261Y002871D03*
D15*
X024261Y002871D03*
X023261Y002871D03*
X020761Y002871D03*
X019761Y002871D03*
X017261Y002871D03*
X016261Y002871D03*
X013761Y002871D03*
X012761Y002871D03*
X003561Y004971D03*
X003561Y005971D03*
X003561Y008721D03*
X003561Y009721D03*
X003561Y010721D03*
X003561Y013671D03*
X003561Y014671D03*
X003561Y015671D03*
X003561Y017521D03*
X003561Y018521D03*
X003561Y020271D03*
X003561Y021271D03*
X008161Y017971D03*
X009161Y017971D03*
X010161Y017971D03*
X011161Y017971D03*
X012161Y017971D03*
X013161Y017971D03*
X016161Y017971D03*
X017161Y017971D03*
X018161Y017971D03*
X019161Y017971D03*
X020161Y017971D03*
X021161Y017971D03*
X024161Y017971D03*
X025161Y017971D03*
X026161Y017971D03*
X027161Y017971D03*
X028161Y017971D03*
X029161Y017971D03*
X032161Y017971D03*
X033161Y017971D03*
X034161Y017971D03*
X035161Y017971D03*
X036161Y017971D03*
X037161Y017971D03*
X036161Y023971D03*
X035161Y023971D03*
X034161Y023971D03*
X030161Y023971D03*
X028161Y023971D03*
X027161Y023971D03*
X026161Y023971D03*
X022161Y023971D03*
X020161Y023971D03*
X019161Y023971D03*
X018161Y023971D03*
X014161Y023971D03*
X012161Y023971D03*
X011161Y023971D03*
X010161Y023971D03*
X023189Y014493D03*
X023896Y013786D03*
X033281Y009361D03*
X035841Y009361D03*
X035841Y007581D03*
X033281Y007581D03*
D16*
X036387Y006321D03*
X037135Y006321D03*
X031235Y017971D03*
X030487Y017971D03*
X023235Y017971D03*
X022487Y017971D03*
X015235Y017971D03*
X014487Y017971D03*
X007235Y017971D03*
X006487Y017971D03*
X010987Y007871D03*
X011735Y007871D03*
X011735Y007121D03*
X010987Y007121D03*
D17*
X040354Y013490D03*
X040354Y015490D03*
X040354Y017490D03*
D18*
X040354Y019490D03*
D19*
G36*
X025211Y014312D02*
X024795Y013896D01*
X024475Y014216D01*
X024891Y014632D01*
X025211Y014312D01*
G37*
G36*
X024682Y014841D02*
X024266Y014425D01*
X023946Y014745D01*
X024362Y015161D01*
X024682Y014841D01*
G37*
X013011Y014796D03*
X013011Y014047D03*
X012111Y013146D03*
X012111Y012397D03*
X013011Y012396D03*
X013011Y011647D03*
X012061Y010846D03*
X012061Y010097D03*
X009411Y015347D03*
X009411Y016096D03*
D20*
X006711Y015171D02*
X006111Y015171D01*
X006111Y014171D02*
X006711Y014171D01*
X006711Y013171D02*
X006111Y013171D01*
X006111Y010221D02*
X006711Y010221D01*
X006711Y009221D02*
X006111Y009221D01*
X006111Y008221D02*
X006711Y008221D01*
D21*
X013411Y005421D03*
X013761Y005421D03*
X014111Y005421D03*
D22*
X040061Y009021D03*
D23*
X040061Y007053D03*
D24*
X041143Y008195D03*
X041143Y009848D03*
D25*
X038978Y009848D03*
X038978Y008195D03*
D26*
X040511Y016490D03*
X040511Y018490D03*
D27*
X004161Y002971D03*
X004161Y023471D03*
X040661Y023471D03*
X040661Y002971D03*
D28*
G36*
X017301Y015310D02*
X017731Y014880D01*
X017383Y014532D01*
X016953Y014962D01*
X017301Y015310D01*
G37*
G36*
X016800Y014809D02*
X017230Y014379D01*
X016882Y014031D01*
X016452Y014461D01*
X016800Y014809D01*
G37*
X011611Y014776D03*
X011611Y014067D03*
D29*
X009153Y005851D03*
X008169Y005851D03*
X008169Y005071D03*
X009153Y005071D03*
D30*
X011031Y004001D03*
X006291Y004001D03*
D31*
X009656Y008971D03*
X010365Y008971D03*
X016106Y007471D03*
X016815Y007471D03*
X016994Y006623D03*
X016285Y006623D03*
D32*
G36*
X020792Y006822D02*
X020622Y006652D01*
X020262Y007012D01*
X020432Y007182D01*
X020792Y006822D01*
G37*
G36*
X021011Y007041D02*
X020841Y006871D01*
X020481Y007231D01*
X020651Y007401D01*
X021011Y007041D01*
G37*
G36*
X021230Y007261D02*
X021060Y007091D01*
X020700Y007451D01*
X020870Y007621D01*
X021230Y007261D01*
G37*
G36*
X021450Y007480D02*
X021280Y007310D01*
X020920Y007670D01*
X021090Y007840D01*
X021450Y007480D01*
G37*
G36*
X021669Y007699D02*
X021499Y007529D01*
X021139Y007889D01*
X021309Y008059D01*
X021669Y007699D01*
G37*
G36*
X021888Y007918D02*
X021718Y007748D01*
X021358Y008108D01*
X021528Y008278D01*
X021888Y007918D01*
G37*
G36*
X022107Y008137D02*
X021937Y007967D01*
X021577Y008327D01*
X021747Y008497D01*
X022107Y008137D01*
G37*
G36*
X022326Y008357D02*
X022156Y008187D01*
X021796Y008547D01*
X021966Y008717D01*
X022326Y008357D01*
G37*
G36*
X022546Y008576D02*
X022376Y008406D01*
X022016Y008766D01*
X022186Y008936D01*
X022546Y008576D01*
G37*
G36*
X022765Y008795D02*
X022595Y008625D01*
X022235Y008985D01*
X022405Y009155D01*
X022765Y008795D01*
G37*
G36*
X022984Y009014D02*
X022814Y008844D01*
X022454Y009204D01*
X022624Y009374D01*
X022984Y009014D01*
G37*
G36*
X023203Y009233D02*
X023033Y009063D01*
X022673Y009423D01*
X022843Y009593D01*
X023203Y009233D01*
G37*
G36*
X023422Y009453D02*
X023252Y009283D01*
X022892Y009643D01*
X023062Y009813D01*
X023422Y009453D01*
G37*
G36*
X023642Y009672D02*
X023472Y009502D01*
X023112Y009862D01*
X023282Y010032D01*
X023642Y009672D01*
G37*
G36*
X023861Y009891D02*
X023691Y009721D01*
X023331Y010081D01*
X023501Y010251D01*
X023861Y009891D01*
G37*
G36*
X024080Y010110D02*
X023910Y009940D01*
X023550Y010300D01*
X023720Y010470D01*
X024080Y010110D01*
G37*
G36*
X018664Y013335D02*
X018494Y013165D01*
X018134Y013525D01*
X018304Y013695D01*
X018664Y013335D01*
G37*
G36*
X018883Y013554D02*
X018713Y013384D01*
X018353Y013744D01*
X018523Y013914D01*
X018883Y013554D01*
G37*
G36*
X019102Y013773D02*
X018932Y013603D01*
X018572Y013963D01*
X018742Y014133D01*
X019102Y013773D01*
G37*
G36*
X019321Y013992D02*
X019151Y013822D01*
X018791Y014182D01*
X018961Y014352D01*
X019321Y013992D01*
G37*
G36*
X019540Y014211D02*
X019370Y014041D01*
X019010Y014401D01*
X019180Y014571D01*
X019540Y014211D01*
G37*
G36*
X019760Y014431D02*
X019590Y014261D01*
X019230Y014621D01*
X019400Y014791D01*
X019760Y014431D01*
G37*
G36*
X018444Y013116D02*
X018274Y012946D01*
X017914Y013306D01*
X018084Y013476D01*
X018444Y013116D01*
G37*
G36*
X018225Y012896D02*
X018055Y012726D01*
X017695Y013086D01*
X017865Y013256D01*
X018225Y012896D01*
G37*
G36*
X018006Y012677D02*
X017836Y012507D01*
X017476Y012867D01*
X017646Y013037D01*
X018006Y012677D01*
G37*
G36*
X017787Y012458D02*
X017617Y012288D01*
X017257Y012648D01*
X017427Y012818D01*
X017787Y012458D01*
G37*
G36*
X017568Y012239D02*
X017398Y012069D01*
X017038Y012429D01*
X017208Y012599D01*
X017568Y012239D01*
G37*
G36*
X017348Y012019D02*
X017178Y011849D01*
X016818Y012209D01*
X016988Y012379D01*
X017348Y012019D01*
G37*
G36*
X017129Y011800D02*
X016959Y011630D01*
X016599Y011990D01*
X016769Y012160D01*
X017129Y011800D01*
G37*
G36*
X016910Y011581D02*
X016740Y011411D01*
X016380Y011771D01*
X016550Y011941D01*
X016910Y011581D01*
G37*
G36*
X016691Y011362D02*
X016521Y011192D01*
X016161Y011552D01*
X016331Y011722D01*
X016691Y011362D01*
G37*
G36*
X016472Y011143D02*
X016302Y010973D01*
X015942Y011333D01*
X016112Y011503D01*
X016472Y011143D01*
G37*
D33*
G36*
X016472Y010300D02*
X016112Y009940D01*
X015942Y010110D01*
X016302Y010470D01*
X016472Y010300D01*
G37*
G36*
X016691Y010081D02*
X016331Y009721D01*
X016161Y009891D01*
X016521Y010251D01*
X016691Y010081D01*
G37*
G36*
X016910Y009862D02*
X016550Y009502D01*
X016380Y009672D01*
X016740Y010032D01*
X016910Y009862D01*
G37*
G36*
X017129Y009643D02*
X016769Y009283D01*
X016599Y009453D01*
X016959Y009813D01*
X017129Y009643D01*
G37*
G36*
X017348Y009423D02*
X016988Y009063D01*
X016818Y009233D01*
X017178Y009593D01*
X017348Y009423D01*
G37*
G36*
X017568Y009204D02*
X017208Y008844D01*
X017038Y009014D01*
X017398Y009374D01*
X017568Y009204D01*
G37*
G36*
X017787Y008985D02*
X017427Y008625D01*
X017257Y008795D01*
X017617Y009155D01*
X017787Y008985D01*
G37*
G36*
X018006Y008766D02*
X017646Y008406D01*
X017476Y008576D01*
X017836Y008936D01*
X018006Y008766D01*
G37*
G36*
X018225Y008547D02*
X017865Y008187D01*
X017695Y008357D01*
X018055Y008717D01*
X018225Y008547D01*
G37*
G36*
X018444Y008327D02*
X018084Y007967D01*
X017914Y008137D01*
X018274Y008497D01*
X018444Y008327D01*
G37*
G36*
X018664Y008108D02*
X018304Y007748D01*
X018134Y007918D01*
X018494Y008278D01*
X018664Y008108D01*
G37*
G36*
X018883Y007889D02*
X018523Y007529D01*
X018353Y007699D01*
X018713Y008059D01*
X018883Y007889D01*
G37*
G36*
X019102Y007670D02*
X018742Y007310D01*
X018572Y007480D01*
X018932Y007840D01*
X019102Y007670D01*
G37*
G36*
X019321Y007451D02*
X018961Y007091D01*
X018791Y007261D01*
X019151Y007621D01*
X019321Y007451D01*
G37*
G36*
X019540Y007231D02*
X019180Y006871D01*
X019010Y007041D01*
X019370Y007401D01*
X019540Y007231D01*
G37*
G36*
X019760Y007012D02*
X019400Y006652D01*
X019230Y006822D01*
X019590Y007182D01*
X019760Y007012D01*
G37*
G36*
X024080Y011333D02*
X023720Y010973D01*
X023550Y011143D01*
X023910Y011503D01*
X024080Y011333D01*
G37*
G36*
X023861Y011552D02*
X023501Y011192D01*
X023331Y011362D01*
X023691Y011722D01*
X023861Y011552D01*
G37*
G36*
X023642Y011771D02*
X023282Y011411D01*
X023112Y011581D01*
X023472Y011941D01*
X023642Y011771D01*
G37*
G36*
X023422Y011990D02*
X023062Y011630D01*
X022892Y011800D01*
X023252Y012160D01*
X023422Y011990D01*
G37*
G36*
X023203Y012209D02*
X022843Y011849D01*
X022673Y012019D01*
X023033Y012379D01*
X023203Y012209D01*
G37*
G36*
X022984Y012429D02*
X022624Y012069D01*
X022454Y012239D01*
X022814Y012599D01*
X022984Y012429D01*
G37*
G36*
X022765Y012648D02*
X022405Y012288D01*
X022235Y012458D01*
X022595Y012818D01*
X022765Y012648D01*
G37*
G36*
X022546Y012867D02*
X022186Y012507D01*
X022016Y012677D01*
X022376Y013037D01*
X022546Y012867D01*
G37*
G36*
X022326Y013086D02*
X021966Y012726D01*
X021796Y012896D01*
X022156Y013256D01*
X022326Y013086D01*
G37*
G36*
X022107Y013306D02*
X021747Y012946D01*
X021577Y013116D01*
X021937Y013476D01*
X022107Y013306D01*
G37*
G36*
X021888Y013525D02*
X021528Y013165D01*
X021358Y013335D01*
X021718Y013695D01*
X021888Y013525D01*
G37*
G36*
X021669Y013744D02*
X021309Y013384D01*
X021139Y013554D01*
X021499Y013914D01*
X021669Y013744D01*
G37*
G36*
X021450Y013963D02*
X021090Y013603D01*
X020920Y013773D01*
X021280Y014133D01*
X021450Y013963D01*
G37*
G36*
X021230Y014182D02*
X020870Y013822D01*
X020700Y013992D01*
X021060Y014352D01*
X021230Y014182D01*
G37*
G36*
X021011Y014401D02*
X020651Y014041D01*
X020481Y014211D01*
X020841Y014571D01*
X021011Y014401D01*
G37*
G36*
X020792Y014621D02*
X020432Y014261D01*
X020262Y014431D01*
X020622Y014791D01*
X020792Y014621D01*
G37*
D34*
G36*
X023740Y006910D02*
X023157Y007493D01*
X023268Y007604D01*
X023851Y007021D01*
X023740Y006910D01*
G37*
G36*
X023476Y006645D02*
X022893Y007228D01*
X023004Y007339D01*
X023587Y006756D01*
X023476Y006645D01*
G37*
G36*
X023212Y006381D02*
X022629Y006964D01*
X022740Y007075D01*
X023323Y006492D01*
X023212Y006381D01*
G37*
D35*
X030161Y008571D03*
X031161Y008571D03*
X031161Y009571D03*
X030161Y009571D03*
X030161Y010571D03*
X031161Y010571D03*
X031161Y011571D03*
X030161Y011571D03*
X030161Y012571D03*
X031161Y012571D03*
X031161Y013571D03*
X030161Y013571D03*
X030161Y014571D03*
X031161Y014571D03*
D36*
X031661Y003471D03*
X032661Y003471D03*
X033661Y003471D03*
X033661Y002471D03*
X034661Y002471D03*
X036661Y002471D03*
X037661Y002471D03*
X038661Y002471D03*
X037661Y003471D03*
X036661Y003471D03*
X032661Y002471D03*
X031661Y002471D03*
X030661Y002471D03*
X029661Y002471D03*
X028661Y002471D03*
X027661Y002471D03*
X027661Y003471D03*
X028661Y003471D03*
X029661Y003471D03*
X030661Y003471D03*
D37*
X034661Y003471D03*
X038661Y003471D03*
D38*
X037411Y011571D03*
X035411Y011571D03*
X033961Y011571D03*
X032961Y011571D03*
D39*
X040661Y004671D03*
X005961Y023471D03*
D40*
X005607Y023471D02*
X005609Y023508D01*
X005615Y023545D01*
X005624Y023580D01*
X005638Y023615D01*
X005654Y023648D01*
X005675Y023679D01*
X005698Y023708D01*
X005724Y023734D01*
X005753Y023757D01*
X005784Y023778D01*
X005817Y023794D01*
X005852Y023808D01*
X005887Y023817D01*
X005924Y023823D01*
X005961Y023825D01*
X005998Y023823D01*
X006035Y023817D01*
X006070Y023808D01*
X006105Y023794D01*
X006138Y023778D01*
X006169Y023757D01*
X006198Y023734D01*
X006224Y023708D01*
X006247Y023679D01*
X006268Y023648D01*
X006284Y023615D01*
X006298Y023580D01*
X006307Y023545D01*
X006313Y023508D01*
X006315Y023471D01*
X006313Y023434D01*
X006307Y023397D01*
X006298Y023362D01*
X006284Y023327D01*
X006268Y023294D01*
X006247Y023263D01*
X006224Y023234D01*
X006198Y023208D01*
X006169Y023185D01*
X006138Y023164D01*
X006105Y023148D01*
X006070Y023134D01*
X006035Y023125D01*
X005998Y023119D01*
X005961Y023117D01*
X005924Y023119D01*
X005887Y023125D01*
X005852Y023134D01*
X005817Y023148D01*
X005784Y023164D01*
X005753Y023185D01*
X005724Y023208D01*
X005698Y023234D01*
X005675Y023263D01*
X005654Y023294D01*
X005638Y023327D01*
X005624Y023362D01*
X005615Y023397D01*
X005609Y023434D01*
X005607Y023471D01*
X040307Y004671D02*
X040309Y004708D01*
X040315Y004745D01*
X040324Y004780D01*
X040338Y004815D01*
X040354Y004848D01*
X040375Y004879D01*
X040398Y004908D01*
X040424Y004934D01*
X040453Y004957D01*
X040484Y004978D01*
X040517Y004994D01*
X040552Y005008D01*
X040587Y005017D01*
X040624Y005023D01*
X040661Y005025D01*
X040698Y005023D01*
X040735Y005017D01*
X040770Y005008D01*
X040805Y004994D01*
X040838Y004978D01*
X040869Y004957D01*
X040898Y004934D01*
X040924Y004908D01*
X040947Y004879D01*
X040968Y004848D01*
X040984Y004815D01*
X040998Y004780D01*
X041007Y004745D01*
X041013Y004708D01*
X041015Y004671D01*
X041013Y004634D01*
X041007Y004597D01*
X040998Y004562D01*
X040984Y004527D01*
X040968Y004494D01*
X040947Y004463D01*
X040924Y004434D01*
X040898Y004408D01*
X040869Y004385D01*
X040838Y004364D01*
X040805Y004348D01*
X040770Y004334D01*
X040735Y004325D01*
X040698Y004319D01*
X040661Y004317D01*
X040624Y004319D01*
X040587Y004325D01*
X040552Y004334D01*
X040517Y004348D01*
X040484Y004364D01*
X040453Y004385D01*
X040424Y004408D01*
X040398Y004434D01*
X040375Y004463D01*
X040354Y004494D01*
X040338Y004527D01*
X040324Y004562D01*
X040315Y004597D01*
X040309Y004634D01*
X040307Y004671D01*
D41*
X005886Y020397D02*
X005592Y020397D01*
X004980Y020771D02*
X004686Y020771D01*
X005592Y021146D02*
X005886Y021146D01*
D42*
X018061Y007171D03*
M02*
