G75*
G70*
%OFA0B0*%
%FSLAX24Y24*%
%IPPOS*%
%LPD*%
%AMOC8*
5,1,8,0,0,1.08239X$1,22.5*
%
%ADD10C,0.0090*%
%ADD11C,0.0560*%
%ADD12C,0.0560*%
%ADD13C,0.0650*%
%ADD14R,0.0650X0.0650*%
%ADD15R,0.0740X0.0740*%
%ADD16C,0.0740*%
%ADD17C,0.1050*%
%ADD18R,0.1050X0.1050*%
%ADD19C,0.0600*%
%ADD20R,0.0800X0.0800*%
%ADD21C,0.0800*%
%ADD22C,0.0827*%
%ADD23R,0.0827X0.0827*%
%ADD24C,0.0600*%
%ADD25C,0.1817*%
%ADD26C,0.0660*%
%ADD27C,0.1300*%
%ADD28OC8,0.0560*%
%ADD29C,0.0594*%
%ADD30R,0.0594X0.0594*%
%ADD31OC8,0.0520*%
%ADD32OC8,0.0600*%
%ADD33C,0.0320*%
%ADD34C,0.0100*%
%ADD35C,0.0200*%
%ADD36C,0.0700*%
%ADD37C,0.0120*%
%ADD38C,0.0250*%
%ADD39C,0.0356*%
D10*
X032965Y014590D02*
X033033Y014590D01*
X033170Y014453D01*
X033170Y014316D02*
X033170Y014590D01*
X033357Y014590D02*
X033357Y014316D01*
X033562Y014316D01*
X033630Y014385D01*
X033630Y014590D01*
X033817Y014727D02*
X033817Y014316D01*
X034091Y014727D01*
X034091Y014316D01*
D11*
X034161Y016971D03*
X035161Y016971D03*
X036161Y016971D03*
X037161Y016971D03*
X038161Y016971D03*
X033161Y016971D03*
X032161Y016971D03*
X031161Y016971D03*
X030161Y016971D03*
X029161Y016971D03*
X028161Y016971D03*
X027161Y016971D03*
X026161Y016971D03*
X025161Y016971D03*
X024161Y016971D03*
X023161Y016971D03*
X022161Y016971D03*
X021161Y016971D03*
X020161Y016971D03*
X019161Y016971D03*
X018161Y016971D03*
X017161Y016971D03*
X016161Y016971D03*
X015161Y016971D03*
X014161Y016971D03*
X013161Y016971D03*
X012161Y016971D03*
X011161Y016971D03*
X010161Y016971D03*
X009161Y016971D03*
X008161Y016971D03*
X007161Y016971D03*
D12*
X007161Y021691D02*
X007161Y022251D01*
X008161Y022251D02*
X008161Y021691D01*
X009161Y021691D02*
X009161Y022251D01*
X010161Y022251D02*
X010161Y021691D01*
X011161Y021691D02*
X011161Y022251D01*
X012161Y022251D02*
X012161Y021691D01*
X013161Y021691D02*
X013161Y022251D01*
X014161Y022251D02*
X014161Y021691D01*
X015161Y021691D02*
X015161Y022251D01*
X016161Y022251D02*
X016161Y021691D01*
X017161Y021691D02*
X017161Y022251D01*
X018161Y022251D02*
X018161Y021691D01*
X019161Y021691D02*
X019161Y022251D01*
X020161Y022251D02*
X020161Y021691D01*
X021161Y021691D02*
X021161Y022251D01*
X022161Y022251D02*
X022161Y021691D01*
X023161Y021691D02*
X023161Y022251D01*
X024161Y022251D02*
X024161Y021691D01*
X025161Y021691D02*
X025161Y022251D01*
X026161Y022251D02*
X026161Y021691D01*
X027161Y021691D02*
X027161Y022251D01*
X028161Y022251D02*
X028161Y021691D01*
X029161Y021691D02*
X029161Y022251D01*
X030161Y022251D02*
X030161Y021691D01*
X031161Y021691D02*
X031161Y022251D01*
X032161Y022251D02*
X032161Y021691D01*
X033161Y021691D02*
X033161Y022251D01*
X034161Y022251D02*
X034161Y021691D01*
X035161Y021691D02*
X035161Y022251D01*
X036161Y022251D02*
X036161Y021691D01*
X037161Y021691D02*
X037161Y022251D01*
X038161Y022251D02*
X038161Y021691D01*
D13*
X039211Y018590D03*
X039211Y017590D03*
X039211Y016590D03*
X039211Y015590D03*
X035911Y013446D03*
X030911Y019371D03*
X022911Y019371D03*
X014911Y019371D03*
X006911Y019371D03*
X010411Y011721D03*
D14*
X008411Y011721D03*
X006911Y020371D03*
X014911Y020371D03*
X022911Y020371D03*
X030911Y020371D03*
X036911Y013446D03*
D15*
X033161Y023971D03*
X031161Y023971D03*
X025161Y023971D03*
X023161Y023971D03*
X017161Y023971D03*
X015161Y023971D03*
X009161Y023971D03*
X003561Y012671D03*
X003561Y007721D03*
X014761Y002871D03*
X018261Y002871D03*
X021761Y002871D03*
X025261Y002871D03*
D16*
X024261Y002871D03*
X023261Y002871D03*
X020761Y002871D03*
X019761Y002871D03*
X017261Y002871D03*
X016261Y002871D03*
X013761Y002871D03*
X012761Y002871D03*
X003561Y004971D03*
X003561Y005971D03*
X003561Y008721D03*
X003561Y009721D03*
X003561Y010721D03*
X003561Y013671D03*
X003561Y014671D03*
X003561Y015671D03*
X003561Y017521D03*
X003561Y018521D03*
X003561Y020271D03*
X003561Y021271D03*
X008161Y017971D03*
X009161Y017971D03*
X010161Y017971D03*
X011161Y017971D03*
X012161Y017971D03*
X013161Y017971D03*
X016161Y017971D03*
X017161Y017971D03*
X018161Y017971D03*
X019161Y017971D03*
X020161Y017971D03*
X021161Y017971D03*
X024161Y017971D03*
X025161Y017971D03*
X026161Y017971D03*
X027161Y017971D03*
X028161Y017971D03*
X029161Y017971D03*
X032161Y017971D03*
X033161Y017971D03*
X034161Y017971D03*
X035161Y017971D03*
X036161Y017971D03*
X037161Y017971D03*
X036161Y023971D03*
X035161Y023971D03*
X034161Y023971D03*
X030161Y023971D03*
X028161Y023971D03*
X027161Y023971D03*
X026161Y023971D03*
X022161Y023971D03*
X020161Y023971D03*
X019161Y023971D03*
X018161Y023971D03*
X014161Y023971D03*
X012161Y023971D03*
X011161Y023971D03*
X010161Y023971D03*
X023189Y014493D03*
X023896Y013786D03*
X033281Y009361D03*
X035841Y009361D03*
X035841Y007581D03*
X033281Y007581D03*
D17*
X040354Y013490D03*
X040354Y015490D03*
X040354Y017490D03*
D18*
X040354Y019490D03*
D19*
X006711Y015171D02*
X006111Y015171D01*
X006111Y014171D02*
X006711Y014171D01*
X006711Y013171D02*
X006111Y013171D01*
X006111Y010221D02*
X006711Y010221D01*
X006711Y009221D02*
X006111Y009221D01*
X006111Y008221D02*
X006711Y008221D01*
D20*
X040061Y009021D03*
D21*
X040061Y007053D03*
D22*
X041143Y008195D03*
X041143Y009848D03*
D23*
X038978Y009848D03*
X038978Y008195D03*
D24*
X040511Y016490D03*
X040511Y018490D03*
D25*
X040661Y023471D03*
X040661Y002971D03*
X004161Y002971D03*
X004161Y023471D03*
D26*
X008169Y005851D03*
X009153Y005851D03*
X009153Y005071D03*
X008169Y005071D03*
D27*
X006291Y004001D03*
X011031Y004001D03*
D28*
X030161Y008571D03*
X031161Y008571D03*
X031161Y009571D03*
X030161Y009571D03*
X030161Y010571D03*
X031161Y010571D03*
X031161Y011571D03*
X030161Y011571D03*
X030161Y012571D03*
X031161Y012571D03*
X031161Y013571D03*
X030161Y013571D03*
X030161Y014571D03*
X031161Y014571D03*
D29*
X031661Y003471D03*
X032661Y003471D03*
X033661Y003471D03*
X033661Y002471D03*
X034661Y002471D03*
X036661Y002471D03*
X037661Y002471D03*
X038661Y002471D03*
X037661Y003471D03*
X036661Y003471D03*
X032661Y002471D03*
X031661Y002471D03*
X030661Y002471D03*
X029661Y002471D03*
X028661Y002471D03*
X027661Y002471D03*
X027661Y003471D03*
X028661Y003471D03*
X029661Y003471D03*
X030661Y003471D03*
D30*
X034661Y003471D03*
X038661Y003471D03*
D31*
X037411Y011571D03*
X035411Y011571D03*
X033961Y011571D03*
X032961Y011571D03*
D32*
X018061Y007171D03*
D33*
X019661Y008221D03*
X020161Y007721D03*
X019161Y008721D03*
X018661Y008971D03*
X018661Y009921D03*
X018561Y011271D03*
X019111Y011321D03*
X019661Y011371D03*
X020211Y011421D03*
X020511Y011971D03*
X020961Y012321D03*
X020361Y012671D03*
X020361Y013471D03*
X021911Y011221D03*
X021886Y010596D03*
X022411Y010021D03*
X026261Y009521D03*
X026636Y009171D03*
X026936Y008771D03*
X026561Y008421D03*
X026186Y008071D03*
X025811Y007721D03*
X027161Y006921D03*
X028911Y006421D03*
X030161Y006121D03*
X031661Y005821D03*
X033161Y005521D03*
X034161Y006471D03*
X033671Y006871D03*
X031616Y007317D03*
X031161Y007721D03*
X030661Y008071D03*
X035161Y005271D03*
X037161Y004471D03*
X037661Y004821D03*
X025111Y005371D03*
X023836Y006396D03*
X018011Y011221D03*
X017461Y011171D03*
X015811Y012121D03*
X015554Y011571D03*
X013911Y010771D03*
X015707Y012968D03*
X016661Y013371D03*
X015911Y014221D03*
X015111Y014796D03*
X016661Y015621D03*
X013911Y017971D03*
X008511Y015371D03*
X010061Y008121D03*
X006261Y005371D03*
X015361Y006571D03*
X027411Y014321D03*
X025461Y014871D03*
X021911Y017971D03*
X029911Y017971D03*
D34*
X002914Y002455D02*
X003090Y002150D01*
X003339Y001900D01*
X003644Y001724D01*
X003985Y001633D01*
X004161Y001621D01*
X040469Y001621D01*
X040501Y001621D01*
X040531Y001621D01*
X040707Y001633D01*
X041047Y001724D01*
X041353Y001900D01*
X041602Y002150D01*
X041778Y002455D01*
X041869Y002795D01*
X041881Y002971D01*
X041881Y010171D01*
X040661Y010171D01*
X040661Y008735D01*
X040670Y008666D01*
X040661Y008654D01*
X040661Y008639D01*
X040612Y008590D01*
X040611Y008588D01*
X040611Y008559D01*
X040523Y008471D01*
X040522Y008471D01*
X039861Y007604D01*
X039861Y007589D01*
X039812Y007540D01*
X039770Y007484D01*
X039754Y007482D01*
X039744Y007471D01*
X039674Y007471D01*
X039605Y007462D01*
X039593Y007471D01*
X038478Y007471D01*
X038361Y007589D01*
X038361Y007754D01*
X038361Y010346D01*
X032725Y010346D01*
X031717Y009338D01*
X031615Y009296D01*
X031506Y009296D01*
X031494Y009296D01*
X031339Y009141D01*
X030983Y009141D01*
X030731Y009393D01*
X030731Y009750D01*
X030983Y010001D01*
X031339Y010001D01*
X031470Y009870D01*
X032455Y010855D01*
X032556Y010896D01*
X032665Y010896D01*
X038361Y010896D01*
X038361Y015596D01*
X028139Y015596D01*
X025352Y012810D01*
X025261Y012771D01*
X025161Y012771D01*
X023811Y012771D01*
X020861Y012771D01*
X020761Y012771D01*
X020669Y012810D01*
X020317Y013161D01*
X020299Y013161D01*
X020185Y013209D01*
X020098Y013296D01*
X020051Y013410D01*
X020051Y013533D01*
X020098Y013647D01*
X020185Y013734D01*
X020299Y013781D01*
X020422Y013781D01*
X020536Y013734D01*
X020624Y013647D01*
X020671Y013533D01*
X020671Y013515D01*
X020914Y013271D01*
X022328Y013271D01*
X022275Y013293D01*
X022183Y013386D01*
X022133Y013506D01*
X022133Y013637D01*
X022183Y013757D01*
X022261Y013835D01*
X022261Y016354D01*
X022378Y016471D01*
X022378Y016471D01*
X022749Y016842D01*
X022731Y016886D01*
X022731Y017057D01*
X022796Y017215D01*
X022917Y017336D01*
X023075Y017401D01*
X023246Y017401D01*
X023404Y017336D01*
X023525Y017215D01*
X023591Y017057D01*
X023591Y016886D01*
X023525Y016728D01*
X023404Y016607D01*
X023246Y016541D01*
X023075Y016541D01*
X023032Y016560D01*
X022661Y016189D01*
X022661Y013835D01*
X022739Y013757D01*
X022789Y013637D01*
X022789Y013506D01*
X022739Y013386D01*
X022647Y013293D01*
X022594Y013271D01*
X023661Y013271D01*
X023661Y013321D01*
X023602Y013345D01*
X023455Y013492D01*
X023376Y013683D01*
X023376Y013890D01*
X023435Y014032D01*
X023292Y013973D01*
X023086Y013973D01*
X022894Y014052D01*
X022748Y014199D01*
X022669Y014390D01*
X022669Y014597D01*
X022748Y014788D01*
X022894Y014934D01*
X023086Y015013D01*
X023292Y015013D01*
X023484Y014934D01*
X023630Y014788D01*
X023709Y014597D01*
X023709Y014390D01*
X023650Y014247D01*
X023793Y014306D01*
X024000Y014306D01*
X024191Y014227D01*
X024337Y014081D01*
X024416Y013890D01*
X024416Y013683D01*
X024337Y013492D01*
X024191Y013345D01*
X024061Y013291D01*
X024061Y013271D01*
X024747Y013271D01*
X024683Y013336D01*
X024633Y013456D01*
X024633Y013587D01*
X024683Y013707D01*
X024775Y013800D01*
X024895Y013850D01*
X025006Y013850D01*
X027578Y016421D01*
X027744Y016421D01*
X030878Y016421D01*
X030961Y016504D01*
X030961Y016589D01*
X030917Y016607D01*
X030796Y016728D01*
X030731Y016886D01*
X030731Y017057D01*
X030796Y017215D01*
X030917Y017336D01*
X031075Y017401D01*
X031246Y017401D01*
X031404Y017336D01*
X031525Y017215D01*
X031591Y017057D01*
X031591Y016886D01*
X031525Y016728D01*
X031404Y016607D01*
X031361Y016589D01*
X031361Y016504D01*
X031361Y016339D01*
X031161Y016139D01*
X031119Y016096D01*
X038361Y016096D01*
X038361Y016589D01*
X038246Y016541D01*
X038075Y016541D01*
X037917Y016607D01*
X037796Y016728D01*
X037731Y016886D01*
X037731Y017057D01*
X037796Y017215D01*
X037917Y017336D01*
X038075Y017401D01*
X038246Y017401D01*
X038361Y017354D01*
X038361Y018393D01*
X037174Y019671D01*
X006674Y019671D01*
X005961Y019168D01*
X005961Y015137D01*
X006126Y014971D01*
X007144Y014971D01*
X007261Y014854D01*
X007261Y014689D01*
X007261Y012271D01*
X008844Y012271D01*
X008961Y012154D01*
X008961Y011989D01*
X008961Y010589D01*
X008844Y010471D01*
X008678Y010471D01*
X006267Y010471D01*
X006161Y010365D01*
X006161Y010078D01*
X006267Y009971D01*
X007144Y009971D01*
X007261Y009854D01*
X007261Y009689D01*
X007261Y007089D01*
X007144Y006971D01*
X006978Y006971D01*
X006536Y006971D01*
X006536Y005518D01*
X006571Y005433D01*
X006571Y005310D01*
X006524Y005196D01*
X006436Y005109D01*
X006322Y005061D01*
X006199Y005061D01*
X006085Y005109D01*
X005998Y005196D01*
X005951Y005310D01*
X005951Y005433D01*
X005986Y005518D01*
X005986Y006971D01*
X002811Y006971D01*
X002811Y002971D01*
X002822Y002795D01*
X002914Y002455D01*
X002913Y002457D02*
X013440Y002457D01*
X013466Y002431D02*
X013320Y002577D01*
X013241Y002768D01*
X013241Y002975D01*
X013320Y003166D01*
X013466Y003312D01*
X013657Y003391D01*
X013864Y003391D01*
X014055Y003312D01*
X014202Y003166D01*
X014241Y003071D01*
X014241Y003304D01*
X014329Y003391D01*
X015193Y003391D01*
X015281Y003304D01*
X015281Y002439D01*
X015193Y002351D01*
X014329Y002351D01*
X014241Y002439D01*
X014241Y002672D01*
X014202Y002577D01*
X014055Y002431D01*
X013864Y002351D01*
X013657Y002351D01*
X013466Y002431D01*
X013341Y002555D02*
X002887Y002555D01*
X002860Y002654D02*
X013288Y002654D01*
X013247Y002753D02*
X002834Y002753D01*
X002819Y002851D02*
X013241Y002851D01*
X013241Y002950D02*
X002812Y002950D01*
X002811Y003048D02*
X013271Y003048D01*
X013312Y003147D02*
X002811Y003147D01*
X002811Y003245D02*
X006026Y003245D01*
X006132Y003201D02*
X006450Y003201D01*
X006744Y003323D01*
X006969Y003548D01*
X007091Y003842D01*
X007091Y004161D01*
X006969Y004455D01*
X006744Y004680D01*
X006450Y004801D01*
X006132Y004801D01*
X005838Y004680D01*
X005613Y004455D01*
X005491Y004161D01*
X005491Y003842D01*
X005613Y003548D01*
X005838Y003323D01*
X006132Y003201D01*
X005817Y003344D02*
X002811Y003344D01*
X002811Y003442D02*
X005719Y003442D01*
X005620Y003541D02*
X002811Y003541D01*
X002811Y003639D02*
X005575Y003639D01*
X005534Y003738D02*
X002811Y003738D01*
X002811Y003837D02*
X005493Y003837D01*
X005491Y003935D02*
X002811Y003935D01*
X002811Y004034D02*
X005491Y004034D01*
X005491Y004132D02*
X002811Y004132D01*
X002811Y004231D02*
X005520Y004231D01*
X005561Y004329D02*
X002811Y004329D01*
X002811Y004428D02*
X005601Y004428D01*
X005684Y004526D02*
X002811Y004526D01*
X002811Y004625D02*
X005783Y004625D01*
X005943Y004723D02*
X002811Y004723D01*
X002811Y004822D02*
X007752Y004822D01*
X007762Y004800D02*
X007897Y004665D01*
X008073Y004591D01*
X008264Y004591D01*
X008441Y004665D01*
X008576Y004800D01*
X008649Y004976D01*
X008649Y005167D01*
X008576Y005343D01*
X008457Y005461D01*
X008576Y005580D01*
X008649Y005756D01*
X008649Y005947D01*
X008576Y006123D01*
X008441Y006258D01*
X008264Y006331D01*
X008073Y006331D01*
X007897Y006258D01*
X007762Y006123D01*
X007689Y005947D01*
X007689Y005756D01*
X007762Y005580D01*
X007880Y005461D01*
X007762Y005343D01*
X007689Y005167D01*
X007689Y004976D01*
X007762Y004800D01*
X007838Y004723D02*
X006638Y004723D01*
X006799Y004625D02*
X007993Y004625D01*
X008345Y004625D02*
X010523Y004625D01*
X010578Y004680D02*
X010353Y004455D01*
X010231Y004161D01*
X010231Y003842D01*
X010353Y003548D01*
X010578Y003323D01*
X010872Y003201D01*
X011190Y003201D01*
X011484Y003323D01*
X011709Y003548D01*
X011831Y003842D01*
X011831Y004161D01*
X011709Y004455D01*
X011484Y004680D01*
X011190Y004801D01*
X010872Y004801D01*
X010578Y004680D01*
X010683Y004723D02*
X008499Y004723D01*
X008585Y004822D02*
X022777Y004822D01*
X022679Y004921D02*
X008626Y004921D01*
X008649Y005019D02*
X022580Y005019D01*
X022482Y005118D02*
X008649Y005118D01*
X008628Y005216D02*
X022383Y005216D01*
X022285Y005315D02*
X008587Y005315D01*
X008506Y005413D02*
X008957Y005413D01*
X008881Y005445D02*
X009057Y005371D01*
X009248Y005371D01*
X009425Y005445D01*
X009560Y005580D01*
X009633Y005756D01*
X009633Y005947D01*
X009560Y006123D01*
X009425Y006258D01*
X009248Y006331D01*
X009057Y006331D01*
X008881Y006258D01*
X008746Y006123D01*
X008673Y005947D01*
X008673Y005756D01*
X008746Y005580D01*
X008881Y005445D01*
X008814Y005512D02*
X008508Y005512D01*
X008588Y005610D02*
X008733Y005610D01*
X008692Y005709D02*
X008629Y005709D01*
X008649Y005807D02*
X008673Y005807D01*
X008673Y005906D02*
X008649Y005906D01*
X008625Y006004D02*
X008697Y006004D01*
X008738Y006103D02*
X008584Y006103D01*
X008497Y006202D02*
X008824Y006202D01*
X008982Y006300D02*
X008340Y006300D01*
X007998Y006300D02*
X006536Y006300D01*
X006536Y006202D02*
X007840Y006202D01*
X007753Y006103D02*
X006536Y006103D01*
X006536Y006004D02*
X007713Y006004D01*
X007689Y005906D02*
X006536Y005906D01*
X006536Y005807D02*
X007689Y005807D01*
X007708Y005709D02*
X006536Y005709D01*
X006536Y005610D02*
X007749Y005610D01*
X007830Y005512D02*
X006538Y005512D01*
X006571Y005413D02*
X007832Y005413D01*
X007750Y005315D02*
X006571Y005315D01*
X006532Y005216D02*
X007709Y005216D01*
X007689Y005118D02*
X006445Y005118D01*
X006076Y005118D02*
X002811Y005118D01*
X002811Y005216D02*
X005990Y005216D01*
X005951Y005315D02*
X002811Y005315D01*
X002811Y005413D02*
X005951Y005413D01*
X005983Y005512D02*
X003810Y005512D01*
X003855Y005531D02*
X003664Y005451D01*
X003457Y005451D01*
X003266Y005531D01*
X003120Y005677D01*
X003041Y005868D01*
X003041Y006075D01*
X003120Y006266D01*
X003266Y006412D01*
X003457Y006491D01*
X003664Y006491D01*
X003855Y006412D01*
X004002Y006266D01*
X004081Y006075D01*
X004081Y005868D01*
X004002Y005677D01*
X003855Y005531D01*
X003935Y005610D02*
X005986Y005610D01*
X005986Y005709D02*
X004015Y005709D01*
X004056Y005807D02*
X005986Y005807D01*
X005986Y005906D02*
X004081Y005906D01*
X004081Y006004D02*
X005986Y006004D01*
X005986Y006103D02*
X004069Y006103D01*
X004028Y006202D02*
X005986Y006202D01*
X005986Y006300D02*
X003967Y006300D01*
X003869Y006399D02*
X005986Y006399D01*
X005986Y006497D02*
X002811Y006497D01*
X002811Y006399D02*
X003253Y006399D01*
X003154Y006300D02*
X002811Y006300D01*
X002811Y006202D02*
X003093Y006202D01*
X003052Y006103D02*
X002811Y006103D01*
X002811Y006004D02*
X003041Y006004D01*
X003041Y005906D02*
X002811Y005906D01*
X002811Y005807D02*
X003066Y005807D01*
X003107Y005709D02*
X002811Y005709D01*
X002811Y005610D02*
X003187Y005610D01*
X003312Y005512D02*
X002811Y005512D01*
X002811Y005019D02*
X007689Y005019D01*
X007712Y004921D02*
X002811Y004921D01*
X002811Y006596D02*
X005986Y006596D01*
X005986Y006694D02*
X002811Y006694D01*
X002811Y006793D02*
X005986Y006793D01*
X005986Y006891D02*
X002811Y006891D01*
X002811Y007171D02*
X002811Y023471D01*
X002822Y023648D01*
X002914Y023988D01*
X003090Y024293D01*
X003339Y024543D01*
X003644Y024719D01*
X003985Y024810D01*
X004161Y024821D01*
X004212Y024821D01*
X004223Y024821D01*
X040531Y024821D01*
X040707Y024810D01*
X041047Y024719D01*
X041353Y024543D01*
X041602Y024293D01*
X041778Y023988D01*
X041869Y023648D01*
X041881Y023471D01*
X041881Y023426D01*
X041881Y023409D01*
X041881Y010371D01*
X041300Y010371D01*
X041252Y010392D01*
X041035Y010392D01*
X040987Y010371D01*
X040461Y010371D01*
X040461Y008721D01*
X039661Y007671D01*
X038561Y007671D01*
X038561Y015616D01*
X038756Y015616D01*
X038756Y015500D01*
X038825Y015333D01*
X038953Y015205D01*
X039120Y015135D01*
X039301Y015135D01*
X039469Y015205D01*
X039596Y015333D01*
X039666Y015500D01*
X039666Y015681D01*
X039596Y015848D01*
X039469Y015976D01*
X039301Y016045D01*
X039120Y016045D01*
X039093Y016034D01*
X039050Y016076D01*
X038561Y016076D01*
X038561Y016866D01*
X038571Y016890D01*
X038571Y017053D01*
X038561Y017077D01*
X038561Y018471D01*
X037261Y019871D01*
X006611Y019871D01*
X005761Y019271D01*
X005761Y015430D01*
X005746Y015415D01*
X005681Y015257D01*
X005681Y015086D01*
X005746Y014928D01*
X005867Y014807D01*
X006025Y014741D01*
X006796Y014741D01*
X006869Y014771D01*
X007061Y014771D01*
X007061Y014430D01*
X006954Y014536D01*
X006796Y014601D01*
X006025Y014601D01*
X005867Y014536D01*
X005746Y014415D01*
X005681Y014257D01*
X005681Y014086D01*
X005746Y013928D01*
X005867Y013807D01*
X006025Y013741D01*
X006796Y013741D01*
X006954Y013807D01*
X007061Y013913D01*
X007061Y013430D01*
X006954Y013536D01*
X006796Y013601D01*
X006025Y013601D01*
X005867Y013536D01*
X005746Y013415D01*
X005681Y013257D01*
X005681Y013086D01*
X005746Y012928D01*
X005867Y012807D01*
X006025Y012741D01*
X006796Y012741D01*
X006954Y012807D01*
X007061Y012913D01*
X007061Y012071D01*
X008761Y012071D01*
X008761Y010671D01*
X006184Y010671D01*
X006164Y010651D01*
X006025Y010651D01*
X005867Y010586D01*
X005746Y010465D01*
X005681Y010307D01*
X005681Y010136D01*
X005746Y009978D01*
X005867Y009857D01*
X006025Y009791D01*
X006164Y009791D01*
X006184Y009771D01*
X007061Y009771D01*
X007061Y009480D01*
X006954Y009586D01*
X006796Y009651D01*
X006025Y009651D01*
X005867Y009586D01*
X005746Y009465D01*
X005681Y009307D01*
X005681Y009136D01*
X005746Y008978D01*
X005867Y008857D01*
X006025Y008791D01*
X006796Y008791D01*
X006954Y008857D01*
X007061Y008963D01*
X007061Y008480D01*
X006954Y008586D01*
X006796Y008651D01*
X006025Y008651D01*
X005867Y008586D01*
X005746Y008465D01*
X005681Y008307D01*
X005681Y008136D01*
X005746Y007978D01*
X005867Y007857D01*
X006025Y007791D01*
X006796Y007791D01*
X006954Y007857D01*
X007061Y007963D01*
X007061Y007171D01*
X002811Y007171D01*
X002811Y007187D02*
X007061Y007187D01*
X007061Y007286D02*
X002811Y007286D01*
X002811Y007384D02*
X007061Y007384D01*
X007061Y007483D02*
X002811Y007483D01*
X002811Y007581D02*
X007061Y007581D01*
X007061Y007680D02*
X002811Y007680D01*
X002811Y007778D02*
X007061Y007778D01*
X007061Y007877D02*
X006974Y007877D01*
X007261Y007877D02*
X019890Y007877D01*
X019898Y007897D02*
X019851Y007783D01*
X019851Y007660D01*
X019898Y007546D01*
X019985Y007459D01*
X020099Y007411D01*
X020188Y007411D01*
X023511Y004089D01*
X023628Y003971D01*
X036652Y003971D01*
X036705Y003918D01*
X036572Y003918D01*
X036408Y003850D01*
X036282Y003725D01*
X036214Y003560D01*
X036214Y003383D01*
X036282Y003218D01*
X036408Y003093D01*
X036572Y003025D01*
X036750Y003025D01*
X036914Y003093D01*
X037040Y003218D01*
X037108Y003383D01*
X037108Y003560D01*
X037040Y003725D01*
X036919Y003846D01*
X036944Y003846D01*
X037403Y003846D01*
X037282Y003725D01*
X037214Y003560D01*
X037214Y003383D01*
X037282Y003218D01*
X037408Y003093D01*
X037572Y003025D01*
X037750Y003025D01*
X037914Y003093D01*
X038040Y003218D01*
X038108Y003383D01*
X038108Y003560D01*
X038040Y003725D01*
X037919Y003846D01*
X038004Y003846D01*
X038214Y003635D01*
X038214Y003112D01*
X038302Y003025D01*
X039020Y003025D01*
X039108Y003112D01*
X039108Y003830D01*
X039020Y003918D01*
X038497Y003918D01*
X038170Y004246D01*
X038004Y004246D01*
X037373Y004246D01*
X037424Y004296D01*
X037471Y004410D01*
X037471Y004533D01*
X037442Y004601D01*
X037485Y004559D01*
X037599Y004511D01*
X037722Y004511D01*
X037836Y004559D01*
X037924Y004646D01*
X037971Y004760D01*
X037971Y004883D01*
X037924Y004997D01*
X037836Y005084D01*
X037722Y005131D01*
X037599Y005131D01*
X037485Y005084D01*
X037422Y005021D01*
X036994Y005021D01*
X036828Y005021D01*
X036778Y004971D01*
X035246Y004971D01*
X035336Y005009D01*
X035424Y005096D01*
X035471Y005210D01*
X035471Y005333D01*
X035424Y005447D01*
X035336Y005534D01*
X035222Y005581D01*
X035099Y005581D01*
X034985Y005534D01*
X034898Y005447D01*
X034851Y005333D01*
X034851Y005271D01*
X033349Y005271D01*
X033424Y005346D01*
X033471Y005460D01*
X033471Y005583D01*
X033424Y005697D01*
X033349Y005771D01*
X034568Y005771D01*
X034734Y005771D01*
X035924Y006962D01*
X036041Y007079D01*
X036041Y007101D01*
X036135Y007141D01*
X036282Y007287D01*
X036361Y007478D01*
X036361Y007685D01*
X036282Y007876D01*
X036135Y008022D01*
X035944Y008101D01*
X035737Y008101D01*
X035546Y008022D01*
X035400Y007876D01*
X035321Y007685D01*
X035321Y007478D01*
X035400Y007287D01*
X035542Y007145D01*
X034568Y006171D01*
X034246Y006171D01*
X034336Y006209D01*
X034424Y006296D01*
X034471Y006410D01*
X034471Y006533D01*
X034424Y006647D01*
X034336Y006734D01*
X034222Y006781D01*
X034099Y006781D01*
X033985Y006734D01*
X033922Y006671D01*
X033909Y006671D01*
X033933Y006696D01*
X033980Y006810D01*
X033980Y006933D01*
X033933Y007047D01*
X033846Y007134D01*
X033732Y007181D01*
X033616Y007181D01*
X033722Y007287D01*
X033801Y007478D01*
X033801Y007685D01*
X033722Y007876D01*
X033575Y008022D01*
X033384Y008101D01*
X033177Y008101D01*
X032986Y008022D01*
X032840Y007876D01*
X032761Y007685D01*
X032761Y007478D01*
X032840Y007287D01*
X032986Y007141D01*
X033165Y007066D01*
X031804Y007066D01*
X031878Y007141D01*
X031926Y007255D01*
X031926Y007378D01*
X031878Y007492D01*
X031791Y007579D01*
X031677Y007627D01*
X031554Y007627D01*
X031440Y007579D01*
X031435Y007575D01*
X031471Y007660D01*
X031471Y007783D01*
X031424Y007897D01*
X031336Y007984D01*
X031222Y008031D01*
X031099Y008031D01*
X030985Y007984D01*
X030942Y007941D01*
X030971Y008010D01*
X030971Y008133D01*
X030924Y008247D01*
X030836Y008334D01*
X030722Y008381D01*
X030599Y008381D01*
X030564Y008367D01*
X030591Y008393D01*
X030591Y008750D01*
X030339Y009001D01*
X029983Y009001D01*
X029731Y008750D01*
X029731Y008434D01*
X028561Y009604D01*
X028444Y009721D01*
X026499Y009721D01*
X026436Y009784D01*
X026322Y009831D01*
X026199Y009831D01*
X026085Y009784D01*
X025998Y009697D01*
X025951Y009583D01*
X025951Y009460D01*
X025998Y009346D01*
X026085Y009259D01*
X026199Y009211D01*
X026322Y009211D01*
X026326Y009213D01*
X026326Y009110D01*
X026373Y008996D01*
X026460Y008909D01*
X026574Y008861D01*
X026638Y008861D01*
X026626Y008833D01*
X026626Y008730D01*
X026622Y008731D01*
X026499Y008731D01*
X026385Y008684D01*
X026298Y008597D01*
X026251Y008483D01*
X026251Y008380D01*
X026247Y008381D01*
X026124Y008381D01*
X026010Y008334D01*
X025923Y008247D01*
X025876Y008133D01*
X025876Y008030D01*
X025872Y008031D01*
X025749Y008031D01*
X025635Y007984D01*
X025548Y007897D01*
X025510Y007805D01*
X023994Y009321D01*
X023828Y009321D01*
X022594Y009321D01*
X020521Y011394D01*
X020521Y011483D01*
X020474Y011597D01*
X020386Y011684D01*
X020272Y011731D01*
X020149Y011731D01*
X020035Y011684D01*
X019948Y011597D01*
X019925Y011543D01*
X019924Y011547D01*
X019836Y011634D01*
X019722Y011681D01*
X019599Y011681D01*
X019485Y011634D01*
X019398Y011547D01*
X019375Y011493D01*
X019374Y011497D01*
X019286Y011584D01*
X019172Y011631D01*
X019049Y011631D01*
X018935Y011584D01*
X018848Y011497D01*
X018825Y011443D01*
X018824Y011447D01*
X018736Y011534D01*
X018622Y011581D01*
X018499Y011581D01*
X018385Y011534D01*
X018298Y011447D01*
X018275Y011393D01*
X018274Y011397D01*
X018186Y011484D01*
X018072Y011531D01*
X017949Y011531D01*
X017835Y011484D01*
X017748Y011397D01*
X017725Y011343D01*
X017724Y011347D01*
X017636Y011434D01*
X017522Y011481D01*
X017399Y011481D01*
X017285Y011434D01*
X017198Y011347D01*
X017151Y011233D01*
X017151Y011110D01*
X017198Y010996D01*
X017285Y010909D01*
X017399Y010861D01*
X017488Y010861D01*
X018061Y010289D01*
X018178Y010171D01*
X018472Y010171D01*
X018398Y010097D01*
X018351Y009983D01*
X018351Y009860D01*
X018398Y009746D01*
X018461Y009683D01*
X018461Y009210D01*
X018398Y009147D01*
X018351Y009033D01*
X018351Y008910D01*
X018398Y008796D01*
X018485Y008709D01*
X018599Y008661D01*
X018722Y008661D01*
X018836Y008709D01*
X018851Y008723D01*
X018851Y008660D01*
X018898Y008546D01*
X018985Y008459D01*
X019099Y008411D01*
X019222Y008411D01*
X019336Y008459D01*
X019399Y008521D01*
X019575Y008521D01*
X019485Y008484D01*
X019398Y008397D01*
X019351Y008283D01*
X019351Y008160D01*
X019398Y008046D01*
X019485Y007959D01*
X019599Y007911D01*
X019722Y007911D01*
X019836Y007959D01*
X019899Y008021D01*
X020075Y008021D01*
X019985Y007984D01*
X019898Y007897D01*
X019853Y007975D02*
X019976Y007975D01*
X019851Y007778D02*
X007261Y007778D01*
X007261Y007680D02*
X019851Y007680D01*
X019883Y007581D02*
X018287Y007581D01*
X018247Y007621D02*
X017874Y007621D01*
X017611Y007358D01*
X017611Y006985D01*
X017874Y006721D01*
X018247Y006721D01*
X018511Y006985D01*
X018511Y007358D01*
X018247Y007621D01*
X018386Y007483D02*
X019961Y007483D01*
X020215Y007384D02*
X018485Y007384D01*
X018511Y007286D02*
X020314Y007286D01*
X020412Y007187D02*
X018511Y007187D01*
X018511Y007088D02*
X020511Y007088D01*
X020609Y006990D02*
X018511Y006990D01*
X018417Y006891D02*
X020708Y006891D01*
X020807Y006793D02*
X018319Y006793D01*
X017803Y006793D02*
X006536Y006793D01*
X006536Y006891D02*
X017704Y006891D01*
X017611Y006990D02*
X007162Y006990D01*
X007261Y007088D02*
X017611Y007088D01*
X017611Y007187D02*
X007261Y007187D01*
X007261Y007286D02*
X017611Y007286D01*
X017637Y007384D02*
X007261Y007384D01*
X007261Y007483D02*
X017736Y007483D01*
X017834Y007581D02*
X007261Y007581D01*
X007261Y007975D02*
X019469Y007975D01*
X019386Y008074D02*
X007261Y008074D01*
X007261Y008172D02*
X019351Y008172D01*
X019351Y008271D02*
X007261Y008271D01*
X007261Y008370D02*
X019387Y008370D01*
X019346Y008468D02*
X019469Y008468D01*
X019661Y008221D02*
X020161Y008221D01*
X023911Y004471D01*
X037161Y004471D01*
X037437Y004329D02*
X041881Y004329D01*
X041881Y004231D02*
X038184Y004231D01*
X038283Y004132D02*
X041881Y004132D01*
X041881Y004034D02*
X038381Y004034D01*
X038480Y003935D02*
X041881Y003935D01*
X041881Y003837D02*
X039102Y003837D01*
X039108Y003738D02*
X041881Y003738D01*
X041881Y003639D02*
X039108Y003639D01*
X039108Y003541D02*
X041881Y003541D01*
X041881Y003442D02*
X039108Y003442D01*
X039108Y003344D02*
X041881Y003344D01*
X041881Y003245D02*
X039108Y003245D01*
X039108Y003147D02*
X041881Y003147D01*
X041881Y003048D02*
X039043Y003048D01*
X038914Y002850D02*
X038750Y002918D01*
X038572Y002918D01*
X038408Y002850D01*
X038282Y002725D01*
X038214Y002560D01*
X038214Y002383D01*
X038282Y002218D01*
X038408Y002093D01*
X038572Y002025D01*
X038750Y002025D01*
X038914Y002093D01*
X039040Y002218D01*
X039108Y002383D01*
X039108Y002560D01*
X039040Y002725D01*
X038914Y002850D01*
X038912Y002851D02*
X041873Y002851D01*
X041879Y002950D02*
X025781Y002950D01*
X025781Y003048D02*
X027515Y003048D01*
X027572Y003025D02*
X027408Y003093D01*
X027282Y003218D01*
X027214Y003383D01*
X027214Y003560D01*
X027282Y003725D01*
X027408Y003850D01*
X027572Y003918D01*
X027750Y003918D01*
X027914Y003850D01*
X028040Y003725D01*
X028108Y003560D01*
X028108Y003383D01*
X028040Y003218D01*
X027914Y003093D01*
X027750Y003025D01*
X027572Y003025D01*
X027806Y003048D02*
X028515Y003048D01*
X028572Y003025D02*
X028408Y003093D01*
X028282Y003218D01*
X028214Y003383D01*
X028214Y003560D01*
X028282Y003725D01*
X028408Y003850D01*
X028572Y003918D01*
X028750Y003918D01*
X028914Y003850D01*
X029040Y003725D01*
X029108Y003560D01*
X029108Y003383D01*
X029040Y003218D01*
X028914Y003093D01*
X028750Y003025D01*
X028572Y003025D01*
X028806Y003048D02*
X029515Y003048D01*
X029572Y003025D02*
X029408Y003093D01*
X029282Y003218D01*
X029214Y003383D01*
X029214Y003560D01*
X029282Y003725D01*
X029408Y003850D01*
X029572Y003918D01*
X029750Y003918D01*
X029914Y003850D01*
X030040Y003725D01*
X030108Y003560D01*
X030108Y003383D01*
X030040Y003218D01*
X029914Y003093D01*
X029750Y003025D01*
X029572Y003025D01*
X029572Y002918D02*
X029408Y002850D01*
X029282Y002725D01*
X029214Y002560D01*
X029214Y002383D01*
X029282Y002218D01*
X029408Y002093D01*
X029572Y002025D01*
X029750Y002025D01*
X029914Y002093D01*
X030040Y002218D01*
X030108Y002383D01*
X030108Y002560D01*
X030040Y002725D01*
X029914Y002850D01*
X029750Y002918D01*
X029572Y002918D01*
X029410Y002851D02*
X025781Y002851D01*
X025781Y002753D02*
X029310Y002753D01*
X029253Y002654D02*
X025781Y002654D01*
X025781Y002555D02*
X029214Y002555D01*
X029214Y002457D02*
X025781Y002457D01*
X025781Y002439D02*
X025781Y003304D01*
X025693Y003391D01*
X024829Y003391D01*
X024741Y003304D01*
X024741Y003071D01*
X024702Y003166D01*
X024555Y003312D01*
X024364Y003391D01*
X024157Y003391D01*
X023966Y003312D01*
X023820Y003166D01*
X023741Y002975D01*
X023741Y002768D01*
X023820Y002577D01*
X023966Y002431D01*
X024157Y002351D01*
X024364Y002351D01*
X024555Y002431D01*
X024702Y002577D01*
X024741Y002672D01*
X024741Y002439D01*
X024829Y002351D01*
X025693Y002351D01*
X025781Y002439D01*
X025700Y002358D02*
X029224Y002358D01*
X029265Y002260D02*
X003026Y002260D01*
X002969Y002358D02*
X013641Y002358D01*
X013881Y002358D02*
X014322Y002358D01*
X014241Y002457D02*
X014082Y002457D01*
X014180Y002555D02*
X014241Y002555D01*
X014233Y002654D02*
X014241Y002654D01*
X014210Y003147D02*
X014241Y003147D01*
X014241Y003245D02*
X014122Y003245D01*
X013979Y003344D02*
X014281Y003344D01*
X013542Y003344D02*
X011504Y003344D01*
X011603Y003442D02*
X027214Y003442D01*
X027214Y003541D02*
X011702Y003541D01*
X011747Y003639D02*
X027247Y003639D01*
X027295Y003738D02*
X011788Y003738D01*
X011828Y003837D02*
X027394Y003837D01*
X027230Y003344D02*
X025741Y003344D01*
X025781Y003245D02*
X027271Y003245D01*
X027354Y003147D02*
X025781Y003147D01*
X024781Y003344D02*
X024479Y003344D01*
X024622Y003245D02*
X024741Y003245D01*
X024741Y003147D02*
X024710Y003147D01*
X024733Y002654D02*
X024741Y002654D01*
X024741Y002555D02*
X024680Y002555D01*
X024741Y002457D02*
X024582Y002457D01*
X024381Y002358D02*
X024822Y002358D01*
X024141Y002358D02*
X022200Y002358D01*
X022193Y002351D02*
X022281Y002439D01*
X022281Y003304D01*
X022193Y003391D01*
X021329Y003391D01*
X021241Y003304D01*
X021241Y003071D01*
X021202Y003166D01*
X021055Y003312D01*
X020864Y003391D01*
X020657Y003391D01*
X020466Y003312D01*
X020320Y003166D01*
X020241Y002975D01*
X020241Y002768D01*
X020320Y002577D01*
X020466Y002431D01*
X020657Y002351D01*
X020864Y002351D01*
X021055Y002431D01*
X021202Y002577D01*
X021241Y002672D01*
X021241Y002439D01*
X021329Y002351D01*
X022193Y002351D01*
X022281Y002457D02*
X023940Y002457D01*
X023841Y002555D02*
X022281Y002555D01*
X022281Y002654D02*
X023788Y002654D01*
X023747Y002753D02*
X022281Y002753D01*
X022281Y002851D02*
X023741Y002851D01*
X023741Y002950D02*
X022281Y002950D01*
X022281Y003048D02*
X023771Y003048D01*
X023812Y003147D02*
X022281Y003147D01*
X022281Y003245D02*
X023899Y003245D01*
X024042Y003344D02*
X022241Y003344D01*
X021281Y003344D02*
X020979Y003344D01*
X021122Y003245D02*
X021241Y003245D01*
X021241Y003147D02*
X021210Y003147D01*
X021233Y002654D02*
X021241Y002654D01*
X021241Y002555D02*
X021180Y002555D01*
X021241Y002457D02*
X021082Y002457D01*
X020881Y002358D02*
X021322Y002358D01*
X020641Y002358D02*
X018700Y002358D01*
X018693Y002351D02*
X018781Y002439D01*
X018781Y003304D01*
X018693Y003391D01*
X017829Y003391D01*
X017741Y003304D01*
X017741Y003071D01*
X017702Y003166D01*
X017555Y003312D01*
X017364Y003391D01*
X017157Y003391D01*
X016966Y003312D01*
X016820Y003166D01*
X016741Y002975D01*
X016741Y002768D01*
X016820Y002577D01*
X016966Y002431D01*
X017157Y002351D01*
X017364Y002351D01*
X017555Y002431D01*
X017702Y002577D01*
X017741Y002672D01*
X017741Y002439D01*
X017829Y002351D01*
X018693Y002351D01*
X018781Y002457D02*
X020440Y002457D01*
X020341Y002555D02*
X018781Y002555D01*
X018781Y002654D02*
X020288Y002654D01*
X020247Y002753D02*
X018781Y002753D01*
X018781Y002851D02*
X020241Y002851D01*
X020241Y002950D02*
X018781Y002950D01*
X018781Y003048D02*
X020271Y003048D01*
X020312Y003147D02*
X018781Y003147D01*
X018781Y003245D02*
X020399Y003245D01*
X020542Y003344D02*
X018741Y003344D01*
X017781Y003344D02*
X017479Y003344D01*
X017622Y003245D02*
X017741Y003245D01*
X017741Y003147D02*
X017710Y003147D01*
X017042Y003344D02*
X015241Y003344D01*
X015281Y003245D02*
X016899Y003245D01*
X016812Y003147D02*
X015281Y003147D01*
X015281Y003048D02*
X016771Y003048D01*
X016741Y002950D02*
X015281Y002950D01*
X015281Y002851D02*
X016741Y002851D01*
X016747Y002753D02*
X015281Y002753D01*
X015281Y002654D02*
X016788Y002654D01*
X016841Y002555D02*
X015281Y002555D01*
X015281Y002457D02*
X016940Y002457D01*
X017141Y002358D02*
X015200Y002358D01*
X013399Y003245D02*
X011296Y003245D01*
X010766Y003245D02*
X006556Y003245D01*
X006764Y003344D02*
X010557Y003344D01*
X010459Y003442D02*
X006863Y003442D01*
X006962Y003541D02*
X010360Y003541D01*
X010315Y003639D02*
X007007Y003639D01*
X007048Y003738D02*
X010274Y003738D01*
X010233Y003837D02*
X007088Y003837D01*
X007091Y003935D02*
X010231Y003935D01*
X010231Y004034D02*
X007091Y004034D01*
X007091Y004132D02*
X010231Y004132D01*
X010260Y004231D02*
X007062Y004231D01*
X007021Y004329D02*
X010301Y004329D01*
X010341Y004428D02*
X006980Y004428D01*
X006897Y004526D02*
X010424Y004526D01*
X011378Y004723D02*
X022876Y004723D01*
X022975Y004625D02*
X011539Y004625D01*
X011637Y004526D02*
X023073Y004526D01*
X023172Y004428D02*
X011720Y004428D01*
X011761Y004329D02*
X023270Y004329D01*
X023369Y004231D02*
X011802Y004231D01*
X011831Y004132D02*
X023467Y004132D01*
X023566Y004034D02*
X011831Y004034D01*
X011831Y003935D02*
X036688Y003935D01*
X036861Y004046D02*
X036735Y004171D01*
X023711Y004171D01*
X020161Y007721D01*
X020894Y008271D02*
X020978Y008271D01*
X020993Y008172D02*
X021077Y008172D01*
X021091Y008074D02*
X021176Y008074D01*
X021190Y007975D02*
X021274Y007975D01*
X021288Y007877D02*
X021373Y007877D01*
X021387Y007778D02*
X021471Y007778D01*
X021461Y007789D02*
X021578Y007671D01*
X023578Y007671D01*
X026261Y004989D01*
X026278Y004971D01*
X024194Y004971D01*
X020244Y008921D01*
X020078Y008921D01*
X019399Y008921D01*
X019336Y008984D01*
X019222Y009031D01*
X019099Y009031D01*
X018985Y008984D01*
X018971Y008970D01*
X018971Y009033D01*
X018924Y009147D01*
X018861Y009210D01*
X018861Y009683D01*
X018924Y009746D01*
X018971Y009860D01*
X018971Y009983D01*
X018924Y010097D01*
X018849Y010171D01*
X019078Y010171D01*
X021461Y007789D01*
X021485Y007680D02*
X021570Y007680D01*
X021584Y007581D02*
X023668Y007581D01*
X023767Y007483D02*
X021682Y007483D01*
X021781Y007384D02*
X023865Y007384D01*
X023964Y007286D02*
X021880Y007286D01*
X021978Y007187D02*
X024062Y007187D01*
X024161Y007088D02*
X022077Y007088D01*
X022175Y006990D02*
X024259Y006990D01*
X024358Y006891D02*
X022274Y006891D01*
X022372Y006793D02*
X024457Y006793D01*
X024555Y006694D02*
X022471Y006694D01*
X022569Y006596D02*
X024654Y006596D01*
X024752Y006497D02*
X022668Y006497D01*
X022766Y006399D02*
X024851Y006399D01*
X024949Y006300D02*
X022865Y006300D01*
X022964Y006202D02*
X025048Y006202D01*
X025146Y006103D02*
X023062Y006103D01*
X023161Y006004D02*
X025245Y006004D01*
X025343Y005906D02*
X023259Y005906D01*
X023358Y005807D02*
X025442Y005807D01*
X025541Y005709D02*
X023456Y005709D01*
X023555Y005610D02*
X025639Y005610D01*
X025738Y005512D02*
X023653Y005512D01*
X023752Y005413D02*
X025836Y005413D01*
X025935Y005315D02*
X023850Y005315D01*
X023949Y005216D02*
X026033Y005216D01*
X026132Y005118D02*
X024047Y005118D01*
X024146Y005019D02*
X026230Y005019D01*
X026461Y005071D02*
X034961Y005071D01*
X035161Y005271D01*
X035438Y005413D02*
X041881Y005413D01*
X041881Y005315D02*
X035471Y005315D01*
X035471Y005216D02*
X041881Y005216D01*
X041881Y005118D02*
X037756Y005118D01*
X037902Y005019D02*
X041881Y005019D01*
X041881Y004921D02*
X037955Y004921D01*
X037971Y004822D02*
X041881Y004822D01*
X041881Y004723D02*
X037956Y004723D01*
X037903Y004625D02*
X041881Y004625D01*
X041881Y004526D02*
X037758Y004526D01*
X037563Y004526D02*
X037471Y004526D01*
X037471Y004428D02*
X041881Y004428D01*
X041881Y005512D02*
X035359Y005512D01*
X034963Y005512D02*
X033471Y005512D01*
X033460Y005610D02*
X041881Y005610D01*
X041881Y005709D02*
X033412Y005709D01*
X033451Y005413D02*
X034884Y005413D01*
X034851Y005315D02*
X033392Y005315D01*
X033161Y005521D02*
X033011Y005371D01*
X026461Y005371D01*
X023761Y008071D01*
X021761Y008071D01*
X019211Y010621D01*
X018611Y010621D01*
X018011Y011221D01*
X018246Y011424D02*
X018289Y011424D01*
X018374Y011523D02*
X018093Y011523D01*
X017929Y011523D02*
X015864Y011523D01*
X015864Y011510D02*
X015817Y011396D01*
X015730Y011309D01*
X015616Y011261D01*
X015492Y011261D01*
X015379Y011309D01*
X015291Y011396D01*
X015244Y011510D01*
X015244Y011528D01*
X014969Y011803D01*
X014969Y011803D01*
X014899Y011873D01*
X014861Y011965D01*
X014861Y014608D01*
X014861Y014608D01*
X014861Y009935D01*
X014939Y009857D01*
X014989Y009737D01*
X014989Y009606D01*
X014939Y009486D01*
X014847Y009393D01*
X014726Y009343D01*
X014595Y009343D01*
X014475Y009393D01*
X014383Y009486D01*
X014333Y009606D01*
X014333Y009737D01*
X014383Y009857D01*
X014461Y009935D01*
X014461Y016389D01*
X014461Y016554D01*
X014749Y016842D01*
X014731Y016886D01*
X014731Y017057D01*
X014796Y017215D01*
X014917Y017336D01*
X015075Y017401D01*
X015246Y017401D01*
X015404Y017336D01*
X015525Y017215D01*
X015591Y017057D01*
X015591Y016886D01*
X015525Y016728D01*
X015404Y016607D01*
X015246Y016541D01*
X015075Y016541D01*
X015032Y016560D01*
X014861Y016389D01*
X014861Y014985D01*
X014935Y015059D01*
X015049Y015106D01*
X015172Y015106D01*
X015286Y015059D01*
X015374Y014972D01*
X017027Y014972D01*
X016929Y015070D02*
X015259Y015070D01*
X015374Y014972D02*
X015421Y014858D01*
X015421Y014735D01*
X015374Y014621D01*
X015361Y014608D01*
X015361Y012118D01*
X015598Y011881D01*
X015616Y011881D01*
X015730Y011834D01*
X015817Y011747D01*
X015864Y011633D01*
X015864Y011510D01*
X015829Y011424D02*
X017275Y011424D01*
X017189Y011326D02*
X015747Y011326D01*
X015864Y011621D02*
X019025Y011621D01*
X019197Y011621D02*
X019472Y011621D01*
X019388Y011523D02*
X019348Y011523D01*
X019111Y011321D02*
X021811Y008621D01*
X023811Y008621D01*
X026461Y005971D01*
X030011Y005971D01*
X030161Y006121D01*
X030361Y006721D02*
X030911Y006171D01*
X033011Y006171D01*
X033211Y005971D01*
X034651Y005971D01*
X035841Y007162D01*
X035841Y007581D01*
X035360Y007384D02*
X033762Y007384D01*
X033801Y007483D02*
X035321Y007483D01*
X035321Y007581D02*
X033801Y007581D01*
X033801Y007680D02*
X035321Y007680D01*
X035359Y007778D02*
X033762Y007778D01*
X033721Y007877D02*
X035401Y007877D01*
X035499Y007975D02*
X033622Y007975D01*
X033451Y008074D02*
X035671Y008074D01*
X036011Y008074D02*
X038361Y008074D01*
X038361Y008172D02*
X030954Y008172D01*
X030971Y008074D02*
X033111Y008074D01*
X032939Y007975D02*
X031345Y007975D01*
X031432Y007877D02*
X032841Y007877D01*
X032799Y007778D02*
X031471Y007778D01*
X031471Y007680D02*
X032761Y007680D01*
X032761Y007581D02*
X031787Y007581D01*
X031882Y007483D02*
X032761Y007483D01*
X032800Y007384D02*
X031923Y007384D01*
X031926Y007286D02*
X032841Y007286D01*
X032940Y007187D02*
X031898Y007187D01*
X031826Y007088D02*
X033112Y007088D01*
X033622Y007187D02*
X035500Y007187D01*
X035485Y007088D02*
X033892Y007088D01*
X033957Y006990D02*
X035386Y006990D01*
X035288Y006891D02*
X033980Y006891D01*
X033973Y006793D02*
X035189Y006793D01*
X035091Y006694D02*
X034376Y006694D01*
X034445Y006596D02*
X034992Y006596D01*
X034894Y006497D02*
X034471Y006497D01*
X034466Y006399D02*
X034795Y006399D01*
X034696Y006300D02*
X034425Y006300D01*
X034319Y006202D02*
X034598Y006202D01*
X034868Y005906D02*
X041881Y005906D01*
X041881Y006004D02*
X034966Y006004D01*
X035065Y006103D02*
X041881Y006103D01*
X041881Y006202D02*
X035164Y006202D01*
X035262Y006300D02*
X041881Y006300D01*
X041881Y006399D02*
X035361Y006399D01*
X035459Y006497D02*
X041881Y006497D01*
X041881Y006596D02*
X035558Y006596D01*
X035656Y006694D02*
X041881Y006694D01*
X041881Y006793D02*
X035755Y006793D01*
X035853Y006891D02*
X041881Y006891D01*
X041881Y006990D02*
X035952Y006990D01*
X036041Y007088D02*
X041881Y007088D01*
X041881Y007187D02*
X036182Y007187D01*
X036280Y007286D02*
X041881Y007286D01*
X041881Y007384D02*
X036322Y007384D01*
X036361Y007483D02*
X038467Y007483D01*
X038368Y007581D02*
X036361Y007581D01*
X036361Y007680D02*
X038361Y007680D01*
X038361Y007778D02*
X036322Y007778D01*
X036281Y007877D02*
X038361Y007877D01*
X038361Y007975D02*
X036182Y007975D01*
X035401Y007286D02*
X033720Y007286D01*
X033671Y006871D02*
X033666Y006866D01*
X031016Y006866D01*
X030661Y007221D01*
X029461Y007221D01*
X028261Y008421D01*
X026561Y008421D01*
X026285Y008567D02*
X024748Y008567D01*
X024650Y008665D02*
X026366Y008665D01*
X026251Y008468D02*
X024847Y008468D01*
X024946Y008370D02*
X026095Y008370D01*
X025947Y008271D02*
X025044Y008271D01*
X025143Y008172D02*
X025892Y008172D01*
X025876Y008074D02*
X025241Y008074D01*
X025340Y007975D02*
X025626Y007975D01*
X025540Y007877D02*
X025438Y007877D01*
X025811Y007721D02*
X028161Y007721D01*
X029161Y006721D01*
X030361Y006721D01*
X030511Y006971D02*
X031011Y006471D01*
X034161Y006471D01*
X033945Y006694D02*
X033932Y006694D01*
X034769Y005807D02*
X041881Y005807D01*
X041881Y007483D02*
X039757Y007483D01*
X039853Y007581D02*
X041881Y007581D01*
X041881Y007680D02*
X039918Y007680D01*
X039994Y007778D02*
X041881Y007778D01*
X041881Y007877D02*
X040069Y007877D01*
X040144Y007975D02*
X041881Y007975D01*
X041881Y008074D02*
X040219Y008074D01*
X040294Y008172D02*
X041881Y008172D01*
X041881Y008271D02*
X040369Y008271D01*
X040444Y008370D02*
X041881Y008370D01*
X041881Y008468D02*
X040519Y008468D01*
X040611Y008567D02*
X041881Y008567D01*
X041881Y008665D02*
X040669Y008665D01*
X040661Y008764D02*
X041881Y008764D01*
X041881Y008862D02*
X040661Y008862D01*
X040661Y008961D02*
X041881Y008961D01*
X041881Y009059D02*
X040661Y009059D01*
X040661Y009158D02*
X041881Y009158D01*
X041881Y009256D02*
X040661Y009256D01*
X040661Y009355D02*
X041881Y009355D01*
X041881Y009454D02*
X040661Y009454D01*
X040661Y009552D02*
X041881Y009552D01*
X041881Y009651D02*
X040661Y009651D01*
X040661Y009749D02*
X041881Y009749D01*
X041881Y009848D02*
X040661Y009848D01*
X040661Y009946D02*
X041881Y009946D01*
X041881Y010045D02*
X040661Y010045D01*
X040661Y010143D02*
X041881Y010143D01*
X041881Y010439D02*
X038561Y010439D01*
X038561Y010537D02*
X041881Y010537D01*
X041881Y010636D02*
X038561Y010636D01*
X038561Y010735D02*
X041881Y010735D01*
X041881Y010833D02*
X038561Y010833D01*
X038561Y010932D02*
X041881Y010932D01*
X041881Y011030D02*
X038561Y011030D01*
X038561Y011129D02*
X041881Y011129D01*
X041881Y011227D02*
X038561Y011227D01*
X038561Y011326D02*
X041881Y011326D01*
X041881Y011424D02*
X038561Y011424D01*
X038561Y011523D02*
X041881Y011523D01*
X041881Y011621D02*
X038561Y011621D01*
X038561Y011720D02*
X041881Y011720D01*
X041881Y011819D02*
X038561Y011819D01*
X038561Y011917D02*
X041881Y011917D01*
X041881Y012016D02*
X038561Y012016D01*
X038561Y012114D02*
X041881Y012114D01*
X041881Y012213D02*
X038561Y012213D01*
X038561Y012311D02*
X041881Y012311D01*
X041881Y012410D02*
X038561Y012410D01*
X038561Y012508D02*
X041881Y012508D01*
X041881Y012607D02*
X038561Y012607D01*
X038561Y012705D02*
X041881Y012705D01*
X041881Y012804D02*
X038561Y012804D01*
X038561Y012903D02*
X040062Y012903D01*
X039983Y012935D02*
X040224Y012835D01*
X040485Y012835D01*
X040726Y012935D01*
X040910Y013119D01*
X041009Y013360D01*
X041009Y013621D01*
X040910Y013861D01*
X040726Y014046D01*
X040485Y014145D01*
X040224Y014145D01*
X039983Y014046D01*
X039799Y013861D01*
X039699Y013621D01*
X039699Y013360D01*
X039799Y013119D01*
X039983Y012935D01*
X039917Y013001D02*
X038561Y013001D01*
X038561Y013100D02*
X039819Y013100D01*
X039767Y013198D02*
X038561Y013198D01*
X038561Y013297D02*
X039726Y013297D01*
X039699Y013395D02*
X038561Y013395D01*
X038561Y013494D02*
X039699Y013494D01*
X039699Y013592D02*
X038561Y013592D01*
X038561Y013691D02*
X039729Y013691D01*
X039769Y013789D02*
X038561Y013789D01*
X038561Y013888D02*
X039826Y013888D01*
X039924Y013986D02*
X038561Y013986D01*
X038561Y014085D02*
X040079Y014085D01*
X040630Y014085D02*
X041881Y014085D01*
X041881Y013986D02*
X040785Y013986D01*
X040883Y013888D02*
X041881Y013888D01*
X041881Y013789D02*
X040940Y013789D01*
X040980Y013691D02*
X041881Y013691D01*
X041881Y013592D02*
X041009Y013592D01*
X041009Y013494D02*
X041881Y013494D01*
X041881Y013395D02*
X041009Y013395D01*
X040983Y013297D02*
X041881Y013297D01*
X041881Y013198D02*
X040942Y013198D01*
X040890Y013100D02*
X041881Y013100D01*
X041881Y013001D02*
X040791Y013001D01*
X040647Y012903D02*
X041881Y012903D01*
X041881Y014184D02*
X038561Y014184D01*
X038561Y014282D02*
X041881Y014282D01*
X041881Y014381D02*
X038561Y014381D01*
X038561Y014479D02*
X041881Y014479D01*
X041881Y014578D02*
X038561Y014578D01*
X038561Y014676D02*
X041881Y014676D01*
X041881Y014775D02*
X038561Y014775D01*
X038561Y014873D02*
X040132Y014873D01*
X040224Y014835D02*
X040485Y014835D01*
X040726Y014935D01*
X040910Y015119D01*
X041009Y015360D01*
X041009Y015621D01*
X040910Y015861D01*
X040726Y016046D01*
X040643Y016080D01*
X040754Y016126D01*
X040875Y016247D01*
X040941Y016405D01*
X040941Y016576D01*
X040875Y016734D01*
X040754Y016855D01*
X040643Y016901D01*
X040726Y016935D01*
X040910Y017119D01*
X041009Y017360D01*
X041009Y017621D01*
X040910Y017861D01*
X040726Y018046D01*
X040485Y018145D01*
X040224Y018145D01*
X039983Y018046D01*
X039799Y017861D01*
X039699Y017621D01*
X039699Y017360D01*
X039799Y017119D01*
X039983Y016935D01*
X040224Y016835D01*
X040248Y016835D01*
X040146Y016734D01*
X040081Y016576D01*
X040081Y016405D01*
X040146Y016247D01*
X040248Y016145D01*
X040224Y016145D01*
X039983Y016046D01*
X039799Y015861D01*
X039699Y015621D01*
X039699Y015360D01*
X039799Y015119D01*
X039983Y014935D01*
X040224Y014835D01*
X039947Y014972D02*
X038561Y014972D01*
X038561Y015070D02*
X039848Y015070D01*
X039779Y015169D02*
X039382Y015169D01*
X039531Y015268D02*
X039738Y015268D01*
X039699Y015366D02*
X039610Y015366D01*
X039651Y015465D02*
X039699Y015465D01*
X039699Y015563D02*
X039666Y015563D01*
X039666Y015662D02*
X039717Y015662D01*
X039757Y015760D02*
X039633Y015760D01*
X039586Y015859D02*
X039798Y015859D01*
X039895Y015957D02*
X039487Y015957D01*
X039347Y016154D02*
X040239Y016154D01*
X040144Y016253D02*
X039517Y016253D01*
X039469Y016205D02*
X039596Y016333D01*
X039666Y016500D01*
X039666Y016681D01*
X039596Y016848D01*
X039469Y016976D01*
X039301Y017045D01*
X039120Y017045D01*
X038953Y016976D01*
X038825Y016848D01*
X038756Y016681D01*
X038756Y016500D01*
X038825Y016333D01*
X038953Y016205D01*
X039120Y016135D01*
X039301Y016135D01*
X039469Y016205D01*
X039604Y016352D02*
X040103Y016352D01*
X040081Y016450D02*
X039645Y016450D01*
X039666Y016549D02*
X040081Y016549D01*
X040110Y016647D02*
X039666Y016647D01*
X039639Y016746D02*
X040158Y016746D01*
X040203Y016844D02*
X039598Y016844D01*
X039502Y016943D02*
X039976Y016943D01*
X039877Y017041D02*
X039311Y017041D01*
X039301Y017135D02*
X039469Y017205D01*
X039596Y017333D01*
X039666Y017500D01*
X039666Y017681D01*
X039596Y017848D01*
X039469Y017976D01*
X039301Y018045D01*
X039120Y018045D01*
X038953Y017976D01*
X038825Y017848D01*
X038756Y017681D01*
X038756Y017500D01*
X038825Y017333D01*
X038953Y017205D01*
X039120Y017135D01*
X039301Y017135D01*
X039312Y017140D02*
X039791Y017140D01*
X039750Y017238D02*
X039502Y017238D01*
X039598Y017337D02*
X039709Y017337D01*
X039699Y017436D02*
X039639Y017436D01*
X039666Y017534D02*
X039699Y017534D01*
X039704Y017633D02*
X039666Y017633D01*
X039645Y017731D02*
X039745Y017731D01*
X039786Y017830D02*
X039604Y017830D01*
X039516Y017928D02*
X039866Y017928D01*
X039965Y018027D02*
X039346Y018027D01*
X039075Y018027D02*
X038561Y018027D01*
X038561Y018125D02*
X040176Y018125D01*
X040533Y018125D02*
X041881Y018125D01*
X041881Y018027D02*
X040744Y018027D01*
X040843Y017928D02*
X041881Y017928D01*
X041881Y017830D02*
X040923Y017830D01*
X040964Y017731D02*
X041881Y017731D01*
X041881Y017633D02*
X041005Y017633D01*
X041009Y017534D02*
X041881Y017534D01*
X041881Y017436D02*
X041009Y017436D01*
X041000Y017337D02*
X041881Y017337D01*
X041881Y017238D02*
X040959Y017238D01*
X040918Y017140D02*
X041881Y017140D01*
X041881Y017041D02*
X040832Y017041D01*
X040733Y016943D02*
X041881Y016943D01*
X041881Y016844D02*
X040765Y016844D01*
X040864Y016746D02*
X041881Y016746D01*
X041881Y016647D02*
X040911Y016647D01*
X040941Y016549D02*
X041881Y016549D01*
X041881Y016450D02*
X040941Y016450D01*
X040919Y016352D02*
X041881Y016352D01*
X041881Y016253D02*
X040878Y016253D01*
X040783Y016154D02*
X041881Y016154D01*
X041881Y016056D02*
X040701Y016056D01*
X040814Y015957D02*
X041881Y015957D01*
X041881Y015859D02*
X040911Y015859D01*
X040952Y015760D02*
X041881Y015760D01*
X041881Y015662D02*
X040992Y015662D01*
X041009Y015563D02*
X041881Y015563D01*
X041881Y015465D02*
X041009Y015465D01*
X041009Y015366D02*
X041881Y015366D01*
X041881Y015268D02*
X040971Y015268D01*
X040930Y015169D02*
X041881Y015169D01*
X041881Y015070D02*
X040861Y015070D01*
X040762Y014972D02*
X041881Y014972D01*
X041881Y014873D02*
X040576Y014873D01*
X039039Y015169D02*
X038561Y015169D01*
X038561Y015268D02*
X038890Y015268D01*
X038811Y015366D02*
X038561Y015366D01*
X038561Y015465D02*
X038770Y015465D01*
X038756Y015563D02*
X038561Y015563D01*
X038361Y015563D02*
X028106Y015563D01*
X028007Y015465D02*
X038361Y015465D01*
X038361Y015366D02*
X027909Y015366D01*
X027810Y015268D02*
X038361Y015268D01*
X038361Y015169D02*
X034322Y015169D01*
X034253Y015212D02*
X034480Y015070D01*
X034480Y015070D01*
X034635Y014853D01*
X034635Y014853D01*
X034695Y014592D01*
X034695Y014592D01*
X034651Y014329D01*
X034651Y014329D01*
X034611Y014264D01*
X034611Y014239D01*
X034568Y014196D01*
X034536Y014145D01*
X034512Y014140D01*
X033694Y013321D01*
X033528Y013321D01*
X033411Y013439D01*
X032710Y014140D01*
X032685Y014145D01*
X032653Y014196D01*
X032611Y014239D01*
X032611Y014264D01*
X032570Y014329D01*
X032570Y014329D01*
X032526Y014592D01*
X032526Y014592D01*
X032586Y014853D01*
X032586Y014853D01*
X032741Y015070D01*
X032741Y015070D01*
X032742Y015070D01*
X027613Y015070D01*
X027515Y014972D02*
X029953Y014972D01*
X029983Y015001D02*
X029731Y014750D01*
X029731Y014393D01*
X029983Y014141D01*
X030339Y014141D01*
X030591Y014393D01*
X030591Y014750D01*
X030339Y015001D01*
X029983Y015001D01*
X029855Y014873D02*
X027416Y014873D01*
X027318Y014775D02*
X029756Y014775D01*
X029731Y014676D02*
X027219Y014676D01*
X027121Y014578D02*
X029731Y014578D01*
X029731Y014479D02*
X027022Y014479D01*
X026923Y014381D02*
X029744Y014381D01*
X029842Y014282D02*
X026825Y014282D01*
X026726Y014184D02*
X029941Y014184D01*
X029983Y014001D02*
X029731Y013750D01*
X029731Y013393D01*
X029983Y013141D01*
X030339Y013141D01*
X030591Y013393D01*
X030591Y013750D01*
X030339Y014001D01*
X029983Y014001D01*
X029968Y013986D02*
X026529Y013986D01*
X026431Y013888D02*
X029869Y013888D01*
X029771Y013789D02*
X026332Y013789D01*
X026234Y013691D02*
X029731Y013691D01*
X029731Y013592D02*
X026135Y013592D01*
X026037Y013494D02*
X029731Y013494D01*
X029731Y013395D02*
X025938Y013395D01*
X025839Y013297D02*
X029827Y013297D01*
X029926Y013198D02*
X025741Y013198D01*
X025642Y013100D02*
X036436Y013100D01*
X036436Y013059D02*
X036524Y012971D01*
X037298Y012971D01*
X037386Y013059D01*
X037386Y013834D01*
X037298Y013921D01*
X036524Y013921D01*
X036436Y013834D01*
X036436Y013059D01*
X036494Y013001D02*
X031339Y013001D01*
X030983Y013001D01*
X030731Y012750D01*
X030731Y012393D01*
X030983Y012141D01*
X031339Y012141D01*
X031591Y012393D01*
X031591Y012750D01*
X031339Y013001D01*
X031438Y012903D02*
X038361Y012903D01*
X038361Y013001D02*
X037327Y013001D01*
X037386Y013100D02*
X038361Y013100D01*
X038361Y013198D02*
X037386Y013198D01*
X037386Y013297D02*
X038361Y013297D01*
X038361Y013395D02*
X037386Y013395D01*
X037386Y013494D02*
X038361Y013494D01*
X038361Y013592D02*
X037386Y013592D01*
X037386Y013691D02*
X038361Y013691D01*
X038361Y013789D02*
X037386Y013789D01*
X037331Y013888D02*
X038361Y013888D01*
X038361Y013986D02*
X034359Y013986D01*
X034260Y013888D02*
X036490Y013888D01*
X036436Y013789D02*
X034162Y013789D01*
X034063Y013691D02*
X036436Y013691D01*
X036436Y013592D02*
X033964Y013592D01*
X033866Y013494D02*
X036436Y013494D01*
X036436Y013395D02*
X033767Y013395D01*
X033611Y013521D02*
X034411Y014321D01*
X034560Y014184D02*
X038361Y014184D01*
X038361Y014282D02*
X034622Y014282D01*
X034660Y014381D02*
X038361Y014381D01*
X038361Y014479D02*
X034676Y014479D01*
X034693Y014578D02*
X038361Y014578D01*
X038361Y014676D02*
X034676Y014676D01*
X034653Y014775D02*
X038361Y014775D01*
X038361Y014873D02*
X034620Y014873D01*
X034550Y014972D02*
X038361Y014972D01*
X038361Y015070D02*
X034480Y015070D01*
X034480Y015070D01*
X034253Y015212D02*
X034253Y015212D01*
X033990Y015256D01*
X033990Y015256D01*
X033730Y015196D01*
X033730Y015196D01*
X033611Y015111D01*
X033492Y015196D01*
X033232Y015256D01*
X033232Y015256D01*
X032968Y015212D01*
X032742Y015070D01*
X032671Y014972D02*
X031368Y014972D01*
X031339Y015001D02*
X030983Y015001D01*
X030731Y014750D01*
X030731Y014393D01*
X030983Y014141D01*
X031339Y014141D01*
X031591Y014393D01*
X031591Y014750D01*
X031339Y015001D01*
X031467Y014873D02*
X032601Y014873D01*
X032568Y014775D02*
X031565Y014775D01*
X031591Y014676D02*
X032546Y014676D01*
X032529Y014578D02*
X031591Y014578D01*
X031591Y014479D02*
X032545Y014479D01*
X032562Y014381D02*
X031578Y014381D01*
X031479Y014282D02*
X032600Y014282D01*
X032661Y014184D02*
X031381Y014184D01*
X031339Y014001D02*
X030983Y014001D01*
X030731Y013750D01*
X030731Y013393D01*
X030983Y013141D01*
X031339Y013141D01*
X031591Y013393D01*
X031591Y013750D01*
X031339Y014001D01*
X031354Y013986D02*
X032863Y013986D01*
X032961Y013888D02*
X031452Y013888D01*
X031551Y013789D02*
X033060Y013789D01*
X033159Y013691D02*
X031591Y013691D01*
X031591Y013592D02*
X033257Y013592D01*
X033356Y013494D02*
X031591Y013494D01*
X031591Y013395D02*
X033454Y013395D01*
X033611Y013521D02*
X032811Y014321D01*
X032764Y014085D02*
X026628Y014085D01*
X025734Y014578D02*
X023709Y014578D01*
X023709Y014479D02*
X025636Y014479D01*
X025537Y014381D02*
X023705Y014381D01*
X023735Y014282D02*
X023664Y014282D01*
X023416Y013986D02*
X023324Y013986D01*
X023376Y013888D02*
X022661Y013888D01*
X022661Y013986D02*
X023054Y013986D01*
X022862Y014085D02*
X022661Y014085D01*
X022661Y014184D02*
X022763Y014184D01*
X022714Y014282D02*
X022661Y014282D01*
X022661Y014381D02*
X022673Y014381D01*
X022661Y014479D02*
X022669Y014479D01*
X022661Y014578D02*
X022669Y014578D01*
X022661Y014676D02*
X022702Y014676D01*
X022661Y014775D02*
X022743Y014775D01*
X022661Y014873D02*
X022834Y014873D01*
X022986Y014972D02*
X022661Y014972D01*
X022661Y015070D02*
X026227Y015070D01*
X026128Y014972D02*
X023392Y014972D01*
X023544Y014873D02*
X026030Y014873D01*
X025931Y014775D02*
X023635Y014775D01*
X023676Y014676D02*
X025833Y014676D01*
X026325Y015169D02*
X022661Y015169D01*
X022661Y015268D02*
X026424Y015268D01*
X026523Y015366D02*
X022661Y015366D01*
X022661Y015465D02*
X026621Y015465D01*
X026720Y015563D02*
X022661Y015563D01*
X022661Y015662D02*
X026818Y015662D01*
X026917Y015760D02*
X022661Y015760D01*
X022661Y015859D02*
X027015Y015859D01*
X027114Y015957D02*
X022661Y015957D01*
X022661Y016056D02*
X027212Y016056D01*
X027311Y016154D02*
X022661Y016154D01*
X022725Y016253D02*
X027409Y016253D01*
X027508Y016352D02*
X022824Y016352D01*
X022922Y016450D02*
X030907Y016450D01*
X030961Y016549D02*
X030263Y016549D01*
X030246Y016541D02*
X030404Y016607D01*
X030525Y016728D01*
X030591Y016886D01*
X030591Y017057D01*
X030525Y017215D01*
X030404Y017336D01*
X030246Y017401D01*
X030075Y017401D01*
X029917Y017336D01*
X029796Y017215D01*
X029731Y017057D01*
X029731Y016886D01*
X029796Y016728D01*
X029917Y016607D01*
X030075Y016541D01*
X030246Y016541D01*
X030058Y016549D02*
X029263Y016549D01*
X029246Y016541D02*
X029404Y016607D01*
X029525Y016728D01*
X029591Y016886D01*
X029591Y017057D01*
X029525Y017215D01*
X029404Y017336D01*
X029246Y017401D01*
X029075Y017401D01*
X028917Y017336D01*
X028796Y017215D01*
X028731Y017057D01*
X028731Y016886D01*
X028796Y016728D01*
X028917Y016607D01*
X029075Y016541D01*
X029246Y016541D01*
X029058Y016549D02*
X028263Y016549D01*
X028246Y016541D02*
X028404Y016607D01*
X028525Y016728D01*
X028591Y016886D01*
X028591Y017057D01*
X028525Y017215D01*
X028404Y017336D01*
X028246Y017401D01*
X028075Y017401D01*
X027917Y017336D01*
X027796Y017215D01*
X027778Y017171D01*
X027543Y017171D01*
X027525Y017215D01*
X027519Y017221D01*
X027694Y017221D01*
X027811Y017339D01*
X027963Y017491D01*
X028057Y017451D01*
X028264Y017451D01*
X028455Y017531D01*
X028602Y017677D01*
X028661Y017820D01*
X028720Y017677D01*
X028866Y017531D01*
X029057Y017451D01*
X029264Y017451D01*
X029455Y017531D01*
X029602Y017677D01*
X029681Y017868D01*
X029681Y018075D01*
X029602Y018266D01*
X029455Y018412D01*
X029264Y018491D01*
X029057Y018491D01*
X028866Y018412D01*
X028720Y018266D01*
X028661Y018123D01*
X028602Y018266D01*
X028455Y018412D01*
X028264Y018491D01*
X028057Y018491D01*
X027866Y018412D01*
X027720Y018266D01*
X027661Y018123D01*
X027602Y018266D01*
X027455Y018412D01*
X027264Y018491D01*
X027057Y018491D01*
X026866Y018412D01*
X026720Y018266D01*
X026661Y018123D01*
X026602Y018266D01*
X026455Y018412D01*
X026264Y018491D01*
X026057Y018491D01*
X025866Y018412D01*
X025720Y018266D01*
X025661Y018123D01*
X025602Y018266D01*
X025455Y018412D01*
X025264Y018491D01*
X025057Y018491D01*
X024866Y018412D01*
X024720Y018266D01*
X024661Y018123D01*
X024602Y018266D01*
X024455Y018412D01*
X024264Y018491D01*
X024057Y018491D01*
X023866Y018412D01*
X023720Y018266D01*
X023641Y018075D01*
X023641Y017868D01*
X023720Y017677D01*
X023866Y017531D01*
X023961Y017491D01*
X023961Y017354D01*
X023917Y017336D01*
X023796Y017215D01*
X023731Y017057D01*
X023731Y016886D01*
X023796Y016728D01*
X023917Y016607D01*
X024075Y016541D01*
X024246Y016541D01*
X024404Y016607D01*
X024525Y016728D01*
X024591Y016886D01*
X024591Y017057D01*
X024525Y017215D01*
X024404Y017336D01*
X024361Y017354D01*
X024361Y017491D01*
X024455Y017531D01*
X024602Y017677D01*
X024661Y017820D01*
X024720Y017677D01*
X024866Y017531D01*
X025057Y017451D01*
X025264Y017451D01*
X025424Y017518D01*
X025290Y017383D01*
X025246Y017401D01*
X025075Y017401D01*
X024917Y017336D01*
X024796Y017215D01*
X024731Y017057D01*
X024731Y016886D01*
X024796Y016728D01*
X024917Y016607D01*
X025075Y016541D01*
X025246Y016541D01*
X025404Y016607D01*
X025525Y016728D01*
X025591Y016886D01*
X025591Y017057D01*
X025573Y017101D01*
X025963Y017491D01*
X026057Y017451D01*
X026264Y017451D01*
X026424Y017518D01*
X026290Y017383D01*
X026246Y017401D01*
X026075Y017401D01*
X025917Y017336D01*
X025796Y017215D01*
X025731Y017057D01*
X025731Y016886D01*
X025796Y016728D01*
X025917Y016607D01*
X026075Y016541D01*
X026246Y016541D01*
X026404Y016607D01*
X026525Y016728D01*
X026591Y016886D01*
X026591Y017057D01*
X026573Y017101D01*
X026694Y017221D01*
X026803Y017221D01*
X026796Y017215D01*
X026731Y017057D01*
X026731Y016886D01*
X026796Y016728D01*
X026917Y016607D01*
X027075Y016541D01*
X027246Y016541D01*
X027404Y016607D01*
X027525Y016728D01*
X027543Y016771D01*
X027778Y016771D01*
X027796Y016728D01*
X027917Y016607D01*
X028075Y016541D01*
X028246Y016541D01*
X028058Y016549D02*
X027263Y016549D01*
X027058Y016549D02*
X026263Y016549D01*
X026058Y016549D02*
X025263Y016549D01*
X025058Y016549D02*
X024263Y016549D01*
X024058Y016549D02*
X023263Y016549D01*
X023058Y016549D02*
X023021Y016549D01*
X022748Y016844D02*
X022573Y016844D01*
X022591Y016886D02*
X022525Y016728D01*
X022404Y016607D01*
X022246Y016541D01*
X022075Y016541D01*
X021917Y016607D01*
X021796Y016728D01*
X021731Y016886D01*
X021731Y017057D01*
X021796Y017215D01*
X021917Y017336D01*
X022075Y017401D01*
X022246Y017401D01*
X022404Y017336D01*
X022525Y017215D01*
X022591Y017057D01*
X022591Y016886D01*
X022591Y016943D02*
X022731Y016943D01*
X022731Y017041D02*
X022591Y017041D01*
X022556Y017140D02*
X022765Y017140D01*
X022820Y017238D02*
X022502Y017238D01*
X022402Y017337D02*
X022920Y017337D01*
X023161Y016971D02*
X022461Y016271D01*
X022461Y013571D01*
X022766Y013691D02*
X023376Y013691D01*
X023376Y013789D02*
X022707Y013789D01*
X022789Y013592D02*
X023414Y013592D01*
X023454Y013494D02*
X022784Y013494D01*
X022743Y013395D02*
X023552Y013395D01*
X023661Y013297D02*
X022650Y013297D01*
X022272Y013297D02*
X020889Y013297D01*
X020791Y013395D02*
X022179Y013395D01*
X022138Y013494D02*
X020692Y013494D01*
X020646Y013592D02*
X022133Y013592D01*
X022155Y013691D02*
X020580Y013691D01*
X020142Y013691D02*
X018874Y013691D01*
X018776Y013789D02*
X022215Y013789D01*
X022261Y013888D02*
X018677Y013888D01*
X018579Y013986D02*
X022261Y013986D01*
X022261Y014085D02*
X018480Y014085D01*
X018381Y014184D02*
X022261Y014184D01*
X022261Y014282D02*
X018283Y014282D01*
X018184Y014381D02*
X022261Y014381D01*
X022261Y014479D02*
X018086Y014479D01*
X017987Y014578D02*
X022261Y014578D01*
X022261Y014676D02*
X017889Y014676D01*
X017790Y014775D02*
X022261Y014775D01*
X022261Y014873D02*
X017692Y014873D01*
X017593Y014972D02*
X022261Y014972D01*
X022261Y015070D02*
X017495Y015070D01*
X017396Y015169D02*
X022261Y015169D01*
X022261Y015268D02*
X017298Y015268D01*
X017199Y015366D02*
X022261Y015366D01*
X022261Y015465D02*
X017100Y015465D01*
X017002Y015563D02*
X022261Y015563D01*
X022261Y015662D02*
X016971Y015662D01*
X016971Y015683D02*
X016924Y015797D01*
X016836Y015884D01*
X016722Y015931D01*
X016599Y015931D01*
X016485Y015884D01*
X016398Y015797D01*
X016351Y015683D01*
X016351Y015560D01*
X016398Y015446D01*
X016485Y015359D01*
X016599Y015311D01*
X016688Y015311D01*
X019478Y012521D01*
X018444Y012521D01*
X017511Y013454D01*
X017394Y013571D01*
X016899Y013571D01*
X016836Y013634D01*
X016722Y013681D01*
X016599Y013681D01*
X016485Y013634D01*
X016398Y013547D01*
X016351Y013433D01*
X016351Y013310D01*
X016398Y013196D01*
X016426Y013168D01*
X015946Y013168D01*
X015883Y013231D01*
X015769Y013278D01*
X015646Y013278D01*
X015532Y013231D01*
X015444Y013144D01*
X015397Y013030D01*
X015397Y012906D01*
X015444Y012792D01*
X015532Y012705D01*
X015646Y012658D01*
X015769Y012658D01*
X015883Y012705D01*
X015946Y012768D01*
X016931Y012768D01*
X017811Y011889D01*
X017928Y011771D01*
X020272Y011771D01*
X020335Y011709D01*
X020449Y011661D01*
X020572Y011661D01*
X020686Y011709D01*
X020774Y011796D01*
X020821Y011910D01*
X020821Y012033D01*
X020815Y012046D01*
X020899Y012011D01*
X021022Y012011D01*
X021136Y012059D01*
X021224Y012146D01*
X021271Y012260D01*
X021271Y012383D01*
X021224Y012497D01*
X021136Y012584D01*
X021022Y012631D01*
X020899Y012631D01*
X020785Y012584D01*
X020722Y012521D01*
X020634Y012521D01*
X020671Y012610D01*
X020671Y012733D01*
X020624Y012847D01*
X020536Y012934D01*
X020422Y012981D01*
X020299Y012981D01*
X020185Y012934D01*
X020122Y012871D01*
X019694Y012871D01*
X016971Y015594D01*
X016971Y015683D01*
X016939Y015760D02*
X022261Y015760D01*
X022261Y015859D02*
X016862Y015859D01*
X016661Y015621D02*
X019611Y012671D01*
X020361Y012671D01*
X020641Y012804D02*
X020683Y012804D01*
X020671Y012705D02*
X029731Y012705D01*
X029731Y012750D02*
X029731Y012393D01*
X029983Y012141D01*
X030339Y012141D01*
X030591Y012393D01*
X030591Y012750D01*
X030339Y013001D01*
X030982Y013001D01*
X030884Y012903D02*
X030438Y012903D01*
X030536Y012804D02*
X030785Y012804D01*
X030731Y012705D02*
X030591Y012705D01*
X030591Y012607D02*
X030731Y012607D01*
X030731Y012508D02*
X030591Y012508D01*
X030591Y012410D02*
X030731Y012410D01*
X030813Y012311D02*
X030509Y012311D01*
X030410Y012213D02*
X030911Y012213D01*
X030983Y012001D02*
X030731Y011750D01*
X030731Y011393D01*
X030983Y011141D01*
X031339Y011141D01*
X031591Y011393D01*
X031591Y011750D01*
X031339Y012001D01*
X030983Y012001D01*
X030898Y011917D02*
X030423Y011917D01*
X030339Y012001D02*
X029983Y012001D01*
X029731Y011750D01*
X029731Y011393D01*
X029983Y011141D01*
X030339Y011141D01*
X030591Y011393D01*
X030591Y011750D01*
X030339Y012001D01*
X030522Y011819D02*
X030800Y011819D01*
X030731Y011720D02*
X030591Y011720D01*
X030591Y011621D02*
X030731Y011621D01*
X030731Y011523D02*
X030591Y011523D01*
X030591Y011424D02*
X030731Y011424D01*
X030798Y011326D02*
X030523Y011326D01*
X030425Y011227D02*
X030897Y011227D01*
X030983Y011001D02*
X030731Y010750D01*
X030731Y010393D01*
X030983Y010141D01*
X031339Y010141D01*
X031591Y010393D01*
X031591Y010750D01*
X031339Y011001D01*
X030983Y011001D01*
X030913Y010932D02*
X030409Y010932D01*
X030339Y011001D02*
X029983Y011001D01*
X029731Y010750D01*
X029731Y010393D01*
X029983Y010141D01*
X030339Y010141D01*
X030591Y010393D01*
X030591Y010750D01*
X030339Y011001D01*
X030507Y010833D02*
X030814Y010833D01*
X030731Y010735D02*
X030591Y010735D01*
X030591Y010636D02*
X030731Y010636D01*
X030731Y010537D02*
X030591Y010537D01*
X030591Y010439D02*
X030731Y010439D01*
X030784Y010340D02*
X030538Y010340D01*
X030439Y010242D02*
X030882Y010242D01*
X030981Y010143D02*
X030341Y010143D01*
X030339Y010001D02*
X030014Y010001D01*
X029219Y010796D01*
X029053Y010796D01*
X022124Y010796D01*
X022061Y010859D01*
X021947Y010906D01*
X021824Y010906D01*
X021710Y010859D01*
X021623Y010772D01*
X021576Y010658D01*
X021576Y010535D01*
X021623Y010421D01*
X021710Y010334D01*
X021824Y010286D01*
X021947Y010286D01*
X022061Y010334D01*
X022124Y010396D01*
X029053Y010396D01*
X029731Y009719D01*
X029731Y009393D01*
X029983Y009141D01*
X030339Y009141D01*
X030591Y009393D01*
X030591Y009750D01*
X030339Y010001D01*
X030394Y009946D02*
X030927Y009946D01*
X030829Y009848D02*
X030493Y009848D01*
X030591Y009749D02*
X030731Y009749D01*
X030731Y009651D02*
X030591Y009651D01*
X030591Y009552D02*
X030731Y009552D01*
X030731Y009454D02*
X030591Y009454D01*
X030552Y009355D02*
X030769Y009355D01*
X030868Y009256D02*
X030454Y009256D01*
X030355Y009158D02*
X030966Y009158D01*
X031355Y009158D02*
X038361Y009158D01*
X038361Y009256D02*
X031454Y009256D01*
X031733Y009355D02*
X038361Y009355D01*
X038361Y009454D02*
X031832Y009454D01*
X031930Y009552D02*
X038361Y009552D01*
X038361Y009651D02*
X032029Y009651D01*
X032127Y009749D02*
X038361Y009749D01*
X038361Y009848D02*
X032226Y009848D01*
X032324Y009946D02*
X038361Y009946D01*
X038361Y010045D02*
X032423Y010045D01*
X032521Y010143D02*
X038361Y010143D01*
X038361Y010242D02*
X032620Y010242D01*
X032719Y010340D02*
X038361Y010340D01*
X038561Y010340D02*
X040461Y010340D01*
X040461Y010242D02*
X038561Y010242D01*
X038561Y010143D02*
X040461Y010143D01*
X040461Y010045D02*
X038561Y010045D01*
X038561Y009946D02*
X040461Y009946D01*
X040461Y009848D02*
X038561Y009848D01*
X038561Y009749D02*
X040461Y009749D01*
X040461Y009651D02*
X038561Y009651D01*
X038561Y009552D02*
X040461Y009552D01*
X040461Y009454D02*
X038561Y009454D01*
X038561Y009355D02*
X040461Y009355D01*
X040461Y009256D02*
X038561Y009256D01*
X038561Y009158D02*
X040461Y009158D01*
X040461Y009059D02*
X038561Y009059D01*
X038561Y008961D02*
X040461Y008961D01*
X040461Y008862D02*
X038561Y008862D01*
X038561Y008764D02*
X040461Y008764D01*
X040418Y008665D02*
X038561Y008665D01*
X038561Y008567D02*
X040343Y008567D01*
X040268Y008468D02*
X038561Y008468D01*
X038561Y008370D02*
X040193Y008370D01*
X040118Y008271D02*
X038561Y008271D01*
X038561Y008172D02*
X040042Y008172D01*
X039967Y008074D02*
X038561Y008074D01*
X038561Y007975D02*
X039892Y007975D01*
X039817Y007877D02*
X038561Y007877D01*
X038561Y007778D02*
X039742Y007778D01*
X039667Y007680D02*
X038561Y007680D01*
X038361Y008271D02*
X030900Y008271D01*
X030751Y008370D02*
X038361Y008370D01*
X038361Y008468D02*
X030591Y008468D01*
X030591Y008567D02*
X038361Y008567D01*
X038361Y008665D02*
X030591Y008665D01*
X030577Y008764D02*
X038361Y008764D01*
X038361Y008862D02*
X030478Y008862D01*
X030380Y008961D02*
X038361Y008961D01*
X038361Y009059D02*
X029106Y009059D01*
X029204Y008961D02*
X029942Y008961D01*
X029843Y008862D02*
X029303Y008862D01*
X029401Y008764D02*
X029745Y008764D01*
X029731Y008665D02*
X029500Y008665D01*
X029598Y008567D02*
X029731Y008567D01*
X029731Y008468D02*
X029697Y008468D01*
X029811Y008071D02*
X030661Y008071D01*
X030956Y007975D02*
X030976Y007975D01*
X031161Y007721D02*
X029761Y007721D01*
X028311Y009171D01*
X026636Y009171D01*
X026408Y008961D02*
X024354Y008961D01*
X024256Y009059D02*
X026347Y009059D01*
X026326Y009158D02*
X024157Y009158D01*
X024059Y009256D02*
X026091Y009256D01*
X025994Y009355D02*
X022560Y009355D01*
X022462Y009454D02*
X025953Y009454D01*
X025951Y009552D02*
X022363Y009552D01*
X022264Y009651D02*
X025979Y009651D01*
X026050Y009749D02*
X022166Y009749D01*
X022067Y009848D02*
X029602Y009848D01*
X029503Y009946D02*
X021969Y009946D01*
X021870Y010045D02*
X029405Y010045D01*
X029306Y010143D02*
X021772Y010143D01*
X021673Y010242D02*
X029208Y010242D01*
X029109Y010340D02*
X022068Y010340D01*
X021886Y010596D02*
X029136Y010596D01*
X030161Y009571D01*
X029868Y009256D02*
X028909Y009256D01*
X029007Y009158D02*
X029966Y009158D01*
X029769Y009355D02*
X028810Y009355D01*
X028712Y009454D02*
X029731Y009454D01*
X029731Y009552D02*
X028613Y009552D01*
X028514Y009651D02*
X029731Y009651D01*
X029700Y009749D02*
X026471Y009749D01*
X026261Y009521D02*
X028361Y009521D01*
X029811Y008071D01*
X029611Y007471D02*
X030811Y007471D01*
X030961Y007321D01*
X031611Y007321D01*
X031616Y007317D01*
X031445Y007581D02*
X031438Y007581D01*
X030511Y006971D02*
X029311Y006971D01*
X028211Y008071D01*
X026186Y008071D01*
X026626Y008764D02*
X024551Y008764D01*
X024453Y008862D02*
X026572Y008862D01*
X026936Y008771D02*
X028311Y008771D01*
X029611Y007471D01*
X030567Y008370D02*
X030570Y008370D01*
X031394Y009946D02*
X031547Y009946D01*
X031645Y010045D02*
X029970Y010045D01*
X029981Y010143D02*
X029872Y010143D01*
X029882Y010242D02*
X029773Y010242D01*
X029784Y010340D02*
X029675Y010340D01*
X029731Y010439D02*
X029576Y010439D01*
X029478Y010537D02*
X029731Y010537D01*
X029731Y010636D02*
X029379Y010636D01*
X029281Y010735D02*
X029731Y010735D01*
X029814Y010833D02*
X022088Y010833D01*
X021684Y010833D02*
X021082Y010833D01*
X021181Y010735D02*
X021607Y010735D01*
X021576Y010636D02*
X021279Y010636D01*
X021378Y010537D02*
X021576Y010537D01*
X021615Y010439D02*
X021476Y010439D01*
X021575Y010340D02*
X021703Y010340D01*
X020983Y010932D02*
X029913Y010932D01*
X029897Y011227D02*
X020688Y011227D01*
X020786Y011129D02*
X038361Y011129D01*
X038361Y011227D02*
X037646Y011227D01*
X037581Y011161D02*
X037821Y011402D01*
X037821Y011741D01*
X037581Y011981D01*
X037241Y011981D01*
X037001Y011741D01*
X037001Y011402D01*
X037241Y011161D01*
X037581Y011161D01*
X037745Y011326D02*
X038361Y011326D01*
X038361Y011424D02*
X037821Y011424D01*
X037821Y011523D02*
X038361Y011523D01*
X038361Y011621D02*
X037821Y011621D01*
X037821Y011720D02*
X038361Y011720D01*
X038361Y011819D02*
X037744Y011819D01*
X037645Y011917D02*
X038361Y011917D01*
X038361Y012016D02*
X021032Y012016D01*
X020889Y012016D02*
X020821Y012016D01*
X020821Y011917D02*
X029898Y011917D01*
X029800Y011819D02*
X020783Y011819D01*
X020698Y011720D02*
X029731Y011720D01*
X029731Y011621D02*
X020449Y011621D01*
X020504Y011523D02*
X029731Y011523D01*
X029731Y011424D02*
X020521Y011424D01*
X020589Y011326D02*
X029798Y011326D01*
X029911Y012213D02*
X021251Y012213D01*
X021271Y012311D02*
X029813Y012311D01*
X029731Y012410D02*
X021260Y012410D01*
X021212Y012508D02*
X029731Y012508D01*
X029731Y012607D02*
X021082Y012607D01*
X020840Y012607D02*
X020670Y012607D01*
X020576Y012903D02*
X020568Y012903D01*
X020478Y013001D02*
X019564Y013001D01*
X019663Y012903D02*
X020153Y012903D01*
X020379Y013100D02*
X019465Y013100D01*
X019367Y013198D02*
X020211Y013198D01*
X020098Y013297D02*
X019268Y013297D01*
X019170Y013395D02*
X020057Y013395D01*
X020051Y013494D02*
X019071Y013494D01*
X018973Y013592D02*
X020075Y013592D01*
X018998Y013001D02*
X017964Y013001D01*
X018063Y012903D02*
X019097Y012903D01*
X019195Y012804D02*
X018161Y012804D01*
X018260Y012705D02*
X019294Y012705D01*
X019393Y012607D02*
X018358Y012607D01*
X018361Y012321D02*
X017311Y013371D01*
X016661Y013371D01*
X016878Y013592D02*
X018407Y013592D01*
X018506Y013494D02*
X017471Y013494D01*
X017570Y013395D02*
X018604Y013395D01*
X018703Y013297D02*
X017668Y013297D01*
X017767Y013198D02*
X018801Y013198D01*
X018900Y013100D02*
X017865Y013100D01*
X018309Y013691D02*
X015361Y013691D01*
X015361Y013789D02*
X018210Y013789D01*
X018111Y013888D02*
X015361Y013888D01*
X015361Y013986D02*
X018013Y013986D01*
X017914Y014085D02*
X015361Y014085D01*
X015361Y014184D02*
X017816Y014184D01*
X017717Y014282D02*
X015361Y014282D01*
X015361Y014381D02*
X017619Y014381D01*
X017520Y014479D02*
X015361Y014479D01*
X015361Y014578D02*
X017422Y014578D01*
X017323Y014676D02*
X015396Y014676D01*
X015421Y014775D02*
X017225Y014775D01*
X017126Y014873D02*
X015414Y014873D01*
X014962Y015070D02*
X014861Y015070D01*
X014861Y015169D02*
X016830Y015169D01*
X016732Y015268D02*
X014861Y015268D01*
X014861Y015366D02*
X016478Y015366D01*
X016390Y015465D02*
X014861Y015465D01*
X014861Y015563D02*
X016351Y015563D01*
X016351Y015662D02*
X014861Y015662D01*
X014861Y015760D02*
X016383Y015760D01*
X016460Y015859D02*
X014861Y015859D01*
X014861Y015957D02*
X022261Y015957D01*
X022261Y016056D02*
X014861Y016056D01*
X014861Y016154D02*
X022261Y016154D01*
X022261Y016253D02*
X014861Y016253D01*
X014861Y016352D02*
X022261Y016352D01*
X022357Y016450D02*
X014922Y016450D01*
X015021Y016549D02*
X015058Y016549D01*
X015263Y016549D02*
X016058Y016549D01*
X016075Y016541D02*
X016246Y016541D01*
X016404Y016607D01*
X016525Y016728D01*
X016591Y016886D01*
X016591Y017057D01*
X016525Y017215D01*
X016404Y017336D01*
X016361Y017354D01*
X016361Y017491D01*
X016455Y017531D01*
X016602Y017677D01*
X016661Y017820D01*
X016720Y017677D01*
X016866Y017531D01*
X017057Y017451D01*
X017264Y017451D01*
X017424Y017518D01*
X017290Y017383D01*
X017246Y017401D01*
X017075Y017401D01*
X016917Y017336D01*
X016796Y017215D01*
X016731Y017057D01*
X016731Y016886D01*
X016796Y016728D01*
X016917Y016607D01*
X017075Y016541D01*
X017246Y016541D01*
X017404Y016607D01*
X017525Y016728D01*
X017591Y016886D01*
X017591Y017057D01*
X017573Y017101D01*
X017963Y017491D01*
X018057Y017451D01*
X018264Y017451D01*
X018424Y017518D01*
X018411Y017504D01*
X018290Y017383D01*
X018246Y017401D01*
X018075Y017401D01*
X017917Y017336D01*
X017796Y017215D01*
X017731Y017057D01*
X017731Y016886D01*
X017796Y016728D01*
X017917Y016607D01*
X018075Y016541D01*
X018246Y016541D01*
X018404Y016607D01*
X018525Y016728D01*
X018591Y016886D01*
X018591Y017057D01*
X018573Y017101D01*
X018694Y017221D01*
X018803Y017221D01*
X018796Y017215D01*
X018731Y017057D01*
X018731Y016886D01*
X018796Y016728D01*
X018917Y016607D01*
X019075Y016541D01*
X019246Y016541D01*
X019404Y016607D01*
X019525Y016728D01*
X019543Y016771D01*
X019778Y016771D01*
X019796Y016728D01*
X019917Y016607D01*
X020075Y016541D01*
X020246Y016541D01*
X020404Y016607D01*
X020525Y016728D01*
X020591Y016886D01*
X020591Y017057D01*
X020525Y017215D01*
X020404Y017336D01*
X020246Y017401D01*
X020124Y017401D01*
X020174Y017451D01*
X020264Y017451D01*
X020455Y017531D01*
X020602Y017677D01*
X020661Y017820D01*
X020720Y017677D01*
X020866Y017531D01*
X021057Y017451D01*
X021264Y017451D01*
X021455Y017531D01*
X021602Y017677D01*
X021681Y017868D01*
X021681Y018075D01*
X021602Y018266D01*
X021455Y018412D01*
X021264Y018491D01*
X021057Y018491D01*
X020866Y018412D01*
X020720Y018266D01*
X020661Y018123D01*
X020602Y018266D01*
X020455Y018412D01*
X020264Y018491D01*
X020057Y018491D01*
X019866Y018412D01*
X019720Y018266D01*
X019661Y018123D01*
X019602Y018266D01*
X019455Y018412D01*
X019264Y018491D01*
X019057Y018491D01*
X018866Y018412D01*
X018720Y018266D01*
X018661Y018123D01*
X018602Y018266D01*
X018455Y018412D01*
X018264Y018491D01*
X018057Y018491D01*
X017866Y018412D01*
X017720Y018266D01*
X017661Y018123D01*
X017602Y018266D01*
X017455Y018412D01*
X017264Y018491D01*
X017057Y018491D01*
X016866Y018412D01*
X016720Y018266D01*
X016661Y018123D01*
X016602Y018266D01*
X016455Y018412D01*
X016264Y018491D01*
X016057Y018491D01*
X015866Y018412D01*
X015720Y018266D01*
X015641Y018075D01*
X015641Y017868D01*
X015720Y017677D01*
X015866Y017531D01*
X015961Y017491D01*
X015961Y017354D01*
X015917Y017336D01*
X015796Y017215D01*
X015731Y017057D01*
X015731Y016886D01*
X015796Y016728D01*
X015917Y016607D01*
X016075Y016541D01*
X016263Y016549D02*
X017058Y016549D01*
X017263Y016549D02*
X018058Y016549D01*
X018263Y016549D02*
X019058Y016549D01*
X019263Y016549D02*
X020058Y016549D01*
X020263Y016549D02*
X021058Y016549D01*
X021075Y016541D02*
X020917Y016607D01*
X020796Y016728D01*
X020731Y016886D01*
X020731Y017057D01*
X020796Y017215D01*
X020917Y017336D01*
X021075Y017401D01*
X021246Y017401D01*
X021404Y017336D01*
X021525Y017215D01*
X021591Y017057D01*
X021591Y016886D01*
X021525Y016728D01*
X021404Y016607D01*
X021246Y016541D01*
X021075Y016541D01*
X021263Y016549D02*
X022058Y016549D01*
X022263Y016549D02*
X022455Y016549D01*
X022445Y016647D02*
X022554Y016647D01*
X022533Y016746D02*
X022652Y016746D01*
X021877Y016647D02*
X021445Y016647D01*
X021533Y016746D02*
X021789Y016746D01*
X021748Y016844D02*
X021573Y016844D01*
X021591Y016943D02*
X021731Y016943D01*
X021731Y017041D02*
X021591Y017041D01*
X021556Y017140D02*
X021765Y017140D01*
X021820Y017238D02*
X021502Y017238D01*
X021402Y017337D02*
X021920Y017337D01*
X021557Y017633D02*
X023764Y017633D01*
X023697Y017731D02*
X021624Y017731D01*
X021665Y017830D02*
X023657Y017830D01*
X023641Y017928D02*
X021681Y017928D01*
X021681Y018027D02*
X023641Y018027D01*
X023662Y018125D02*
X021660Y018125D01*
X021619Y018224D02*
X023703Y018224D01*
X023776Y018322D02*
X021545Y018322D01*
X021434Y018421D02*
X023887Y018421D01*
X024161Y017971D02*
X024161Y016971D01*
X024556Y017140D02*
X024765Y017140D01*
X024731Y017041D02*
X024591Y017041D01*
X024591Y016943D02*
X024731Y016943D01*
X024748Y016844D02*
X024573Y016844D01*
X024533Y016746D02*
X024789Y016746D01*
X024877Y016647D02*
X024445Y016647D01*
X023877Y016647D02*
X023445Y016647D01*
X023533Y016746D02*
X023789Y016746D01*
X023748Y016844D02*
X023573Y016844D01*
X023591Y016943D02*
X023731Y016943D01*
X023731Y017041D02*
X023591Y017041D01*
X023556Y017140D02*
X023765Y017140D01*
X023820Y017238D02*
X023502Y017238D01*
X023402Y017337D02*
X023920Y017337D01*
X023961Y017436D02*
X020158Y017436D01*
X020402Y017337D02*
X020920Y017337D01*
X020820Y017238D02*
X020502Y017238D01*
X020556Y017140D02*
X020765Y017140D01*
X020731Y017041D02*
X020591Y017041D01*
X020591Y016943D02*
X020731Y016943D01*
X020748Y016844D02*
X020573Y016844D01*
X020533Y016746D02*
X020789Y016746D01*
X020877Y016647D02*
X020445Y016647D01*
X020161Y016971D02*
X019161Y016971D01*
X018765Y017140D02*
X018612Y017140D01*
X018591Y017041D02*
X018731Y017041D01*
X018731Y016943D02*
X018591Y016943D01*
X018573Y016844D02*
X018748Y016844D01*
X018789Y016746D02*
X018533Y016746D01*
X018445Y016647D02*
X018877Y016647D01*
X019445Y016647D02*
X019877Y016647D01*
X019789Y016746D02*
X019533Y016746D01*
X019861Y017421D02*
X018611Y017421D01*
X018161Y016971D01*
X017765Y017140D02*
X017612Y017140D01*
X017591Y017041D02*
X017731Y017041D01*
X017731Y016943D02*
X017591Y016943D01*
X017573Y016844D02*
X017748Y016844D01*
X017789Y016746D02*
X017533Y016746D01*
X017445Y016647D02*
X017877Y016647D01*
X017161Y016971D02*
X018161Y017971D01*
X018545Y018322D02*
X018776Y018322D01*
X018703Y018224D02*
X018619Y018224D01*
X018660Y018125D02*
X018662Y018125D01*
X018887Y018421D02*
X018434Y018421D01*
X017887Y018421D02*
X017434Y018421D01*
X017545Y018322D02*
X017776Y018322D01*
X017703Y018224D02*
X017619Y018224D01*
X017660Y018125D02*
X017662Y018125D01*
X017908Y017436D02*
X018342Y017436D01*
X017920Y017337D02*
X017809Y017337D01*
X017820Y017238D02*
X017711Y017238D01*
X017342Y017436D02*
X016361Y017436D01*
X016402Y017337D02*
X016920Y017337D01*
X016820Y017238D02*
X016502Y017238D01*
X016556Y017140D02*
X016765Y017140D01*
X016731Y017041D02*
X016591Y017041D01*
X016591Y016943D02*
X016731Y016943D01*
X016748Y016844D02*
X016573Y016844D01*
X016533Y016746D02*
X016789Y016746D01*
X016877Y016647D02*
X016445Y016647D01*
X016161Y016971D02*
X016161Y017971D01*
X016545Y018322D02*
X016776Y018322D01*
X016703Y018224D02*
X016619Y018224D01*
X016660Y018125D02*
X016662Y018125D01*
X016887Y018421D02*
X016434Y018421D01*
X015887Y018421D02*
X013434Y018421D01*
X013455Y018412D02*
X013264Y018491D01*
X013057Y018491D01*
X012866Y018412D01*
X012720Y018266D01*
X012661Y018123D01*
X012602Y018266D01*
X012455Y018412D01*
X012264Y018491D01*
X012057Y018491D01*
X011866Y018412D01*
X011720Y018266D01*
X011661Y018123D01*
X011602Y018266D01*
X011455Y018412D01*
X011264Y018491D01*
X011057Y018491D01*
X010866Y018412D01*
X010720Y018266D01*
X010661Y018123D01*
X010602Y018266D01*
X010455Y018412D01*
X010264Y018491D01*
X010057Y018491D01*
X009866Y018412D01*
X009720Y018266D01*
X009661Y018123D01*
X009602Y018266D01*
X009455Y018412D01*
X009264Y018491D01*
X009057Y018491D01*
X008866Y018412D01*
X008720Y018266D01*
X008661Y018123D01*
X008602Y018266D01*
X008455Y018412D01*
X008264Y018491D01*
X008057Y018491D01*
X007866Y018412D01*
X007720Y018266D01*
X007641Y018075D01*
X007641Y017868D01*
X007720Y017677D01*
X007866Y017531D01*
X007961Y017491D01*
X007961Y017354D01*
X007917Y017336D01*
X007796Y017215D01*
X007731Y017057D01*
X007731Y016886D01*
X007796Y016728D01*
X007917Y016607D01*
X008075Y016541D01*
X008246Y016541D01*
X008404Y016607D01*
X008525Y016728D01*
X008591Y016886D01*
X008591Y017057D01*
X008525Y017215D01*
X008404Y017336D01*
X008361Y017354D01*
X008361Y017491D01*
X008455Y017531D01*
X008602Y017677D01*
X008661Y017820D01*
X008720Y017677D01*
X008866Y017531D01*
X009057Y017451D01*
X009264Y017451D01*
X009424Y017518D01*
X009290Y017383D01*
X009246Y017401D01*
X009075Y017401D01*
X008917Y017336D01*
X008796Y017215D01*
X008731Y017057D01*
X008731Y016886D01*
X008796Y016728D01*
X008917Y016607D01*
X009075Y016541D01*
X009246Y016541D01*
X009404Y016607D01*
X009525Y016728D01*
X009591Y016886D01*
X009591Y017057D01*
X009573Y017101D01*
X009963Y017491D01*
X010057Y017451D01*
X010264Y017451D01*
X010424Y017518D01*
X010411Y017504D01*
X010290Y017383D01*
X010246Y017401D01*
X010075Y017401D01*
X009917Y017336D01*
X009796Y017215D01*
X009731Y017057D01*
X009731Y016886D01*
X009796Y016728D01*
X009917Y016607D01*
X010075Y016541D01*
X010246Y016541D01*
X010404Y016607D01*
X010525Y016728D01*
X010591Y016886D01*
X010591Y017057D01*
X010573Y017101D01*
X010694Y017221D01*
X010803Y017221D01*
X010796Y017215D01*
X010731Y017057D01*
X010731Y016886D01*
X010796Y016728D01*
X010917Y016607D01*
X011075Y016541D01*
X011246Y016541D01*
X011404Y016607D01*
X011525Y016728D01*
X011543Y016771D01*
X011778Y016771D01*
X011796Y016728D01*
X011917Y016607D01*
X012075Y016541D01*
X012246Y016541D01*
X012404Y016607D01*
X012525Y016728D01*
X012591Y016886D01*
X012591Y017057D01*
X012525Y017215D01*
X012404Y017336D01*
X012246Y017401D01*
X012075Y017401D01*
X011917Y017336D01*
X011796Y017215D01*
X011778Y017171D01*
X011543Y017171D01*
X011525Y017215D01*
X011519Y017221D01*
X011528Y017221D01*
X011694Y017221D01*
X011963Y017491D01*
X012057Y017451D01*
X012264Y017451D01*
X012455Y017531D01*
X012602Y017677D01*
X012661Y017820D01*
X012720Y017677D01*
X012866Y017531D01*
X013057Y017451D01*
X013264Y017451D01*
X013455Y017531D01*
X013602Y017677D01*
X013681Y017868D01*
X013681Y018075D01*
X013602Y018266D01*
X013455Y018412D01*
X013545Y018322D02*
X015776Y018322D01*
X015703Y018224D02*
X013619Y018224D01*
X013660Y018125D02*
X015662Y018125D01*
X015641Y018027D02*
X013681Y018027D01*
X013681Y017928D02*
X015641Y017928D01*
X015657Y017830D02*
X013665Y017830D01*
X013624Y017731D02*
X015697Y017731D01*
X015764Y017633D02*
X013557Y017633D01*
X013459Y017534D02*
X015863Y017534D01*
X015961Y017436D02*
X011908Y017436D01*
X011920Y017337D02*
X011809Y017337D01*
X011820Y017238D02*
X011711Y017238D01*
X011611Y017421D02*
X012161Y017971D01*
X012545Y018322D02*
X012776Y018322D01*
X012703Y018224D02*
X012619Y018224D01*
X012660Y018125D02*
X012662Y018125D01*
X012887Y018421D02*
X012434Y018421D01*
X011887Y018421D02*
X011434Y018421D01*
X011545Y018322D02*
X011776Y018322D01*
X011703Y018224D02*
X011619Y018224D01*
X011660Y018125D02*
X011662Y018125D01*
X011611Y017421D02*
X010611Y017421D01*
X010161Y016971D01*
X009765Y017140D02*
X009612Y017140D01*
X009591Y017041D02*
X009731Y017041D01*
X009731Y016943D02*
X009591Y016943D01*
X009573Y016844D02*
X009748Y016844D01*
X009789Y016746D02*
X009533Y016746D01*
X009445Y016647D02*
X009877Y016647D01*
X010058Y016549D02*
X009263Y016549D01*
X009058Y016549D02*
X008263Y016549D01*
X008058Y016549D02*
X007866Y016549D01*
X007877Y016647D02*
X007768Y016647D01*
X007789Y016746D02*
X007669Y016746D01*
X007748Y016844D02*
X007573Y016844D01*
X007573Y016842D02*
X007591Y016886D01*
X007591Y017057D01*
X007525Y017215D01*
X007404Y017336D01*
X007246Y017401D01*
X007075Y017401D01*
X006917Y017336D01*
X006796Y017215D01*
X006731Y017057D01*
X006731Y016886D01*
X006796Y016728D01*
X006917Y016607D01*
X007075Y016541D01*
X007246Y016541D01*
X007290Y016560D01*
X007961Y015889D01*
X008078Y015771D01*
X010278Y015771D01*
X011911Y014139D01*
X011911Y011304D01*
X011911Y011139D01*
X013833Y009217D01*
X013833Y009106D01*
X013883Y008986D01*
X013975Y008893D01*
X014095Y008843D01*
X014226Y008843D01*
X014347Y008893D01*
X014439Y008986D01*
X014489Y009106D01*
X014489Y009237D01*
X014439Y009357D01*
X014347Y009450D01*
X014226Y009500D01*
X014116Y009500D01*
X012311Y011304D01*
X012311Y014304D01*
X012194Y014421D01*
X010444Y016171D01*
X010278Y016171D01*
X008244Y016171D01*
X007573Y016842D01*
X007591Y016943D02*
X007731Y016943D01*
X007731Y017041D02*
X007591Y017041D01*
X007556Y017140D02*
X007765Y017140D01*
X007820Y017238D02*
X007502Y017238D01*
X007402Y017337D02*
X007920Y017337D01*
X007961Y017436D02*
X005961Y017436D01*
X005961Y017534D02*
X007863Y017534D01*
X007764Y017633D02*
X005961Y017633D01*
X005961Y017731D02*
X007697Y017731D01*
X007657Y017830D02*
X005961Y017830D01*
X005961Y017928D02*
X007641Y017928D01*
X007641Y018027D02*
X005961Y018027D01*
X005961Y018125D02*
X007662Y018125D01*
X007703Y018224D02*
X005961Y018224D01*
X005961Y018322D02*
X007776Y018322D01*
X007887Y018421D02*
X005961Y018421D01*
X005961Y018519D02*
X038243Y018519D01*
X038335Y018421D02*
X037434Y018421D01*
X037455Y018412D02*
X037264Y018491D01*
X037057Y018491D01*
X036866Y018412D01*
X036720Y018266D01*
X036661Y018123D01*
X036602Y018266D01*
X036455Y018412D01*
X036264Y018491D01*
X036057Y018491D01*
X035866Y018412D01*
X035720Y018266D01*
X035661Y018123D01*
X035602Y018266D01*
X035455Y018412D01*
X035264Y018491D01*
X035057Y018491D01*
X034866Y018412D01*
X034720Y018266D01*
X034661Y018123D01*
X034602Y018266D01*
X034455Y018412D01*
X034264Y018491D01*
X034057Y018491D01*
X033866Y018412D01*
X033720Y018266D01*
X033661Y018123D01*
X033602Y018266D01*
X033455Y018412D01*
X033264Y018491D01*
X033057Y018491D01*
X032866Y018412D01*
X032720Y018266D01*
X032661Y018123D01*
X032602Y018266D01*
X032455Y018412D01*
X032264Y018491D01*
X032057Y018491D01*
X031866Y018412D01*
X031720Y018266D01*
X031641Y018075D01*
X031641Y017868D01*
X031720Y017677D01*
X031866Y017531D01*
X031961Y017491D01*
X031961Y017354D01*
X031917Y017336D01*
X031796Y017215D01*
X031731Y017057D01*
X031731Y016886D01*
X031796Y016728D01*
X031917Y016607D01*
X032075Y016541D01*
X032246Y016541D01*
X032404Y016607D01*
X032525Y016728D01*
X032591Y016886D01*
X032591Y017057D01*
X032525Y017215D01*
X032404Y017336D01*
X032361Y017354D01*
X032361Y017491D01*
X032455Y017531D01*
X032602Y017677D01*
X032661Y017820D01*
X032720Y017677D01*
X032866Y017531D01*
X033057Y017451D01*
X033264Y017451D01*
X033424Y017518D01*
X033290Y017383D01*
X033246Y017401D01*
X033075Y017401D01*
X032917Y017336D01*
X032796Y017215D01*
X032731Y017057D01*
X032731Y016886D01*
X032796Y016728D01*
X032917Y016607D01*
X033075Y016541D01*
X033246Y016541D01*
X033404Y016607D01*
X033525Y016728D01*
X033591Y016886D01*
X033591Y017057D01*
X033573Y017101D01*
X033963Y017491D01*
X034057Y017451D01*
X034264Y017451D01*
X034424Y017518D01*
X034411Y017504D01*
X034290Y017383D01*
X034246Y017401D01*
X034075Y017401D01*
X033917Y017336D01*
X033796Y017215D01*
X033731Y017057D01*
X033731Y016886D01*
X033796Y016728D01*
X033917Y016607D01*
X034075Y016541D01*
X034246Y016541D01*
X034404Y016607D01*
X034525Y016728D01*
X034591Y016886D01*
X034591Y017057D01*
X034573Y017101D01*
X034694Y017221D01*
X034803Y017221D01*
X034796Y017215D01*
X034731Y017057D01*
X034731Y016886D01*
X034796Y016728D01*
X034917Y016607D01*
X035075Y016541D01*
X035246Y016541D01*
X035404Y016607D01*
X035525Y016728D01*
X035543Y016771D01*
X035778Y016771D01*
X035796Y016728D01*
X035917Y016607D01*
X036075Y016541D01*
X036246Y016541D01*
X036404Y016607D01*
X036525Y016728D01*
X036591Y016886D01*
X036591Y017057D01*
X036525Y017215D01*
X036404Y017336D01*
X036246Y017401D01*
X036075Y017401D01*
X035917Y017336D01*
X035796Y017215D01*
X035778Y017171D01*
X035543Y017171D01*
X035525Y017215D01*
X035519Y017221D01*
X035528Y017221D01*
X035694Y017221D01*
X035963Y017491D01*
X036057Y017451D01*
X036264Y017451D01*
X036455Y017531D01*
X036602Y017677D01*
X036661Y017820D01*
X036720Y017677D01*
X036866Y017531D01*
X037057Y017451D01*
X037264Y017451D01*
X037455Y017531D01*
X037602Y017677D01*
X037681Y017868D01*
X037681Y018075D01*
X037602Y018266D01*
X037455Y018412D01*
X037545Y018322D02*
X038361Y018322D01*
X038361Y018224D02*
X037619Y018224D01*
X037660Y018125D02*
X038361Y018125D01*
X038361Y018027D02*
X037681Y018027D01*
X037681Y017928D02*
X038361Y017928D01*
X038361Y017830D02*
X037665Y017830D01*
X037624Y017731D02*
X038361Y017731D01*
X038361Y017633D02*
X037557Y017633D01*
X037459Y017534D02*
X038361Y017534D01*
X038361Y017436D02*
X035908Y017436D01*
X035920Y017337D02*
X035809Y017337D01*
X035820Y017238D02*
X035711Y017238D01*
X035611Y017421D02*
X036161Y017971D01*
X036545Y018322D02*
X036776Y018322D01*
X036703Y018224D02*
X036619Y018224D01*
X036660Y018125D02*
X036662Y018125D01*
X036887Y018421D02*
X036434Y018421D01*
X035887Y018421D02*
X035434Y018421D01*
X035545Y018322D02*
X035776Y018322D01*
X035703Y018224D02*
X035619Y018224D01*
X035660Y018125D02*
X035662Y018125D01*
X035611Y017421D02*
X034611Y017421D01*
X034161Y016971D01*
X033765Y017140D02*
X033612Y017140D01*
X033591Y017041D02*
X033731Y017041D01*
X033731Y016943D02*
X033591Y016943D01*
X033573Y016844D02*
X033748Y016844D01*
X033789Y016746D02*
X033533Y016746D01*
X033445Y016647D02*
X033877Y016647D01*
X034058Y016549D02*
X033263Y016549D01*
X033058Y016549D02*
X032263Y016549D01*
X032058Y016549D02*
X031361Y016549D01*
X031361Y016450D02*
X038361Y016450D01*
X038361Y016352D02*
X031361Y016352D01*
X031275Y016253D02*
X038361Y016253D01*
X038361Y016154D02*
X031177Y016154D01*
X030961Y016221D02*
X027661Y016221D01*
X024961Y013521D01*
X024722Y013297D02*
X024073Y013297D01*
X024241Y013395D02*
X024658Y013395D01*
X024633Y013494D02*
X024338Y013494D01*
X024379Y013592D02*
X024635Y013592D01*
X024676Y013691D02*
X024416Y013691D01*
X024416Y013789D02*
X024765Y013789D01*
X025044Y013888D02*
X024416Y013888D01*
X024376Y013986D02*
X025143Y013986D01*
X025241Y014085D02*
X024333Y014085D01*
X024234Y014184D02*
X025340Y014184D01*
X025439Y014282D02*
X024057Y014282D01*
X023896Y013786D02*
X023861Y013786D01*
X023861Y013021D01*
X025339Y012804D02*
X029785Y012804D01*
X029731Y012750D02*
X029983Y013001D01*
X030339Y013001D01*
X030396Y013198D02*
X030926Y013198D01*
X030827Y013297D02*
X030494Y013297D01*
X030591Y013395D02*
X030731Y013395D01*
X030731Y013494D02*
X030591Y013494D01*
X030591Y013592D02*
X030731Y013592D01*
X030731Y013691D02*
X030591Y013691D01*
X030551Y013789D02*
X030771Y013789D01*
X030869Y013888D02*
X030452Y013888D01*
X030354Y013986D02*
X030968Y013986D01*
X030941Y014184D02*
X030381Y014184D01*
X030479Y014282D02*
X030842Y014282D01*
X030744Y014381D02*
X030578Y014381D01*
X030591Y014479D02*
X030731Y014479D01*
X030731Y014578D02*
X030591Y014578D01*
X030591Y014676D02*
X030731Y014676D01*
X030756Y014775D02*
X030565Y014775D01*
X030467Y014873D02*
X030855Y014873D01*
X030953Y014972D02*
X030368Y014972D01*
X030961Y016221D02*
X031161Y016421D01*
X031161Y016971D01*
X031556Y017140D02*
X031765Y017140D01*
X031731Y017041D02*
X031591Y017041D01*
X031591Y016943D02*
X031731Y016943D01*
X031748Y016844D02*
X031573Y016844D01*
X031533Y016746D02*
X031789Y016746D01*
X031877Y016647D02*
X031445Y016647D01*
X032161Y016971D02*
X032161Y017971D01*
X032545Y018322D02*
X032776Y018322D01*
X032703Y018224D02*
X032619Y018224D01*
X032660Y018125D02*
X032662Y018125D01*
X032887Y018421D02*
X032434Y018421D01*
X031887Y018421D02*
X029434Y018421D01*
X029545Y018322D02*
X031776Y018322D01*
X031703Y018224D02*
X029619Y018224D01*
X029660Y018125D02*
X031662Y018125D01*
X031641Y018027D02*
X029681Y018027D01*
X029681Y017928D02*
X031641Y017928D01*
X031657Y017830D02*
X029665Y017830D01*
X029624Y017731D02*
X031697Y017731D01*
X031764Y017633D02*
X029557Y017633D01*
X029459Y017534D02*
X031863Y017534D01*
X031961Y017436D02*
X027908Y017436D01*
X027920Y017337D02*
X027809Y017337D01*
X027811Y017339D02*
X027811Y017339D01*
X027820Y017238D02*
X027711Y017238D01*
X027611Y017421D02*
X026611Y017421D01*
X026161Y016971D01*
X025765Y017140D02*
X025612Y017140D01*
X025591Y017041D02*
X025731Y017041D01*
X025731Y016943D02*
X025591Y016943D01*
X025573Y016844D02*
X025748Y016844D01*
X025789Y016746D02*
X025533Y016746D01*
X025445Y016647D02*
X025877Y016647D01*
X025161Y016971D02*
X026161Y017971D01*
X026545Y018322D02*
X026776Y018322D01*
X026703Y018224D02*
X026619Y018224D01*
X026660Y018125D02*
X026662Y018125D01*
X026887Y018421D02*
X026434Y018421D01*
X025887Y018421D02*
X025434Y018421D01*
X025545Y018322D02*
X025776Y018322D01*
X025703Y018224D02*
X025619Y018224D01*
X025660Y018125D02*
X025662Y018125D01*
X025908Y017436D02*
X026342Y017436D01*
X026612Y017140D02*
X026765Y017140D01*
X026731Y017041D02*
X026591Y017041D01*
X026591Y016943D02*
X026731Y016943D01*
X026748Y016844D02*
X026573Y016844D01*
X026533Y016746D02*
X026789Y016746D01*
X026877Y016647D02*
X026445Y016647D01*
X027161Y016971D02*
X028161Y016971D01*
X028556Y017140D02*
X028765Y017140D01*
X028731Y017041D02*
X028591Y017041D01*
X028591Y016943D02*
X028731Y016943D01*
X028748Y016844D02*
X028573Y016844D01*
X028533Y016746D02*
X028789Y016746D01*
X028877Y016647D02*
X028445Y016647D01*
X027877Y016647D02*
X027445Y016647D01*
X027533Y016746D02*
X027789Y016746D01*
X028402Y017337D02*
X028920Y017337D01*
X028820Y017238D02*
X028502Y017238D01*
X028459Y017534D02*
X028863Y017534D01*
X028764Y017633D02*
X028557Y017633D01*
X028624Y017731D02*
X028697Y017731D01*
X028660Y018125D02*
X028662Y018125D01*
X028619Y018224D02*
X028703Y018224D01*
X028776Y018322D02*
X028545Y018322D01*
X028434Y018421D02*
X028887Y018421D01*
X028161Y017971D02*
X027611Y017421D01*
X027660Y018125D02*
X027662Y018125D01*
X027619Y018224D02*
X027703Y018224D01*
X027776Y018322D02*
X027545Y018322D01*
X027434Y018421D02*
X027887Y018421D01*
X029402Y017337D02*
X029920Y017337D01*
X029820Y017238D02*
X029502Y017238D01*
X029556Y017140D02*
X029765Y017140D01*
X029731Y017041D02*
X029591Y017041D01*
X029591Y016943D02*
X029731Y016943D01*
X029748Y016844D02*
X029573Y016844D01*
X029533Y016746D02*
X029789Y016746D01*
X029877Y016647D02*
X029445Y016647D01*
X030445Y016647D02*
X030877Y016647D01*
X030789Y016746D02*
X030533Y016746D01*
X030573Y016844D02*
X030748Y016844D01*
X030731Y016943D02*
X030591Y016943D01*
X030591Y017041D02*
X030731Y017041D01*
X030765Y017140D02*
X030556Y017140D01*
X030502Y017238D02*
X030820Y017238D01*
X030920Y017337D02*
X030402Y017337D01*
X031402Y017337D02*
X031920Y017337D01*
X031820Y017238D02*
X031502Y017238D01*
X032361Y017436D02*
X033342Y017436D01*
X033711Y017238D02*
X033820Y017238D01*
X033809Y017337D02*
X033920Y017337D01*
X033908Y017436D02*
X034342Y017436D01*
X034612Y017140D02*
X034765Y017140D01*
X034731Y017041D02*
X034591Y017041D01*
X034591Y016943D02*
X034731Y016943D01*
X034748Y016844D02*
X034573Y016844D01*
X034533Y016746D02*
X034789Y016746D01*
X034877Y016647D02*
X034445Y016647D01*
X034263Y016549D02*
X035058Y016549D01*
X035263Y016549D02*
X036058Y016549D01*
X036263Y016549D02*
X037058Y016549D01*
X037075Y016541D02*
X037246Y016541D01*
X037404Y016607D01*
X037525Y016728D01*
X037591Y016886D01*
X037591Y017057D01*
X037525Y017215D01*
X037404Y017336D01*
X037246Y017401D01*
X037075Y017401D01*
X036917Y017336D01*
X036796Y017215D01*
X036731Y017057D01*
X036731Y016886D01*
X036796Y016728D01*
X036917Y016607D01*
X037075Y016541D01*
X037263Y016549D02*
X038058Y016549D01*
X038263Y016549D02*
X038361Y016549D01*
X038561Y016549D02*
X038756Y016549D01*
X038756Y016647D02*
X038561Y016647D01*
X038561Y016746D02*
X038783Y016746D01*
X038823Y016844D02*
X038561Y016844D01*
X038571Y016943D02*
X038920Y016943D01*
X039111Y017041D02*
X038571Y017041D01*
X038561Y017140D02*
X039109Y017140D01*
X038919Y017238D02*
X038561Y017238D01*
X038561Y017337D02*
X038823Y017337D01*
X038782Y017436D02*
X038561Y017436D01*
X038561Y017534D02*
X038756Y017534D01*
X038756Y017633D02*
X038561Y017633D01*
X038561Y017731D02*
X038777Y017731D01*
X038817Y017830D02*
X038561Y017830D01*
X038561Y017928D02*
X038905Y017928D01*
X038561Y018224D02*
X041881Y018224D01*
X041881Y018322D02*
X038561Y018322D01*
X038561Y018421D02*
X041881Y018421D01*
X041881Y018519D02*
X038516Y018519D01*
X038425Y018618D02*
X041881Y018618D01*
X041881Y018717D02*
X038333Y018717D01*
X038242Y018815D02*
X041881Y018815D01*
X041881Y018914D02*
X038150Y018914D01*
X038059Y019012D02*
X041881Y019012D01*
X041881Y019111D02*
X037967Y019111D01*
X037876Y019209D02*
X041881Y019209D01*
X041881Y019308D02*
X037784Y019308D01*
X037693Y019406D02*
X041881Y019406D01*
X041881Y019505D02*
X037601Y019505D01*
X037510Y019603D02*
X041881Y019603D01*
X041881Y019702D02*
X037418Y019702D01*
X037327Y019801D02*
X041881Y019801D01*
X041881Y019899D02*
X002811Y019899D01*
X002811Y019801D02*
X006510Y019801D01*
X006371Y019702D02*
X002811Y019702D01*
X002811Y019603D02*
X006231Y019603D01*
X006091Y019505D02*
X002811Y019505D01*
X002811Y019406D02*
X005952Y019406D01*
X005812Y019308D02*
X002811Y019308D01*
X002811Y019209D02*
X005761Y019209D01*
X005761Y019111D02*
X002811Y019111D01*
X002811Y019012D02*
X003439Y019012D01*
X003461Y019021D02*
X003278Y018945D01*
X003137Y018805D01*
X003061Y018621D01*
X003061Y018422D01*
X003137Y018238D01*
X003278Y018098D01*
X003461Y018021D01*
X003278Y017945D01*
X003137Y017805D01*
X003061Y017621D01*
X003061Y017422D01*
X003137Y017238D01*
X003278Y017098D01*
X003461Y017021D01*
X003660Y017021D01*
X003844Y017098D01*
X003985Y017238D01*
X004061Y017422D01*
X004061Y017621D01*
X003985Y017805D01*
X003844Y017945D01*
X003660Y018021D01*
X003461Y018021D01*
X003660Y018021D01*
X003844Y018098D01*
X003985Y018238D01*
X004061Y018422D01*
X004061Y018621D01*
X003985Y018805D01*
X003844Y018945D01*
X003660Y019021D01*
X003461Y019021D01*
X003683Y019012D02*
X005761Y019012D01*
X005761Y018914D02*
X003876Y018914D01*
X003974Y018815D02*
X005761Y018815D01*
X005761Y018717D02*
X004021Y018717D01*
X004061Y018618D02*
X005761Y018618D01*
X005761Y018519D02*
X004061Y018519D01*
X004060Y018421D02*
X005761Y018421D01*
X005761Y018322D02*
X004019Y018322D01*
X003970Y018224D02*
X005761Y018224D01*
X005761Y018125D02*
X003872Y018125D01*
X003861Y017928D02*
X005761Y017928D01*
X005761Y017830D02*
X003960Y017830D01*
X004015Y017731D02*
X005761Y017731D01*
X005761Y017633D02*
X004056Y017633D01*
X004061Y017534D02*
X005761Y017534D01*
X005761Y017436D02*
X004061Y017436D01*
X004026Y017337D02*
X005761Y017337D01*
X005761Y017238D02*
X003985Y017238D01*
X003886Y017140D02*
X005761Y017140D01*
X005761Y017041D02*
X003708Y017041D01*
X003413Y017041D02*
X002811Y017041D01*
X002811Y016943D02*
X005761Y016943D01*
X005761Y016844D02*
X002811Y016844D01*
X002811Y016746D02*
X005761Y016746D01*
X005761Y016647D02*
X002811Y016647D01*
X002811Y016549D02*
X005761Y016549D01*
X005761Y016450D02*
X002811Y016450D01*
X002811Y016352D02*
X005761Y016352D01*
X005761Y016253D02*
X002811Y016253D01*
X002811Y016154D02*
X003420Y016154D01*
X003461Y016171D02*
X003278Y016095D01*
X003137Y015955D01*
X003061Y015771D01*
X003061Y015572D01*
X003137Y015388D01*
X003278Y015248D01*
X003461Y015171D01*
X003278Y015095D01*
X003137Y014955D01*
X003061Y014771D01*
X003061Y014572D01*
X003137Y014388D01*
X003278Y014248D01*
X003461Y014171D01*
X003660Y014171D01*
X003844Y014248D01*
X003985Y014388D01*
X004061Y014572D01*
X004061Y014771D01*
X003985Y014955D01*
X003844Y015095D01*
X003660Y015171D01*
X003461Y015171D01*
X003660Y015171D01*
X003844Y015248D01*
X003985Y015388D01*
X004061Y015572D01*
X004061Y015771D01*
X003985Y015955D01*
X003844Y016095D01*
X003660Y016171D01*
X003461Y016171D01*
X003701Y016154D02*
X005761Y016154D01*
X005761Y016056D02*
X003883Y016056D01*
X003982Y015957D02*
X005761Y015957D01*
X005761Y015859D02*
X004024Y015859D01*
X004061Y015760D02*
X005761Y015760D01*
X005761Y015662D02*
X004061Y015662D01*
X004057Y015563D02*
X005761Y015563D01*
X005761Y015465D02*
X004016Y015465D01*
X003962Y015366D02*
X005726Y015366D01*
X005685Y015268D02*
X003864Y015268D01*
X003869Y015070D02*
X005687Y015070D01*
X005681Y015169D02*
X003666Y015169D01*
X003455Y015169D02*
X002811Y015169D01*
X002811Y015070D02*
X003253Y015070D01*
X003154Y014972D02*
X002811Y014972D01*
X002811Y014873D02*
X003103Y014873D01*
X003062Y014775D02*
X002811Y014775D01*
X002811Y014676D02*
X003061Y014676D01*
X003061Y014578D02*
X002811Y014578D01*
X002811Y014479D02*
X003099Y014479D01*
X003144Y014381D02*
X002811Y014381D01*
X002811Y014282D02*
X003243Y014282D01*
X003432Y014184D02*
X002811Y014184D01*
X002811Y014085D02*
X005681Y014085D01*
X005681Y014184D02*
X003689Y014184D01*
X003879Y014282D02*
X005691Y014282D01*
X005732Y014381D02*
X003977Y014381D01*
X004022Y014479D02*
X005810Y014479D01*
X005968Y014578D02*
X004061Y014578D01*
X004061Y014676D02*
X007061Y014676D01*
X007061Y014578D02*
X006854Y014578D01*
X007011Y014479D02*
X007061Y014479D01*
X007261Y014479D02*
X011570Y014479D01*
X011472Y014578D02*
X007261Y014578D01*
X007261Y014676D02*
X011373Y014676D01*
X011275Y014775D02*
X007261Y014775D01*
X007242Y014873D02*
X011176Y014873D01*
X011077Y014972D02*
X006126Y014972D01*
X006027Y015070D02*
X010979Y015070D01*
X010880Y015169D02*
X005961Y015169D01*
X005961Y015268D02*
X010782Y015268D01*
X010683Y015366D02*
X005961Y015366D01*
X005961Y015465D02*
X010585Y015465D01*
X010486Y015563D02*
X005961Y015563D01*
X005961Y015662D02*
X010388Y015662D01*
X010289Y015760D02*
X005961Y015760D01*
X005961Y015859D02*
X007991Y015859D01*
X007892Y015957D02*
X005961Y015957D01*
X005961Y016056D02*
X007794Y016056D01*
X007695Y016154D02*
X005961Y016154D01*
X005961Y016253D02*
X007596Y016253D01*
X007498Y016352D02*
X005961Y016352D01*
X005961Y016450D02*
X007399Y016450D01*
X007301Y016549D02*
X007263Y016549D01*
X007058Y016549D02*
X005961Y016549D01*
X005961Y016647D02*
X006877Y016647D01*
X006789Y016746D02*
X005961Y016746D01*
X005961Y016844D02*
X006748Y016844D01*
X006731Y016943D02*
X005961Y016943D01*
X005961Y017041D02*
X006731Y017041D01*
X006765Y017140D02*
X005961Y017140D01*
X005961Y017238D02*
X006820Y017238D01*
X006920Y017337D02*
X005961Y017337D01*
X007161Y016971D02*
X008161Y015971D01*
X010361Y015971D01*
X012111Y014221D01*
X012111Y011221D01*
X014161Y009171D01*
X014272Y008862D02*
X018370Y008862D01*
X018351Y008961D02*
X014414Y008961D01*
X014469Y009059D02*
X018362Y009059D01*
X018409Y009158D02*
X014489Y009158D01*
X014481Y009256D02*
X018461Y009256D01*
X018461Y009355D02*
X014754Y009355D01*
X014907Y009454D02*
X018461Y009454D01*
X018461Y009552D02*
X014966Y009552D01*
X014989Y009651D02*
X018461Y009651D01*
X018397Y009749D02*
X014984Y009749D01*
X014943Y009848D02*
X018356Y009848D01*
X018351Y009946D02*
X014861Y009946D01*
X014861Y010045D02*
X018376Y010045D01*
X018444Y010143D02*
X014861Y010143D01*
X014861Y010242D02*
X018108Y010242D01*
X018009Y010340D02*
X014861Y010340D01*
X014861Y010439D02*
X017910Y010439D01*
X017812Y010537D02*
X014861Y010537D01*
X014861Y010636D02*
X017713Y010636D01*
X017615Y010735D02*
X014861Y010735D01*
X014861Y010833D02*
X017516Y010833D01*
X017262Y010932D02*
X014861Y010932D01*
X014861Y011030D02*
X017184Y011030D01*
X017151Y011129D02*
X014861Y011129D01*
X014861Y011227D02*
X017151Y011227D01*
X017461Y011171D02*
X018261Y010371D01*
X019161Y010371D01*
X021661Y007871D01*
X023661Y007871D01*
X026461Y005071D01*
X026461Y005671D02*
X023761Y008371D01*
X021761Y008371D01*
X019261Y010871D01*
X018961Y010871D01*
X018561Y011271D01*
X018748Y011523D02*
X018874Y011523D01*
X019661Y011371D02*
X022161Y008871D01*
X023861Y008871D01*
X026461Y006271D01*
X028761Y006271D01*
X028911Y006421D01*
X027161Y006921D02*
X026111Y006921D01*
X023911Y009121D01*
X022511Y009121D01*
X020211Y011421D01*
X019972Y011621D02*
X019849Y011621D01*
X020121Y011720D02*
X015828Y011720D01*
X015745Y011819D02*
X017881Y011819D01*
X017782Y011917D02*
X015562Y011917D01*
X015463Y012016D02*
X017684Y012016D01*
X017585Y012114D02*
X015365Y012114D01*
X015361Y012213D02*
X017487Y012213D01*
X017388Y012311D02*
X015361Y012311D01*
X015361Y012410D02*
X017290Y012410D01*
X017191Y012508D02*
X015361Y012508D01*
X015361Y012607D02*
X017093Y012607D01*
X016994Y012705D02*
X015883Y012705D01*
X015707Y012968D02*
X017014Y012968D01*
X018011Y011971D01*
X020511Y011971D01*
X020324Y011720D02*
X020300Y011720D01*
X020961Y012321D02*
X018361Y012321D01*
X017775Y011424D02*
X017646Y011424D01*
X018877Y010143D02*
X019106Y010143D01*
X019205Y010045D02*
X018945Y010045D01*
X018971Y009946D02*
X019303Y009946D01*
X019402Y009848D02*
X018966Y009848D01*
X018925Y009749D02*
X019500Y009749D01*
X019599Y009651D02*
X018861Y009651D01*
X018861Y009552D02*
X019697Y009552D01*
X019796Y009454D02*
X018861Y009454D01*
X018861Y009355D02*
X019894Y009355D01*
X019993Y009256D02*
X018861Y009256D01*
X018913Y009158D02*
X020092Y009158D01*
X020190Y009059D02*
X018960Y009059D01*
X018661Y008971D02*
X018661Y009921D01*
X019360Y008961D02*
X020289Y008961D01*
X020303Y008862D02*
X020387Y008862D01*
X020401Y008764D02*
X020486Y008764D01*
X020500Y008665D02*
X020584Y008665D01*
X020598Y008567D02*
X020683Y008567D01*
X020697Y008468D02*
X020781Y008468D01*
X020796Y008370D02*
X020880Y008370D01*
X020161Y008721D02*
X024111Y004771D01*
X036861Y004771D01*
X036911Y004821D01*
X037661Y004821D01*
X037566Y005118D02*
X035433Y005118D01*
X035347Y005019D02*
X036826Y005019D01*
X036861Y004046D02*
X038087Y004046D01*
X038661Y003471D01*
X038214Y003442D02*
X038108Y003442D01*
X038108Y003541D02*
X038214Y003541D01*
X038210Y003639D02*
X038075Y003639D01*
X038111Y003738D02*
X038026Y003738D01*
X038013Y003837D02*
X037928Y003837D01*
X038092Y003344D02*
X038214Y003344D01*
X038214Y003245D02*
X038051Y003245D01*
X037968Y003147D02*
X038214Y003147D01*
X038278Y003048D02*
X037806Y003048D01*
X037750Y002918D02*
X037572Y002918D01*
X037408Y002850D01*
X037282Y002725D01*
X037214Y002560D01*
X037214Y002383D01*
X037282Y002218D01*
X037408Y002093D01*
X037572Y002025D01*
X037750Y002025D01*
X037914Y002093D01*
X038040Y002218D01*
X038108Y002383D01*
X038108Y002560D01*
X038040Y002725D01*
X037914Y002850D01*
X037750Y002918D01*
X037912Y002851D02*
X038410Y002851D01*
X038310Y002753D02*
X038012Y002753D01*
X038069Y002654D02*
X038253Y002654D01*
X038214Y002555D02*
X038108Y002555D01*
X038108Y002457D02*
X038214Y002457D01*
X038224Y002358D02*
X038098Y002358D01*
X038057Y002260D02*
X038265Y002260D01*
X038339Y002161D02*
X037983Y002161D01*
X037842Y002063D02*
X038480Y002063D01*
X038842Y002063D02*
X041515Y002063D01*
X041609Y002161D02*
X038983Y002161D01*
X039057Y002260D02*
X041666Y002260D01*
X041722Y002358D02*
X039098Y002358D01*
X039108Y002457D02*
X041779Y002457D01*
X041805Y002555D02*
X039108Y002555D01*
X039069Y002654D02*
X041831Y002654D01*
X041858Y002753D02*
X039012Y002753D01*
X037515Y003048D02*
X036806Y003048D01*
X036968Y003147D02*
X037354Y003147D01*
X037271Y003245D02*
X037051Y003245D01*
X037092Y003344D02*
X037230Y003344D01*
X037214Y003442D02*
X037108Y003442D01*
X037108Y003541D02*
X037214Y003541D01*
X037247Y003639D02*
X037075Y003639D01*
X037026Y003738D02*
X037295Y003738D01*
X037394Y003837D02*
X036928Y003837D01*
X036394Y003837D02*
X035102Y003837D01*
X035108Y003830D02*
X035020Y003918D01*
X034302Y003918D01*
X034214Y003830D01*
X034214Y003112D01*
X034302Y003025D01*
X035020Y003025D01*
X035108Y003112D01*
X035108Y003830D01*
X035108Y003738D02*
X036295Y003738D01*
X036247Y003639D02*
X035108Y003639D01*
X035108Y003541D02*
X036214Y003541D01*
X036214Y003442D02*
X035108Y003442D01*
X035108Y003344D02*
X036230Y003344D01*
X036271Y003245D02*
X035108Y003245D01*
X035108Y003147D02*
X036354Y003147D01*
X036515Y003048D02*
X035043Y003048D01*
X034914Y002850D02*
X034750Y002918D01*
X034572Y002918D01*
X034408Y002850D01*
X034282Y002725D01*
X034214Y002560D01*
X034214Y002383D01*
X034282Y002218D01*
X034408Y002093D01*
X034572Y002025D01*
X034750Y002025D01*
X034914Y002093D01*
X035040Y002218D01*
X035108Y002383D01*
X035108Y002560D01*
X035040Y002725D01*
X034914Y002850D01*
X034912Y002851D02*
X037410Y002851D01*
X037310Y002753D02*
X035012Y002753D01*
X035069Y002654D02*
X037253Y002654D01*
X037214Y002555D02*
X035108Y002555D01*
X035108Y002457D02*
X037214Y002457D01*
X037224Y002358D02*
X035098Y002358D01*
X035057Y002260D02*
X037265Y002260D01*
X037339Y002161D02*
X034983Y002161D01*
X034842Y002063D02*
X037480Y002063D01*
X034480Y002063D02*
X033842Y002063D01*
X033914Y002093D02*
X034040Y002218D01*
X034108Y002383D01*
X034108Y002560D01*
X034040Y002725D01*
X033914Y002850D01*
X033750Y002918D01*
X033572Y002918D01*
X033408Y002850D01*
X033282Y002725D01*
X033214Y002560D01*
X033214Y002383D01*
X033282Y002218D01*
X033408Y002093D01*
X033572Y002025D01*
X033750Y002025D01*
X033914Y002093D01*
X033983Y002161D02*
X034339Y002161D01*
X034265Y002260D02*
X034057Y002260D01*
X034098Y002358D02*
X034224Y002358D01*
X034214Y002457D02*
X034108Y002457D01*
X034108Y002555D02*
X034214Y002555D01*
X034253Y002654D02*
X034069Y002654D01*
X034012Y002753D02*
X034310Y002753D01*
X034410Y002851D02*
X033912Y002851D01*
X033806Y003048D02*
X034278Y003048D01*
X034214Y003147D02*
X033968Y003147D01*
X033914Y003093D02*
X034040Y003218D01*
X034108Y003383D01*
X034108Y003560D01*
X034040Y003725D01*
X033914Y003850D01*
X033750Y003918D01*
X033572Y003918D01*
X033408Y003850D01*
X033282Y003725D01*
X033214Y003560D01*
X033214Y003383D01*
X033282Y003218D01*
X033408Y003093D01*
X033572Y003025D01*
X033750Y003025D01*
X033914Y003093D01*
X034051Y003245D02*
X034214Y003245D01*
X034214Y003344D02*
X034092Y003344D01*
X034108Y003442D02*
X034214Y003442D01*
X034214Y003541D02*
X034108Y003541D01*
X034075Y003639D02*
X034214Y003639D01*
X034214Y003738D02*
X034026Y003738D01*
X033928Y003837D02*
X034220Y003837D01*
X033394Y003837D02*
X032928Y003837D01*
X032914Y003850D02*
X032750Y003918D01*
X032572Y003918D01*
X032408Y003850D01*
X032282Y003725D01*
X032214Y003560D01*
X032214Y003383D01*
X032282Y003218D01*
X032408Y003093D01*
X032572Y003025D01*
X032750Y003025D01*
X032914Y003093D01*
X033040Y003218D01*
X033108Y003383D01*
X033108Y003560D01*
X033040Y003725D01*
X032914Y003850D01*
X033026Y003738D02*
X033295Y003738D01*
X033247Y003639D02*
X033075Y003639D01*
X033108Y003541D02*
X033214Y003541D01*
X033214Y003442D02*
X033108Y003442D01*
X033092Y003344D02*
X033230Y003344D01*
X033271Y003245D02*
X033051Y003245D01*
X032968Y003147D02*
X033354Y003147D01*
X033515Y003048D02*
X032806Y003048D01*
X032750Y002918D02*
X032572Y002918D01*
X032408Y002850D01*
X032282Y002725D01*
X032214Y002560D01*
X032214Y002383D01*
X032282Y002218D01*
X032408Y002093D01*
X032572Y002025D01*
X032750Y002025D01*
X032914Y002093D01*
X033040Y002218D01*
X033108Y002383D01*
X033108Y002560D01*
X033040Y002725D01*
X032914Y002850D01*
X032750Y002918D01*
X032912Y002851D02*
X033410Y002851D01*
X033310Y002753D02*
X033012Y002753D01*
X033069Y002654D02*
X033253Y002654D01*
X033214Y002555D02*
X033108Y002555D01*
X033108Y002457D02*
X033214Y002457D01*
X033224Y002358D02*
X033098Y002358D01*
X033057Y002260D02*
X033265Y002260D01*
X033339Y002161D02*
X032983Y002161D01*
X032842Y002063D02*
X033480Y002063D01*
X032480Y002063D02*
X031842Y002063D01*
X031914Y002093D02*
X032040Y002218D01*
X032108Y002383D01*
X032108Y002560D01*
X032040Y002725D01*
X031914Y002850D01*
X031750Y002918D01*
X031572Y002918D01*
X031408Y002850D01*
X031282Y002725D01*
X031214Y002560D01*
X031214Y002383D01*
X031282Y002218D01*
X031408Y002093D01*
X031572Y002025D01*
X031750Y002025D01*
X031914Y002093D01*
X031983Y002161D02*
X032339Y002161D01*
X032265Y002260D02*
X032057Y002260D01*
X032098Y002358D02*
X032224Y002358D01*
X032214Y002457D02*
X032108Y002457D01*
X032108Y002555D02*
X032214Y002555D01*
X032253Y002654D02*
X032069Y002654D01*
X032012Y002753D02*
X032310Y002753D01*
X032410Y002851D02*
X031912Y002851D01*
X031806Y003048D02*
X032515Y003048D01*
X032354Y003147D02*
X031968Y003147D01*
X031914Y003093D02*
X032040Y003218D01*
X032108Y003383D01*
X032108Y003560D01*
X032040Y003725D01*
X031914Y003850D01*
X031750Y003918D01*
X031572Y003918D01*
X031408Y003850D01*
X031282Y003725D01*
X031214Y003560D01*
X031214Y003383D01*
X031282Y003218D01*
X031408Y003093D01*
X031572Y003025D01*
X031750Y003025D01*
X031914Y003093D01*
X032051Y003245D02*
X032271Y003245D01*
X032230Y003344D02*
X032092Y003344D01*
X032108Y003442D02*
X032214Y003442D01*
X032214Y003541D02*
X032108Y003541D01*
X032075Y003639D02*
X032247Y003639D01*
X032295Y003738D02*
X032026Y003738D01*
X031928Y003837D02*
X032394Y003837D01*
X031394Y003837D02*
X030928Y003837D01*
X030914Y003850D02*
X031040Y003725D01*
X031108Y003560D01*
X031108Y003383D01*
X031040Y003218D01*
X030914Y003093D01*
X030750Y003025D01*
X030572Y003025D01*
X030408Y003093D01*
X030282Y003218D01*
X030214Y003383D01*
X030214Y003560D01*
X030282Y003725D01*
X030408Y003850D01*
X030572Y003918D01*
X030750Y003918D01*
X030914Y003850D01*
X031026Y003738D02*
X031295Y003738D01*
X031247Y003639D02*
X031075Y003639D01*
X031108Y003541D02*
X031214Y003541D01*
X031214Y003442D02*
X031108Y003442D01*
X031092Y003344D02*
X031230Y003344D01*
X031271Y003245D02*
X031051Y003245D01*
X030968Y003147D02*
X031354Y003147D01*
X031515Y003048D02*
X030806Y003048D01*
X030750Y002918D02*
X030572Y002918D01*
X030408Y002850D01*
X030282Y002725D01*
X030214Y002560D01*
X030214Y002383D01*
X030282Y002218D01*
X030408Y002093D01*
X030572Y002025D01*
X030750Y002025D01*
X030914Y002093D01*
X031040Y002218D01*
X031108Y002383D01*
X031108Y002560D01*
X031040Y002725D01*
X030914Y002850D01*
X030750Y002918D01*
X030912Y002851D02*
X031410Y002851D01*
X031310Y002753D02*
X031012Y002753D01*
X031069Y002654D02*
X031253Y002654D01*
X031214Y002555D02*
X031108Y002555D01*
X031108Y002457D02*
X031214Y002457D01*
X031224Y002358D02*
X031098Y002358D01*
X031057Y002260D02*
X031265Y002260D01*
X031339Y002161D02*
X030983Y002161D01*
X030842Y002063D02*
X031480Y002063D01*
X030480Y002063D02*
X029842Y002063D01*
X029983Y002161D02*
X030339Y002161D01*
X030265Y002260D02*
X030057Y002260D01*
X030098Y002358D02*
X030224Y002358D01*
X030214Y002457D02*
X030108Y002457D01*
X030108Y002555D02*
X030214Y002555D01*
X030253Y002654D02*
X030069Y002654D01*
X030012Y002753D02*
X030310Y002753D01*
X030410Y002851D02*
X029912Y002851D01*
X029806Y003048D02*
X030515Y003048D01*
X030354Y003147D02*
X029968Y003147D01*
X030051Y003245D02*
X030271Y003245D01*
X030230Y003344D02*
X030092Y003344D01*
X030108Y003442D02*
X030214Y003442D01*
X030214Y003541D02*
X030108Y003541D01*
X030075Y003639D02*
X030247Y003639D01*
X030295Y003738D02*
X030026Y003738D01*
X029928Y003837D02*
X030394Y003837D01*
X029394Y003837D02*
X028928Y003837D01*
X029026Y003738D02*
X029295Y003738D01*
X029247Y003639D02*
X029075Y003639D01*
X029108Y003541D02*
X029214Y003541D01*
X029214Y003442D02*
X029108Y003442D01*
X029092Y003344D02*
X029230Y003344D01*
X029271Y003245D02*
X029051Y003245D01*
X028968Y003147D02*
X029354Y003147D01*
X028354Y003147D02*
X027968Y003147D01*
X028051Y003245D02*
X028271Y003245D01*
X028230Y003344D02*
X028092Y003344D01*
X028108Y003442D02*
X028214Y003442D01*
X028214Y003541D02*
X028108Y003541D01*
X028075Y003639D02*
X028247Y003639D01*
X028295Y003738D02*
X028026Y003738D01*
X027928Y003837D02*
X028394Y003837D01*
X029339Y002161D02*
X003083Y002161D01*
X003177Y002063D02*
X029480Y002063D01*
X031511Y005671D02*
X026461Y005671D01*
X022186Y005413D02*
X009349Y005413D01*
X009492Y005512D02*
X022088Y005512D01*
X021989Y005610D02*
X009573Y005610D01*
X009613Y005709D02*
X021891Y005709D01*
X021792Y005807D02*
X009633Y005807D01*
X009633Y005906D02*
X021693Y005906D01*
X021595Y006004D02*
X009609Y006004D01*
X009568Y006103D02*
X021496Y006103D01*
X021398Y006202D02*
X009482Y006202D01*
X009324Y006300D02*
X021299Y006300D01*
X021201Y006399D02*
X006536Y006399D01*
X006536Y006497D02*
X021102Y006497D01*
X021004Y006596D02*
X006536Y006596D01*
X006536Y006694D02*
X020905Y006694D01*
X018976Y008468D02*
X007261Y008468D01*
X007261Y008567D02*
X018889Y008567D01*
X018851Y008665D02*
X018731Y008665D01*
X018590Y008665D02*
X007261Y008665D01*
X007261Y008764D02*
X018430Y008764D01*
X019161Y008721D02*
X020161Y008721D01*
X020885Y011030D02*
X038361Y011030D01*
X038361Y010932D02*
X031409Y010932D01*
X031507Y010833D02*
X032434Y010833D01*
X032335Y010735D02*
X031591Y010735D01*
X031591Y010636D02*
X032236Y010636D01*
X032138Y010537D02*
X031591Y010537D01*
X031591Y010439D02*
X032039Y010439D01*
X031941Y010340D02*
X031538Y010340D01*
X031439Y010242D02*
X031842Y010242D01*
X031744Y010143D02*
X031341Y010143D01*
X031425Y011227D02*
X033725Y011227D01*
X033791Y011161D02*
X034131Y011161D01*
X034371Y011402D01*
X034371Y011741D01*
X034131Y011981D01*
X033791Y011981D01*
X033551Y011741D01*
X033551Y011402D01*
X033791Y011161D01*
X033627Y011326D02*
X031523Y011326D01*
X031591Y011424D02*
X033551Y011424D01*
X033551Y011523D02*
X031591Y011523D01*
X031591Y011621D02*
X033551Y011621D01*
X033551Y011720D02*
X031591Y011720D01*
X031522Y011819D02*
X033628Y011819D01*
X033727Y011917D02*
X031423Y011917D01*
X031410Y012213D02*
X038361Y012213D01*
X038361Y012311D02*
X031509Y012311D01*
X031591Y012410D02*
X038361Y012410D01*
X038361Y012508D02*
X031591Y012508D01*
X031591Y012607D02*
X038361Y012607D01*
X038361Y012705D02*
X031591Y012705D01*
X031536Y012804D02*
X038361Y012804D01*
X038361Y012114D02*
X021192Y012114D01*
X025445Y012903D02*
X029884Y012903D01*
X029982Y013001D02*
X025544Y013001D01*
X027712Y015169D02*
X032900Y015169D01*
X032968Y015212D02*
X032968Y015212D01*
X033492Y015196D02*
X033492Y015196D01*
X033530Y015169D02*
X033692Y015169D01*
X033611Y014821D02*
X033635Y014856D01*
X033662Y014889D01*
X033692Y014919D01*
X033724Y014946D01*
X033759Y014970D01*
X033796Y014991D01*
X033834Y015009D01*
X033874Y015023D01*
X033915Y015033D01*
X033957Y015040D01*
X033999Y015043D01*
X034042Y015042D01*
X034084Y015037D01*
X034125Y015029D01*
X034166Y015017D01*
X034205Y015001D01*
X034243Y014982D01*
X034279Y014960D01*
X034313Y014934D01*
X034344Y014906D01*
X034373Y014874D01*
X034398Y014841D01*
X034421Y014805D01*
X034440Y014767D01*
X034456Y014728D01*
X034468Y014687D01*
X034477Y014646D01*
X034482Y014604D01*
X034483Y014562D01*
X034480Y014519D01*
X034474Y014477D01*
X034463Y014436D01*
X034449Y014396D01*
X034432Y014358D01*
X034411Y014321D01*
X034457Y014085D02*
X038361Y014085D01*
X036436Y013297D02*
X031494Y013297D01*
X031396Y013198D02*
X036436Y013198D01*
X037177Y011917D02*
X035645Y011917D01*
X035581Y011981D02*
X035241Y011981D01*
X035001Y011741D01*
X035001Y011402D01*
X035241Y011161D01*
X035581Y011161D01*
X035821Y011402D01*
X035821Y011741D01*
X035581Y011981D01*
X035744Y011819D02*
X037078Y011819D01*
X037001Y011720D02*
X035821Y011720D01*
X035821Y011621D02*
X037001Y011621D01*
X037001Y011523D02*
X035821Y011523D01*
X035821Y011424D02*
X037001Y011424D01*
X037077Y011326D02*
X035745Y011326D01*
X035646Y011227D02*
X037175Y011227D01*
X035175Y011227D02*
X034196Y011227D01*
X034295Y011326D02*
X035077Y011326D01*
X035001Y011424D02*
X034371Y011424D01*
X034371Y011523D02*
X035001Y011523D01*
X035001Y011621D02*
X034371Y011621D01*
X034371Y011720D02*
X035001Y011720D01*
X035078Y011819D02*
X034294Y011819D01*
X034195Y011917D02*
X035177Y011917D01*
X033611Y014821D02*
X033587Y014856D01*
X033560Y014889D01*
X033530Y014919D01*
X033498Y014946D01*
X033463Y014970D01*
X033426Y014991D01*
X033388Y015009D01*
X033348Y015023D01*
X033307Y015033D01*
X033265Y015040D01*
X033223Y015043D01*
X033180Y015042D01*
X033138Y015037D01*
X033097Y015029D01*
X033056Y015017D01*
X033017Y015001D01*
X032979Y014982D01*
X032943Y014960D01*
X032909Y014934D01*
X032878Y014906D01*
X032849Y014874D01*
X032824Y014841D01*
X032801Y014805D01*
X032782Y014767D01*
X032766Y014728D01*
X032754Y014687D01*
X032745Y014646D01*
X032740Y014604D01*
X032739Y014562D01*
X032742Y014519D01*
X032748Y014477D01*
X032759Y014436D01*
X032773Y014396D01*
X032790Y014358D01*
X032811Y014321D01*
X032877Y016647D02*
X032445Y016647D01*
X032533Y016746D02*
X032789Y016746D01*
X032748Y016844D02*
X032573Y016844D01*
X032591Y016943D02*
X032731Y016943D01*
X032731Y017041D02*
X032591Y017041D01*
X032556Y017140D02*
X032765Y017140D01*
X032820Y017238D02*
X032502Y017238D01*
X032402Y017337D02*
X032920Y017337D01*
X032863Y017534D02*
X032459Y017534D01*
X032557Y017633D02*
X032764Y017633D01*
X032697Y017731D02*
X032624Y017731D01*
X033434Y018421D02*
X033887Y018421D01*
X033776Y018322D02*
X033545Y018322D01*
X033619Y018224D02*
X033703Y018224D01*
X033660Y018125D02*
X033662Y018125D01*
X034161Y017971D02*
X033161Y016971D01*
X034660Y018125D02*
X034662Y018125D01*
X034619Y018224D02*
X034703Y018224D01*
X034776Y018322D02*
X034545Y018322D01*
X034434Y018421D02*
X034887Y018421D01*
X036459Y017534D02*
X036863Y017534D01*
X036764Y017633D02*
X036557Y017633D01*
X036624Y017731D02*
X036697Y017731D01*
X036920Y017337D02*
X036402Y017337D01*
X036502Y017238D02*
X036820Y017238D01*
X036765Y017140D02*
X036556Y017140D01*
X036591Y017041D02*
X036731Y017041D01*
X036731Y016943D02*
X036591Y016943D01*
X036573Y016844D02*
X036748Y016844D01*
X036789Y016746D02*
X036533Y016746D01*
X036445Y016647D02*
X036877Y016647D01*
X037445Y016647D02*
X037877Y016647D01*
X037789Y016746D02*
X037533Y016746D01*
X037573Y016844D02*
X037748Y016844D01*
X037731Y016943D02*
X037591Y016943D01*
X037591Y017041D02*
X037731Y017041D01*
X037765Y017140D02*
X037556Y017140D01*
X037502Y017238D02*
X037820Y017238D01*
X037920Y017337D02*
X037402Y017337D01*
X036161Y016971D02*
X035161Y016971D01*
X035445Y016647D02*
X035877Y016647D01*
X035789Y016746D02*
X035533Y016746D01*
X038561Y016450D02*
X038776Y016450D01*
X038817Y016352D02*
X038561Y016352D01*
X038561Y016253D02*
X038905Y016253D01*
X039074Y016154D02*
X038561Y016154D01*
X039070Y016056D02*
X040008Y016056D01*
X038152Y018618D02*
X005961Y018618D01*
X005961Y018717D02*
X038060Y018717D01*
X037969Y018815D02*
X005961Y018815D01*
X005961Y018914D02*
X037877Y018914D01*
X037786Y019012D02*
X005961Y019012D01*
X005961Y019111D02*
X037694Y019111D01*
X037603Y019209D02*
X006019Y019209D01*
X006159Y019308D02*
X037511Y019308D01*
X037420Y019406D02*
X006299Y019406D01*
X006438Y019505D02*
X037328Y019505D01*
X037237Y019603D02*
X006578Y019603D01*
X008434Y018421D02*
X008887Y018421D01*
X008776Y018322D02*
X008545Y018322D01*
X008619Y018224D02*
X008703Y018224D01*
X008660Y018125D02*
X008662Y018125D01*
X008624Y017731D02*
X008697Y017731D01*
X008764Y017633D02*
X008557Y017633D01*
X008459Y017534D02*
X008863Y017534D01*
X008920Y017337D02*
X008402Y017337D01*
X008361Y017436D02*
X009342Y017436D01*
X009711Y017238D02*
X009820Y017238D01*
X009809Y017337D02*
X009920Y017337D01*
X009908Y017436D02*
X010342Y017436D01*
X010612Y017140D02*
X010765Y017140D01*
X010731Y017041D02*
X010591Y017041D01*
X010591Y016943D02*
X010731Y016943D01*
X010748Y016844D02*
X010573Y016844D01*
X010533Y016746D02*
X010789Y016746D01*
X010877Y016647D02*
X010445Y016647D01*
X010263Y016549D02*
X011058Y016549D01*
X011263Y016549D02*
X012058Y016549D01*
X012263Y016549D02*
X013058Y016549D01*
X013075Y016541D02*
X013246Y016541D01*
X013404Y016607D01*
X013525Y016728D01*
X013591Y016886D01*
X013591Y017057D01*
X013525Y017215D01*
X013404Y017336D01*
X013246Y017401D01*
X013075Y017401D01*
X012917Y017336D01*
X012796Y017215D01*
X012731Y017057D01*
X012731Y016886D01*
X012796Y016728D01*
X012917Y016607D01*
X013075Y016541D01*
X013263Y016549D02*
X014058Y016549D01*
X014075Y016541D02*
X014246Y016541D01*
X014404Y016607D01*
X014525Y016728D01*
X014591Y016886D01*
X014591Y017057D01*
X014525Y017215D01*
X014404Y017336D01*
X014246Y017401D01*
X014075Y017401D01*
X013917Y017336D01*
X013796Y017215D01*
X013731Y017057D01*
X013731Y016886D01*
X013796Y016728D01*
X013917Y016607D01*
X014075Y016541D01*
X014263Y016549D02*
X014461Y016549D01*
X014461Y016450D02*
X007965Y016450D01*
X008064Y016352D02*
X014461Y016352D01*
X014461Y016253D02*
X008162Y016253D01*
X008445Y016647D02*
X008877Y016647D01*
X008789Y016746D02*
X008533Y016746D01*
X008573Y016844D02*
X008748Y016844D01*
X008731Y016943D02*
X008591Y016943D01*
X008591Y017041D02*
X008731Y017041D01*
X008765Y017140D02*
X008556Y017140D01*
X008502Y017238D02*
X008820Y017238D01*
X009161Y016971D02*
X010161Y017971D01*
X010545Y018322D02*
X010776Y018322D01*
X010703Y018224D02*
X010619Y018224D01*
X010660Y018125D02*
X010662Y018125D01*
X010887Y018421D02*
X010434Y018421D01*
X009887Y018421D02*
X009434Y018421D01*
X009545Y018322D02*
X009776Y018322D01*
X009703Y018224D02*
X009619Y018224D01*
X009660Y018125D02*
X009662Y018125D01*
X008161Y017971D02*
X008161Y016971D01*
X010461Y016154D02*
X014461Y016154D01*
X014461Y016056D02*
X010559Y016056D01*
X010658Y015957D02*
X014461Y015957D01*
X014461Y015859D02*
X010756Y015859D01*
X010855Y015760D02*
X014461Y015760D01*
X014461Y015662D02*
X010953Y015662D01*
X011052Y015563D02*
X014461Y015563D01*
X014461Y015465D02*
X011150Y015465D01*
X011249Y015366D02*
X014461Y015366D01*
X014461Y015268D02*
X011348Y015268D01*
X011446Y015169D02*
X014461Y015169D01*
X014461Y015070D02*
X011545Y015070D01*
X011643Y014972D02*
X014461Y014972D01*
X014461Y014873D02*
X011742Y014873D01*
X011840Y014775D02*
X014461Y014775D01*
X014461Y014676D02*
X011939Y014676D01*
X012037Y014578D02*
X014461Y014578D01*
X014461Y014479D02*
X012136Y014479D01*
X012234Y014381D02*
X014461Y014381D01*
X014461Y014282D02*
X012311Y014282D01*
X012311Y014184D02*
X014461Y014184D01*
X014461Y014085D02*
X012311Y014085D01*
X012311Y013986D02*
X014461Y013986D01*
X014461Y013888D02*
X012311Y013888D01*
X012311Y013789D02*
X014461Y013789D01*
X014461Y013691D02*
X012311Y013691D01*
X012311Y013592D02*
X014461Y013592D01*
X014461Y013494D02*
X012311Y013494D01*
X012311Y013395D02*
X014461Y013395D01*
X014461Y013297D02*
X012311Y013297D01*
X012311Y013198D02*
X014461Y013198D01*
X014461Y013100D02*
X012311Y013100D01*
X012311Y013001D02*
X014461Y013001D01*
X014461Y012903D02*
X012311Y012903D01*
X012311Y012804D02*
X014461Y012804D01*
X014461Y012705D02*
X012311Y012705D01*
X012311Y012607D02*
X014461Y012607D01*
X014461Y012508D02*
X012311Y012508D01*
X012311Y012410D02*
X014461Y012410D01*
X014461Y012311D02*
X012311Y012311D01*
X012311Y012213D02*
X014461Y012213D01*
X014461Y012114D02*
X012311Y012114D01*
X012311Y012016D02*
X014461Y012016D01*
X014461Y011917D02*
X012311Y011917D01*
X012311Y011819D02*
X014461Y011819D01*
X014461Y011720D02*
X012311Y011720D01*
X012311Y011621D02*
X014461Y011621D01*
X014461Y011523D02*
X012311Y011523D01*
X012311Y011424D02*
X014461Y011424D01*
X014461Y011326D02*
X012311Y011326D01*
X012388Y011227D02*
X014461Y011227D01*
X014461Y011129D02*
X012486Y011129D01*
X012585Y011030D02*
X014461Y011030D01*
X014461Y010932D02*
X012683Y010932D01*
X012782Y010833D02*
X014461Y010833D01*
X014461Y010735D02*
X012881Y010735D01*
X012979Y010636D02*
X014461Y010636D01*
X014461Y010537D02*
X013078Y010537D01*
X013176Y010439D02*
X014461Y010439D01*
X014461Y010340D02*
X013275Y010340D01*
X013373Y010242D02*
X014461Y010242D01*
X014461Y010143D02*
X013472Y010143D01*
X013570Y010045D02*
X014461Y010045D01*
X014461Y009946D02*
X013669Y009946D01*
X013767Y009848D02*
X014379Y009848D01*
X014338Y009749D02*
X013866Y009749D01*
X013964Y009651D02*
X014333Y009651D01*
X014355Y009552D02*
X014063Y009552D01*
X014337Y009454D02*
X014415Y009454D01*
X014440Y009355D02*
X014568Y009355D01*
X014050Y008862D02*
X007261Y008862D01*
X007261Y008961D02*
X013907Y008961D01*
X013852Y009059D02*
X007261Y009059D01*
X007261Y009158D02*
X013833Y009158D01*
X013793Y009256D02*
X007261Y009256D01*
X007261Y009355D02*
X013694Y009355D01*
X013596Y009454D02*
X007261Y009454D01*
X007261Y009552D02*
X013497Y009552D01*
X013399Y009651D02*
X007261Y009651D01*
X007261Y009749D02*
X013300Y009749D01*
X013202Y009848D02*
X007261Y009848D01*
X007169Y009946D02*
X013103Y009946D01*
X013005Y010045D02*
X006194Y010045D01*
X006161Y010143D02*
X012906Y010143D01*
X012808Y010242D02*
X006161Y010242D01*
X006161Y010340D02*
X012709Y010340D01*
X012610Y010439D02*
X006235Y010439D01*
X005988Y010636D02*
X004061Y010636D01*
X004061Y010622D02*
X003985Y010438D01*
X003844Y010298D01*
X003660Y010221D01*
X003461Y010221D01*
X003278Y010145D01*
X003137Y010005D01*
X003061Y009821D01*
X003061Y009622D01*
X003137Y009438D01*
X003278Y009298D01*
X003461Y009221D01*
X003660Y009221D01*
X003844Y009298D01*
X003985Y009438D01*
X004061Y009622D01*
X004061Y009821D01*
X003985Y010005D01*
X003844Y010145D01*
X003660Y010221D01*
X003461Y010221D01*
X003278Y010298D01*
X003137Y010438D01*
X003061Y010622D01*
X003061Y010821D01*
X003137Y011005D01*
X003278Y011145D01*
X003461Y011221D01*
X003660Y011221D01*
X003844Y011145D01*
X003985Y011005D01*
X004061Y010821D01*
X004061Y010622D01*
X004026Y010537D02*
X005819Y010537D01*
X005735Y010439D02*
X003985Y010439D01*
X003887Y010340D02*
X005695Y010340D01*
X005681Y010242D02*
X003709Y010242D01*
X003846Y010143D02*
X005681Y010143D01*
X005719Y010045D02*
X003945Y010045D01*
X004009Y009946D02*
X005778Y009946D01*
X005890Y009848D02*
X004050Y009848D01*
X004061Y009749D02*
X007061Y009749D01*
X007061Y009651D02*
X006798Y009651D01*
X006988Y009552D02*
X007061Y009552D01*
X007058Y008961D02*
X007061Y008961D01*
X007061Y008862D02*
X006960Y008862D01*
X007061Y008764D02*
X002811Y008764D01*
X002811Y008862D02*
X005862Y008862D01*
X005763Y008961D02*
X002811Y008961D01*
X002811Y009059D02*
X005713Y009059D01*
X005681Y009158D02*
X002811Y009158D01*
X002811Y009256D02*
X003377Y009256D01*
X003220Y009355D02*
X002811Y009355D01*
X002811Y009454D02*
X003131Y009454D01*
X003090Y009552D02*
X002811Y009552D01*
X002811Y009651D02*
X003061Y009651D01*
X003061Y009749D02*
X002811Y009749D01*
X002811Y009848D02*
X003072Y009848D01*
X003113Y009946D02*
X002811Y009946D01*
X002811Y010045D02*
X003177Y010045D01*
X003276Y010143D02*
X002811Y010143D01*
X002811Y010242D02*
X003412Y010242D01*
X003235Y010340D02*
X002811Y010340D01*
X002811Y010439D02*
X003137Y010439D01*
X003096Y010537D02*
X002811Y010537D01*
X002811Y010636D02*
X003061Y010636D01*
X003061Y010735D02*
X002811Y010735D01*
X002811Y010833D02*
X003066Y010833D01*
X003107Y010932D02*
X002811Y010932D01*
X002811Y011030D02*
X003162Y011030D01*
X003261Y011129D02*
X002811Y011129D01*
X002811Y011227D02*
X008761Y011227D01*
X008761Y011129D02*
X003861Y011129D01*
X003959Y011030D02*
X008761Y011030D01*
X008761Y010932D02*
X004015Y010932D01*
X004056Y010833D02*
X008761Y010833D01*
X008761Y010735D02*
X004061Y010735D01*
X002811Y011326D02*
X008761Y011326D01*
X008761Y011424D02*
X002811Y011424D01*
X002811Y011523D02*
X008761Y011523D01*
X008761Y011621D02*
X002811Y011621D01*
X002811Y011720D02*
X008761Y011720D01*
X008761Y011819D02*
X002811Y011819D01*
X002811Y011917D02*
X008761Y011917D01*
X008761Y012016D02*
X002811Y012016D01*
X002811Y012114D02*
X007061Y012114D01*
X007061Y012213D02*
X002811Y012213D01*
X002811Y012311D02*
X007061Y012311D01*
X007061Y012410D02*
X002811Y012410D01*
X002811Y012508D02*
X007061Y012508D01*
X007061Y012607D02*
X002811Y012607D01*
X002811Y012705D02*
X007061Y012705D01*
X007061Y012804D02*
X006947Y012804D01*
X007050Y012903D02*
X007061Y012903D01*
X007261Y012903D02*
X011911Y012903D01*
X011911Y013001D02*
X007261Y013001D01*
X007261Y013100D02*
X011911Y013100D01*
X011911Y013198D02*
X007261Y013198D01*
X007261Y013297D02*
X011911Y013297D01*
X011911Y013395D02*
X007261Y013395D01*
X007261Y013494D02*
X011911Y013494D01*
X011911Y013592D02*
X007261Y013592D01*
X007261Y013691D02*
X011911Y013691D01*
X011911Y013789D02*
X007261Y013789D01*
X007261Y013888D02*
X011911Y013888D01*
X011911Y013986D02*
X007261Y013986D01*
X007261Y014085D02*
X011911Y014085D01*
X011866Y014184D02*
X007261Y014184D01*
X007261Y014282D02*
X011767Y014282D01*
X011669Y014381D02*
X007261Y014381D01*
X007061Y013888D02*
X007035Y013888D01*
X007061Y013789D02*
X006912Y013789D01*
X007061Y013691D02*
X002811Y013691D01*
X002811Y013789D02*
X005910Y013789D01*
X005786Y013888D02*
X002811Y013888D01*
X002811Y013986D02*
X005722Y013986D01*
X006003Y013592D02*
X002811Y013592D01*
X002811Y013494D02*
X005825Y013494D01*
X005738Y013395D02*
X002811Y013395D01*
X002811Y013297D02*
X005697Y013297D01*
X005681Y013198D02*
X002811Y013198D01*
X002811Y013100D02*
X005681Y013100D01*
X005716Y013001D02*
X002811Y013001D01*
X002811Y012903D02*
X005772Y012903D01*
X005874Y012804D02*
X002811Y012804D01*
X004059Y014775D02*
X005945Y014775D01*
X005801Y014873D02*
X004018Y014873D01*
X003967Y014972D02*
X005728Y014972D01*
X006818Y013592D02*
X007061Y013592D01*
X007061Y013494D02*
X006997Y013494D01*
X007261Y012804D02*
X011911Y012804D01*
X011911Y012705D02*
X007261Y012705D01*
X007261Y012607D02*
X011911Y012607D01*
X011911Y012508D02*
X007261Y012508D01*
X007261Y012410D02*
X011911Y012410D01*
X011911Y012311D02*
X007261Y012311D01*
X008902Y012213D02*
X011911Y012213D01*
X011911Y012114D02*
X008961Y012114D01*
X008961Y012016D02*
X011911Y012016D01*
X011911Y011917D02*
X008961Y011917D01*
X008961Y011819D02*
X011911Y011819D01*
X011911Y011720D02*
X008961Y011720D01*
X008961Y011621D02*
X011911Y011621D01*
X011911Y011523D02*
X008961Y011523D01*
X008961Y011424D02*
X011911Y011424D01*
X011911Y011326D02*
X008961Y011326D01*
X008961Y011227D02*
X011911Y011227D01*
X011921Y011129D02*
X008961Y011129D01*
X008961Y011030D02*
X012019Y011030D01*
X012118Y010932D02*
X008961Y010932D01*
X008961Y010833D02*
X012216Y010833D01*
X012315Y010735D02*
X008961Y010735D01*
X008961Y010636D02*
X012413Y010636D01*
X012512Y010537D02*
X008910Y010537D01*
X006023Y009651D02*
X004061Y009651D01*
X004032Y009552D02*
X005833Y009552D01*
X005741Y009454D02*
X003991Y009454D01*
X003901Y009355D02*
X005701Y009355D01*
X005681Y009256D02*
X003745Y009256D01*
X002811Y008665D02*
X007061Y008665D01*
X007061Y008567D02*
X006974Y008567D01*
X005848Y008567D02*
X002811Y008567D01*
X002811Y008468D02*
X005749Y008468D01*
X005707Y008370D02*
X002811Y008370D01*
X002811Y008271D02*
X005681Y008271D01*
X005681Y008172D02*
X002811Y008172D01*
X002811Y008074D02*
X005706Y008074D01*
X005749Y007975D02*
X002811Y007975D01*
X002811Y007877D02*
X005847Y007877D01*
X014661Y009671D02*
X014661Y016471D01*
X015161Y016971D01*
X015556Y017140D02*
X015765Y017140D01*
X015731Y017041D02*
X015591Y017041D01*
X015591Y016943D02*
X015731Y016943D01*
X015748Y016844D02*
X015573Y016844D01*
X015533Y016746D02*
X015789Y016746D01*
X015877Y016647D02*
X015445Y016647D01*
X015502Y017238D02*
X015820Y017238D01*
X015920Y017337D02*
X015402Y017337D01*
X014920Y017337D02*
X014402Y017337D01*
X014502Y017238D02*
X014820Y017238D01*
X014765Y017140D02*
X014556Y017140D01*
X014591Y017041D02*
X014731Y017041D01*
X014731Y016943D02*
X014591Y016943D01*
X014573Y016844D02*
X014748Y016844D01*
X014652Y016746D02*
X014533Y016746D01*
X014554Y016647D02*
X014445Y016647D01*
X013877Y016647D02*
X013445Y016647D01*
X013533Y016746D02*
X013789Y016746D01*
X013748Y016844D02*
X013573Y016844D01*
X013591Y016943D02*
X013731Y016943D01*
X013731Y017041D02*
X013591Y017041D01*
X013556Y017140D02*
X013765Y017140D01*
X013820Y017238D02*
X013502Y017238D01*
X013402Y017337D02*
X013920Y017337D01*
X012920Y017337D02*
X012402Y017337D01*
X012502Y017238D02*
X012820Y017238D01*
X012765Y017140D02*
X012556Y017140D01*
X012591Y017041D02*
X012731Y017041D01*
X012731Y016943D02*
X012591Y016943D01*
X012573Y016844D02*
X012748Y016844D01*
X012789Y016746D02*
X012533Y016746D01*
X012445Y016647D02*
X012877Y016647D01*
X012161Y016971D02*
X011161Y016971D01*
X011445Y016647D02*
X011877Y016647D01*
X011789Y016746D02*
X011533Y016746D01*
X012459Y017534D02*
X012863Y017534D01*
X012764Y017633D02*
X012557Y017633D01*
X012624Y017731D02*
X012697Y017731D01*
X016459Y017534D02*
X016863Y017534D01*
X016764Y017633D02*
X016557Y017633D01*
X016624Y017731D02*
X016697Y017731D01*
X019434Y018421D02*
X019887Y018421D01*
X019776Y018322D02*
X019545Y018322D01*
X019619Y018224D02*
X019703Y018224D01*
X019660Y018125D02*
X019662Y018125D01*
X020161Y017971D02*
X020161Y017721D01*
X019861Y017421D01*
X020459Y017534D02*
X020863Y017534D01*
X020764Y017633D02*
X020557Y017633D01*
X020624Y017731D02*
X020697Y017731D01*
X020660Y018125D02*
X020662Y018125D01*
X020619Y018224D02*
X020703Y018224D01*
X020776Y018322D02*
X020545Y018322D01*
X020434Y018421D02*
X020887Y018421D01*
X021459Y017534D02*
X023863Y017534D01*
X024361Y017436D02*
X025342Y017436D01*
X025711Y017238D02*
X025820Y017238D01*
X025809Y017337D02*
X025920Y017337D01*
X024920Y017337D02*
X024402Y017337D01*
X024502Y017238D02*
X024820Y017238D01*
X024863Y017534D02*
X024459Y017534D01*
X024557Y017633D02*
X024764Y017633D01*
X024697Y017731D02*
X024624Y017731D01*
X024660Y018125D02*
X024662Y018125D01*
X024619Y018224D02*
X024703Y018224D01*
X024776Y018322D02*
X024545Y018322D01*
X024434Y018421D02*
X024887Y018421D01*
X025079Y021281D02*
X025242Y021281D01*
X025393Y021344D01*
X025508Y021459D01*
X025571Y021610D01*
X025571Y021707D01*
X025641Y021876D01*
X025641Y023528D01*
X025661Y023548D01*
X025661Y024395D01*
X025585Y024471D01*
X024737Y024471D01*
X024661Y024395D01*
X024661Y023548D01*
X024681Y023528D01*
X024681Y021876D01*
X024751Y021707D01*
X024751Y021610D01*
X024813Y021459D01*
X024929Y021344D01*
X025079Y021281D01*
X024895Y021377D02*
X024426Y021377D01*
X024393Y021344D02*
X024508Y021459D01*
X024571Y021610D01*
X024571Y022333D01*
X024508Y022484D01*
X024393Y022599D01*
X024242Y022661D01*
X024079Y022661D01*
X023929Y022599D01*
X023813Y022484D01*
X023751Y022333D01*
X023751Y021610D01*
X023813Y021459D01*
X023929Y021344D01*
X024079Y021281D01*
X024242Y021281D01*
X024393Y021344D01*
X024515Y021476D02*
X024806Y021476D01*
X024766Y021574D02*
X024556Y021574D01*
X024571Y021673D02*
X024751Y021673D01*
X024724Y021771D02*
X024571Y021771D01*
X024571Y021870D02*
X024683Y021870D01*
X024681Y021969D02*
X024571Y021969D01*
X024571Y022067D02*
X024681Y022067D01*
X024681Y022166D02*
X024571Y022166D01*
X024571Y022264D02*
X024681Y022264D01*
X024681Y022363D02*
X024559Y022363D01*
X024518Y022461D02*
X024681Y022461D01*
X024681Y022560D02*
X024432Y022560D01*
X024250Y022658D02*
X024681Y022658D01*
X024681Y022757D02*
X020641Y022757D01*
X020641Y022855D02*
X024681Y022855D01*
X024681Y022954D02*
X020641Y022954D01*
X020641Y023052D02*
X024681Y023052D01*
X024681Y023151D02*
X020641Y023151D01*
X020641Y023250D02*
X024681Y023250D01*
X024681Y023348D02*
X020641Y023348D01*
X020641Y023447D02*
X024681Y023447D01*
X024663Y023545D02*
X022438Y023545D01*
X022444Y023548D02*
X022585Y023688D01*
X022661Y023872D01*
X022661Y024071D01*
X022585Y024255D01*
X022444Y024395D01*
X022260Y024471D01*
X022061Y024471D01*
X021878Y024395D01*
X021737Y024255D01*
X021661Y024071D01*
X021661Y023872D01*
X021737Y023688D01*
X021878Y023548D01*
X022061Y023471D01*
X022260Y023471D01*
X022444Y023548D01*
X022540Y023644D02*
X024661Y023644D01*
X024661Y023742D02*
X022607Y023742D01*
X022648Y023841D02*
X024661Y023841D01*
X024661Y023939D02*
X022661Y023939D01*
X022661Y024038D02*
X024661Y024038D01*
X024661Y024136D02*
X022634Y024136D01*
X022593Y024235D02*
X024661Y024235D01*
X024661Y024334D02*
X022506Y024334D01*
X022355Y024432D02*
X024698Y024432D01*
X025624Y024432D02*
X025966Y024432D01*
X025878Y024395D02*
X025737Y024255D01*
X025661Y024071D01*
X025661Y023872D01*
X025681Y023824D01*
X025681Y021876D01*
X025751Y021707D01*
X025751Y021610D01*
X025813Y021459D01*
X025929Y021344D01*
X026079Y021281D01*
X026242Y021281D01*
X026393Y021344D01*
X026508Y021459D01*
X026571Y021610D01*
X026571Y021707D01*
X026641Y021876D01*
X026641Y023824D01*
X026661Y023872D01*
X026681Y023824D01*
X026681Y021876D01*
X026751Y021707D01*
X026751Y021610D01*
X026813Y021459D01*
X026929Y021344D01*
X027079Y021281D01*
X027242Y021281D01*
X027393Y021344D01*
X027508Y021459D01*
X027571Y021610D01*
X027571Y021707D01*
X027641Y021876D01*
X027641Y023824D01*
X027661Y023872D01*
X027681Y023824D01*
X027681Y021876D01*
X027751Y021707D01*
X027751Y021610D01*
X027813Y021459D01*
X027929Y021344D01*
X028079Y021281D01*
X028242Y021281D01*
X028393Y021344D01*
X028508Y021459D01*
X028571Y021610D01*
X028571Y021707D01*
X028641Y021876D01*
X028641Y023824D01*
X028661Y023872D01*
X028661Y024071D01*
X028585Y024255D01*
X028444Y024395D01*
X028260Y024471D01*
X028061Y024471D01*
X027878Y024395D01*
X027737Y024255D01*
X027661Y024071D01*
X027661Y023872D01*
X027661Y024071D01*
X027585Y024255D01*
X027444Y024395D01*
X027260Y024471D01*
X027061Y024471D01*
X026878Y024395D01*
X026737Y024255D01*
X026661Y024071D01*
X026661Y023872D01*
X026661Y024071D01*
X026585Y024255D01*
X026444Y024395D01*
X026260Y024471D01*
X026061Y024471D01*
X025878Y024395D01*
X025816Y024334D02*
X025661Y024334D01*
X025661Y024235D02*
X025729Y024235D01*
X025688Y024136D02*
X025661Y024136D01*
X025661Y024038D02*
X025661Y024038D01*
X025661Y023939D02*
X025661Y023939D01*
X025661Y023841D02*
X025674Y023841D01*
X025661Y023742D02*
X025681Y023742D01*
X025681Y023644D02*
X025661Y023644D01*
X025658Y023545D02*
X025681Y023545D01*
X025681Y023447D02*
X025641Y023447D01*
X025641Y023348D02*
X025681Y023348D01*
X025681Y023250D02*
X025641Y023250D01*
X025641Y023151D02*
X025681Y023151D01*
X025681Y023052D02*
X025641Y023052D01*
X025641Y022954D02*
X025681Y022954D01*
X025681Y022855D02*
X025641Y022855D01*
X025641Y022757D02*
X025681Y022757D01*
X025681Y022658D02*
X025641Y022658D01*
X025641Y022560D02*
X025681Y022560D01*
X025681Y022461D02*
X025641Y022461D01*
X025641Y022363D02*
X025681Y022363D01*
X025681Y022264D02*
X025641Y022264D01*
X025641Y022166D02*
X025681Y022166D01*
X025681Y022067D02*
X025641Y022067D01*
X025641Y021969D02*
X025681Y021969D01*
X025683Y021870D02*
X025638Y021870D01*
X025597Y021771D02*
X025724Y021771D01*
X025751Y021673D02*
X025571Y021673D01*
X025556Y021574D02*
X025766Y021574D01*
X025806Y021476D02*
X025515Y021476D01*
X025426Y021377D02*
X025895Y021377D01*
X026426Y021377D02*
X026895Y021377D01*
X026806Y021476D02*
X026515Y021476D01*
X026556Y021574D02*
X026766Y021574D01*
X026751Y021673D02*
X026571Y021673D01*
X026597Y021771D02*
X026724Y021771D01*
X026683Y021870D02*
X026638Y021870D01*
X026641Y021969D02*
X026681Y021969D01*
X026681Y022067D02*
X026641Y022067D01*
X026641Y022166D02*
X026681Y022166D01*
X026681Y022264D02*
X026641Y022264D01*
X026641Y022363D02*
X026681Y022363D01*
X026681Y022461D02*
X026641Y022461D01*
X026641Y022560D02*
X026681Y022560D01*
X026681Y022658D02*
X026641Y022658D01*
X026641Y022757D02*
X026681Y022757D01*
X026681Y022855D02*
X026641Y022855D01*
X026641Y022954D02*
X026681Y022954D01*
X026681Y023052D02*
X026641Y023052D01*
X026641Y023151D02*
X026681Y023151D01*
X026681Y023250D02*
X026641Y023250D01*
X026641Y023348D02*
X026681Y023348D01*
X026681Y023447D02*
X026641Y023447D01*
X026641Y023545D02*
X026681Y023545D01*
X026681Y023644D02*
X026641Y023644D01*
X026641Y023742D02*
X026681Y023742D01*
X026674Y023841D02*
X026648Y023841D01*
X026661Y023939D02*
X026661Y023939D01*
X026661Y024038D02*
X026661Y024038D01*
X026634Y024136D02*
X026688Y024136D01*
X026729Y024235D02*
X026593Y024235D01*
X026506Y024334D02*
X026816Y024334D01*
X026966Y024432D02*
X026355Y024432D01*
X027355Y024432D02*
X027966Y024432D01*
X027816Y024334D02*
X027506Y024334D01*
X027593Y024235D02*
X027729Y024235D01*
X027688Y024136D02*
X027634Y024136D01*
X027661Y024038D02*
X027661Y024038D01*
X027661Y023939D02*
X027661Y023939D01*
X027648Y023841D02*
X027674Y023841D01*
X027681Y023742D02*
X027641Y023742D01*
X027641Y023644D02*
X027681Y023644D01*
X027681Y023545D02*
X027641Y023545D01*
X027641Y023447D02*
X027681Y023447D01*
X027681Y023348D02*
X027641Y023348D01*
X027641Y023250D02*
X027681Y023250D01*
X027681Y023151D02*
X027641Y023151D01*
X027641Y023052D02*
X027681Y023052D01*
X027681Y022954D02*
X027641Y022954D01*
X027641Y022855D02*
X027681Y022855D01*
X027681Y022757D02*
X027641Y022757D01*
X027641Y022658D02*
X027681Y022658D01*
X027681Y022560D02*
X027641Y022560D01*
X027641Y022461D02*
X027681Y022461D01*
X027681Y022363D02*
X027641Y022363D01*
X027641Y022264D02*
X027681Y022264D01*
X027681Y022166D02*
X027641Y022166D01*
X027641Y022067D02*
X027681Y022067D01*
X027681Y021969D02*
X027641Y021969D01*
X027638Y021870D02*
X027683Y021870D01*
X027724Y021771D02*
X027597Y021771D01*
X027571Y021673D02*
X027751Y021673D01*
X027766Y021574D02*
X027556Y021574D01*
X027515Y021476D02*
X027806Y021476D01*
X027895Y021377D02*
X027426Y021377D01*
X028426Y021377D02*
X028895Y021377D01*
X028929Y021344D02*
X029079Y021281D01*
X029242Y021281D01*
X029393Y021344D01*
X029508Y021459D01*
X029571Y021610D01*
X029571Y022333D01*
X029508Y022484D01*
X029393Y022599D01*
X029242Y022661D01*
X029079Y022661D01*
X028929Y022599D01*
X028813Y022484D01*
X028751Y022333D01*
X028751Y021610D01*
X028813Y021459D01*
X028929Y021344D01*
X028806Y021476D02*
X028515Y021476D01*
X028556Y021574D02*
X028766Y021574D01*
X028751Y021673D02*
X028571Y021673D01*
X028597Y021771D02*
X028751Y021771D01*
X028751Y021870D02*
X028638Y021870D01*
X028641Y021969D02*
X028751Y021969D01*
X028751Y022067D02*
X028641Y022067D01*
X028641Y022166D02*
X028751Y022166D01*
X028751Y022264D02*
X028641Y022264D01*
X028641Y022363D02*
X028763Y022363D01*
X028804Y022461D02*
X028641Y022461D01*
X028641Y022560D02*
X028889Y022560D01*
X029072Y022658D02*
X028641Y022658D01*
X028641Y022757D02*
X032681Y022757D01*
X032681Y022855D02*
X028641Y022855D01*
X028641Y022954D02*
X032681Y022954D01*
X032681Y023052D02*
X028641Y023052D01*
X028641Y023151D02*
X032681Y023151D01*
X032681Y023250D02*
X028641Y023250D01*
X028641Y023348D02*
X032681Y023348D01*
X032681Y023447D02*
X028641Y023447D01*
X028641Y023545D02*
X029883Y023545D01*
X029878Y023548D02*
X030061Y023471D01*
X030260Y023471D01*
X030444Y023548D01*
X030585Y023688D01*
X030661Y023872D01*
X030661Y024071D01*
X030585Y024255D01*
X030444Y024395D01*
X030260Y024471D01*
X030061Y024471D01*
X029878Y024395D01*
X029737Y024255D01*
X029661Y024071D01*
X029661Y023872D01*
X029737Y023688D01*
X029878Y023548D01*
X029781Y023644D02*
X028641Y023644D01*
X028641Y023742D02*
X029714Y023742D01*
X029674Y023841D02*
X028648Y023841D01*
X028661Y023939D02*
X029661Y023939D01*
X029661Y024038D02*
X028661Y024038D01*
X028634Y024136D02*
X029688Y024136D01*
X029729Y024235D02*
X028593Y024235D01*
X028506Y024334D02*
X029816Y024334D01*
X029966Y024432D02*
X028355Y024432D01*
X030355Y024432D02*
X032698Y024432D01*
X032661Y024395D02*
X032661Y023548D01*
X032681Y023528D01*
X032681Y021876D01*
X032751Y021707D01*
X032751Y021610D01*
X032813Y021459D01*
X032929Y021344D01*
X033079Y021281D01*
X033242Y021281D01*
X033393Y021344D01*
X033508Y021459D01*
X033571Y021610D01*
X033571Y021707D01*
X033641Y021876D01*
X033641Y023528D01*
X033661Y023548D01*
X033661Y024395D01*
X033585Y024471D01*
X032737Y024471D01*
X032661Y024395D01*
X032661Y024334D02*
X030506Y024334D01*
X030593Y024235D02*
X032661Y024235D01*
X032661Y024136D02*
X030634Y024136D01*
X030661Y024038D02*
X032661Y024038D01*
X032661Y023939D02*
X030661Y023939D01*
X030648Y023841D02*
X032661Y023841D01*
X032661Y023742D02*
X030607Y023742D01*
X030540Y023644D02*
X032661Y023644D01*
X032663Y023545D02*
X030438Y023545D01*
X030242Y022661D02*
X030079Y022661D01*
X029929Y022599D01*
X029813Y022484D01*
X029751Y022333D01*
X029751Y021610D01*
X029813Y021459D01*
X029929Y021344D01*
X030079Y021281D01*
X030242Y021281D01*
X030393Y021344D01*
X030508Y021459D01*
X030571Y021610D01*
X030571Y022333D01*
X030508Y022484D01*
X030393Y022599D01*
X030242Y022661D01*
X030250Y022658D02*
X032072Y022658D01*
X032079Y022661D02*
X031929Y022599D01*
X031813Y022484D01*
X031751Y022333D01*
X031751Y021610D01*
X031813Y021459D01*
X031929Y021344D01*
X032079Y021281D01*
X032242Y021281D01*
X032393Y021344D01*
X032508Y021459D01*
X032571Y021610D01*
X032571Y022333D01*
X032508Y022484D01*
X032393Y022599D01*
X032242Y022661D01*
X032079Y022661D01*
X032250Y022658D02*
X032681Y022658D01*
X032681Y022560D02*
X032432Y022560D01*
X032518Y022461D02*
X032681Y022461D01*
X032681Y022363D02*
X032559Y022363D01*
X032571Y022264D02*
X032681Y022264D01*
X032681Y022166D02*
X032571Y022166D01*
X032571Y022067D02*
X032681Y022067D01*
X032681Y021969D02*
X032571Y021969D01*
X032571Y021870D02*
X032683Y021870D01*
X032724Y021771D02*
X032571Y021771D01*
X032571Y021673D02*
X032751Y021673D01*
X032766Y021574D02*
X032556Y021574D01*
X032515Y021476D02*
X032806Y021476D01*
X032895Y021377D02*
X032426Y021377D01*
X031895Y021377D02*
X030426Y021377D01*
X030515Y021476D02*
X031806Y021476D01*
X031766Y021574D02*
X030556Y021574D01*
X030571Y021673D02*
X031751Y021673D01*
X031751Y021771D02*
X030571Y021771D01*
X030571Y021870D02*
X031751Y021870D01*
X031751Y021969D02*
X030571Y021969D01*
X030571Y022067D02*
X031751Y022067D01*
X031751Y022166D02*
X030571Y022166D01*
X030571Y022264D02*
X031751Y022264D01*
X031763Y022363D02*
X030559Y022363D01*
X030518Y022461D02*
X031804Y022461D01*
X031889Y022560D02*
X030432Y022560D01*
X030072Y022658D02*
X029250Y022658D01*
X029432Y022560D02*
X029889Y022560D01*
X029804Y022461D02*
X029518Y022461D01*
X029559Y022363D02*
X029763Y022363D01*
X029751Y022264D02*
X029571Y022264D01*
X029571Y022166D02*
X029751Y022166D01*
X029751Y022067D02*
X029571Y022067D01*
X029571Y021969D02*
X029751Y021969D01*
X029751Y021870D02*
X029571Y021870D01*
X029571Y021771D02*
X029751Y021771D01*
X029751Y021673D02*
X029571Y021673D01*
X029556Y021574D02*
X029766Y021574D01*
X029806Y021476D02*
X029515Y021476D01*
X029426Y021377D02*
X029895Y021377D01*
X033426Y021377D02*
X033895Y021377D01*
X033929Y021344D02*
X034079Y021281D01*
X034242Y021281D01*
X034393Y021344D01*
X034508Y021459D01*
X034571Y021610D01*
X034571Y021707D01*
X034641Y021876D01*
X034641Y023824D01*
X034661Y023872D01*
X034681Y023824D01*
X034681Y021876D01*
X034751Y021707D01*
X034751Y021610D01*
X034813Y021459D01*
X034929Y021344D01*
X035079Y021281D01*
X035242Y021281D01*
X035393Y021344D01*
X035508Y021459D01*
X035571Y021610D01*
X035571Y021707D01*
X035641Y021876D01*
X035641Y023824D01*
X035661Y023872D01*
X035681Y023824D01*
X035681Y021876D01*
X035751Y021707D01*
X035751Y021610D01*
X035813Y021459D01*
X035929Y021344D01*
X036079Y021281D01*
X036242Y021281D01*
X036393Y021344D01*
X036508Y021459D01*
X036571Y021610D01*
X036571Y021707D01*
X036641Y021876D01*
X036641Y023824D01*
X036661Y023872D01*
X036661Y024071D01*
X036585Y024255D01*
X036444Y024395D01*
X036260Y024471D01*
X036061Y024471D01*
X035878Y024395D01*
X035737Y024255D01*
X035661Y024071D01*
X035661Y023872D01*
X035661Y024071D01*
X035585Y024255D01*
X035444Y024395D01*
X035260Y024471D01*
X035061Y024471D01*
X034878Y024395D01*
X034737Y024255D01*
X034661Y024071D01*
X034661Y023872D01*
X034661Y024071D01*
X034585Y024255D01*
X034444Y024395D01*
X034260Y024471D01*
X034061Y024471D01*
X033878Y024395D01*
X033737Y024255D01*
X033661Y024071D01*
X033661Y023872D01*
X033681Y023824D01*
X033681Y021876D01*
X033751Y021707D01*
X033751Y021610D01*
X033813Y021459D01*
X033929Y021344D01*
X033806Y021476D02*
X033515Y021476D01*
X033556Y021574D02*
X033766Y021574D01*
X033751Y021673D02*
X033571Y021673D01*
X033597Y021771D02*
X033724Y021771D01*
X033683Y021870D02*
X033638Y021870D01*
X033641Y021969D02*
X033681Y021969D01*
X033681Y022067D02*
X033641Y022067D01*
X033641Y022166D02*
X033681Y022166D01*
X033681Y022264D02*
X033641Y022264D01*
X033641Y022363D02*
X033681Y022363D01*
X033681Y022461D02*
X033641Y022461D01*
X033641Y022560D02*
X033681Y022560D01*
X033681Y022658D02*
X033641Y022658D01*
X033641Y022757D02*
X033681Y022757D01*
X033681Y022855D02*
X033641Y022855D01*
X033641Y022954D02*
X033681Y022954D01*
X033681Y023052D02*
X033641Y023052D01*
X033641Y023151D02*
X033681Y023151D01*
X033681Y023250D02*
X033641Y023250D01*
X033641Y023348D02*
X033681Y023348D01*
X033681Y023447D02*
X033641Y023447D01*
X033658Y023545D02*
X033681Y023545D01*
X033681Y023644D02*
X033661Y023644D01*
X033661Y023742D02*
X033681Y023742D01*
X033674Y023841D02*
X033661Y023841D01*
X033661Y023939D02*
X033661Y023939D01*
X033661Y024038D02*
X033661Y024038D01*
X033661Y024136D02*
X033688Y024136D01*
X033661Y024235D02*
X033729Y024235D01*
X033661Y024334D02*
X033816Y024334D01*
X033966Y024432D02*
X033624Y024432D01*
X034355Y024432D02*
X034966Y024432D01*
X034816Y024334D02*
X034506Y024334D01*
X034593Y024235D02*
X034729Y024235D01*
X034688Y024136D02*
X034634Y024136D01*
X034661Y024038D02*
X034661Y024038D01*
X034661Y023939D02*
X034661Y023939D01*
X034648Y023841D02*
X034674Y023841D01*
X034681Y023742D02*
X034641Y023742D01*
X034641Y023644D02*
X034681Y023644D01*
X034681Y023545D02*
X034641Y023545D01*
X034641Y023447D02*
X034681Y023447D01*
X034681Y023348D02*
X034641Y023348D01*
X034641Y023250D02*
X034681Y023250D01*
X034681Y023151D02*
X034641Y023151D01*
X034641Y023052D02*
X034681Y023052D01*
X034681Y022954D02*
X034641Y022954D01*
X034641Y022855D02*
X034681Y022855D01*
X034681Y022757D02*
X034641Y022757D01*
X034641Y022658D02*
X034681Y022658D01*
X034681Y022560D02*
X034641Y022560D01*
X034641Y022461D02*
X034681Y022461D01*
X034681Y022363D02*
X034641Y022363D01*
X034641Y022264D02*
X034681Y022264D01*
X034681Y022166D02*
X034641Y022166D01*
X034641Y022067D02*
X034681Y022067D01*
X034681Y021969D02*
X034641Y021969D01*
X034638Y021870D02*
X034683Y021870D01*
X034724Y021771D02*
X034597Y021771D01*
X034571Y021673D02*
X034751Y021673D01*
X034766Y021574D02*
X034556Y021574D01*
X034515Y021476D02*
X034806Y021476D01*
X034895Y021377D02*
X034426Y021377D01*
X035426Y021377D02*
X035895Y021377D01*
X035806Y021476D02*
X035515Y021476D01*
X035556Y021574D02*
X035766Y021574D01*
X035751Y021673D02*
X035571Y021673D01*
X035597Y021771D02*
X035724Y021771D01*
X035683Y021870D02*
X035638Y021870D01*
X035641Y021969D02*
X035681Y021969D01*
X035681Y022067D02*
X035641Y022067D01*
X035641Y022166D02*
X035681Y022166D01*
X035681Y022264D02*
X035641Y022264D01*
X035641Y022363D02*
X035681Y022363D01*
X035681Y022461D02*
X035641Y022461D01*
X035641Y022560D02*
X035681Y022560D01*
X035681Y022658D02*
X035641Y022658D01*
X035641Y022757D02*
X035681Y022757D01*
X035681Y022855D02*
X035641Y022855D01*
X035641Y022954D02*
X035681Y022954D01*
X035681Y023052D02*
X035641Y023052D01*
X035641Y023151D02*
X035681Y023151D01*
X035681Y023250D02*
X035641Y023250D01*
X035641Y023348D02*
X035681Y023348D01*
X035681Y023447D02*
X035641Y023447D01*
X035641Y023545D02*
X035681Y023545D01*
X035681Y023644D02*
X035641Y023644D01*
X035641Y023742D02*
X035681Y023742D01*
X035674Y023841D02*
X035648Y023841D01*
X035661Y023939D02*
X035661Y023939D01*
X035661Y024038D02*
X035661Y024038D01*
X035634Y024136D02*
X035688Y024136D01*
X035729Y024235D02*
X035593Y024235D01*
X035506Y024334D02*
X035816Y024334D01*
X035966Y024432D02*
X035355Y024432D01*
X036355Y024432D02*
X040247Y024432D01*
X040260Y024439D02*
X040023Y024303D01*
X039830Y024109D01*
X039693Y023872D01*
X039622Y023608D01*
X039622Y023335D01*
X039693Y023071D01*
X039830Y022834D01*
X040023Y022640D01*
X040260Y022504D01*
X040524Y022433D01*
X040798Y022433D01*
X041062Y022504D01*
X041299Y022640D01*
X041492Y022834D01*
X041629Y023071D01*
X041699Y023335D01*
X041699Y023608D01*
X041629Y023872D01*
X041492Y024109D01*
X041299Y024303D01*
X041062Y024439D01*
X040798Y024510D01*
X040524Y024510D01*
X040260Y024439D01*
X040077Y024334D02*
X036506Y024334D01*
X036593Y024235D02*
X039955Y024235D01*
X039857Y024136D02*
X036634Y024136D01*
X036661Y024038D02*
X039789Y024038D01*
X039732Y023939D02*
X036661Y023939D01*
X036648Y023841D02*
X039684Y023841D01*
X039658Y023742D02*
X036641Y023742D01*
X036641Y023644D02*
X039632Y023644D01*
X039622Y023545D02*
X036641Y023545D01*
X036641Y023447D02*
X039622Y023447D01*
X039622Y023348D02*
X036641Y023348D01*
X036641Y023250D02*
X039645Y023250D01*
X039671Y023151D02*
X036641Y023151D01*
X036641Y023052D02*
X039703Y023052D01*
X039760Y022954D02*
X036641Y022954D01*
X036641Y022855D02*
X039817Y022855D01*
X039907Y022757D02*
X036641Y022757D01*
X036641Y022658D02*
X037072Y022658D01*
X037079Y022661D02*
X036929Y022599D01*
X036813Y022484D01*
X036751Y022333D01*
X036751Y021610D01*
X036813Y021459D01*
X036929Y021344D01*
X037079Y021281D01*
X037242Y021281D01*
X037393Y021344D01*
X037508Y021459D01*
X037571Y021610D01*
X037571Y022333D01*
X037508Y022484D01*
X037393Y022599D01*
X037242Y022661D01*
X037079Y022661D01*
X037250Y022658D02*
X038072Y022658D01*
X038079Y022661D02*
X037929Y022599D01*
X037813Y022484D01*
X037751Y022333D01*
X037751Y021610D01*
X037813Y021459D01*
X037929Y021344D01*
X038079Y021281D01*
X038242Y021281D01*
X038393Y021344D01*
X038508Y021459D01*
X038571Y021610D01*
X038571Y022333D01*
X038508Y022484D01*
X038393Y022599D01*
X038242Y022661D01*
X038079Y022661D01*
X038250Y022658D02*
X040005Y022658D01*
X040163Y022560D02*
X038432Y022560D01*
X038518Y022461D02*
X040418Y022461D01*
X040903Y022461D02*
X041881Y022461D01*
X041881Y022363D02*
X038559Y022363D01*
X038571Y022264D02*
X041881Y022264D01*
X041881Y022166D02*
X038571Y022166D01*
X038571Y022067D02*
X041881Y022067D01*
X041881Y021969D02*
X038571Y021969D01*
X038571Y021870D02*
X041881Y021870D01*
X041881Y021771D02*
X038571Y021771D01*
X038571Y021673D02*
X041881Y021673D01*
X041881Y021574D02*
X038556Y021574D01*
X038515Y021476D02*
X041881Y021476D01*
X041881Y021377D02*
X038426Y021377D01*
X037895Y021377D02*
X037426Y021377D01*
X037515Y021476D02*
X037806Y021476D01*
X037766Y021574D02*
X037556Y021574D01*
X037571Y021673D02*
X037751Y021673D01*
X037751Y021771D02*
X037571Y021771D01*
X037571Y021870D02*
X037751Y021870D01*
X037751Y021969D02*
X037571Y021969D01*
X037571Y022067D02*
X037751Y022067D01*
X037751Y022166D02*
X037571Y022166D01*
X037571Y022264D02*
X037751Y022264D01*
X037763Y022363D02*
X037559Y022363D01*
X037518Y022461D02*
X037804Y022461D01*
X037889Y022560D02*
X037432Y022560D01*
X036889Y022560D02*
X036641Y022560D01*
X036641Y022461D02*
X036804Y022461D01*
X036763Y022363D02*
X036641Y022363D01*
X036641Y022264D02*
X036751Y022264D01*
X036751Y022166D02*
X036641Y022166D01*
X036641Y022067D02*
X036751Y022067D01*
X036751Y021969D02*
X036641Y021969D01*
X036638Y021870D02*
X036751Y021870D01*
X036751Y021771D02*
X036597Y021771D01*
X036571Y021673D02*
X036751Y021673D01*
X036766Y021574D02*
X036556Y021574D01*
X036515Y021476D02*
X036806Y021476D01*
X036895Y021377D02*
X036426Y021377D01*
X041159Y022560D02*
X041881Y022560D01*
X041881Y022658D02*
X041316Y022658D01*
X041415Y022757D02*
X041881Y022757D01*
X041881Y022855D02*
X041504Y022855D01*
X041561Y022954D02*
X041881Y022954D01*
X041881Y023052D02*
X041618Y023052D01*
X041650Y023151D02*
X041881Y023151D01*
X041881Y023250D02*
X041677Y023250D01*
X041699Y023348D02*
X041881Y023348D01*
X041881Y023447D02*
X041699Y023447D01*
X041699Y023545D02*
X041876Y023545D01*
X041870Y023644D02*
X041690Y023644D01*
X041664Y023742D02*
X041844Y023742D01*
X041818Y023841D02*
X041637Y023841D01*
X041590Y023939D02*
X041791Y023939D01*
X041749Y024038D02*
X041533Y024038D01*
X041465Y024136D02*
X041692Y024136D01*
X041636Y024235D02*
X041366Y024235D01*
X041245Y024334D02*
X041562Y024334D01*
X041463Y024432D02*
X041074Y024432D01*
X041203Y024629D02*
X003489Y024629D01*
X003327Y024531D02*
X041365Y024531D01*
X041014Y024728D02*
X003678Y024728D01*
X003760Y024439D02*
X003523Y024303D01*
X003330Y024109D01*
X003193Y023872D01*
X003122Y023608D01*
X003122Y023335D01*
X003193Y023071D01*
X003330Y022834D01*
X003523Y022640D01*
X003760Y022504D01*
X004024Y022433D01*
X004298Y022433D01*
X004562Y022504D01*
X004799Y022640D01*
X004992Y022834D01*
X005129Y023071D01*
X005199Y023335D01*
X005199Y023608D01*
X005129Y023872D01*
X004992Y024109D01*
X004799Y024303D01*
X004562Y024439D01*
X004298Y024510D01*
X004024Y024510D01*
X003760Y024439D01*
X003747Y024432D02*
X003229Y024432D01*
X003130Y024334D02*
X003577Y024334D01*
X003455Y024235D02*
X003056Y024235D01*
X002999Y024136D02*
X003357Y024136D01*
X003289Y024038D02*
X002942Y024038D01*
X002900Y023939D02*
X003232Y023939D01*
X003184Y023841D02*
X002874Y023841D01*
X002848Y023742D02*
X003158Y023742D01*
X003132Y023644D02*
X002822Y023644D01*
X002822Y023648D02*
X002822Y023648D01*
X002816Y023545D02*
X003122Y023545D01*
X003122Y023447D02*
X002811Y023447D01*
X002811Y023348D02*
X003122Y023348D01*
X003145Y023250D02*
X002811Y023250D01*
X002811Y023151D02*
X003171Y023151D01*
X003203Y023052D02*
X002811Y023052D01*
X002811Y022954D02*
X003260Y022954D01*
X003317Y022855D02*
X002811Y022855D01*
X002811Y022757D02*
X003407Y022757D01*
X003505Y022658D02*
X002811Y022658D01*
X002811Y022560D02*
X003663Y022560D01*
X003918Y022461D02*
X002811Y022461D01*
X002811Y022363D02*
X007763Y022363D01*
X007751Y022333D02*
X007813Y022484D01*
X007929Y022599D01*
X008079Y022661D01*
X008242Y022661D01*
X008393Y022599D01*
X008508Y022484D01*
X008571Y022333D01*
X008571Y021610D01*
X008508Y021459D01*
X008393Y021344D01*
X008242Y021281D01*
X008079Y021281D01*
X007929Y021344D01*
X007813Y021459D01*
X007751Y021610D01*
X007751Y022333D01*
X007751Y022264D02*
X002811Y022264D01*
X002811Y022166D02*
X007751Y022166D01*
X007751Y022067D02*
X002811Y022067D01*
X002811Y021969D02*
X007751Y021969D01*
X007751Y021870D02*
X002811Y021870D01*
X002811Y021771D02*
X003461Y021771D01*
X003278Y021695D01*
X003137Y021555D01*
X003061Y021371D01*
X003061Y021172D01*
X003137Y020988D01*
X003278Y020848D01*
X003461Y020771D01*
X003660Y020771D01*
X003844Y020848D01*
X003985Y020988D01*
X004061Y021172D01*
X004061Y021371D01*
X003985Y021555D01*
X003844Y021695D01*
X003660Y021771D01*
X003461Y021771D01*
X003660Y021771D02*
X007751Y021771D01*
X007751Y021673D02*
X003866Y021673D01*
X003965Y021574D02*
X007766Y021574D01*
X007806Y021476D02*
X004017Y021476D01*
X004058Y021377D02*
X007895Y021377D01*
X008426Y021377D02*
X008895Y021377D01*
X008929Y021344D02*
X009079Y021281D01*
X009242Y021281D01*
X009393Y021344D01*
X009508Y021459D01*
X009571Y021610D01*
X009571Y021707D01*
X009641Y021876D01*
X009641Y023528D01*
X009661Y023548D01*
X009661Y024395D01*
X009585Y024471D01*
X008737Y024471D01*
X008661Y024395D01*
X008661Y023548D01*
X008681Y023528D01*
X008681Y021876D01*
X008751Y021707D01*
X008751Y021610D01*
X008813Y021459D01*
X008929Y021344D01*
X008806Y021476D02*
X008515Y021476D01*
X008556Y021574D02*
X008766Y021574D01*
X008751Y021673D02*
X008571Y021673D01*
X008571Y021771D02*
X008724Y021771D01*
X008683Y021870D02*
X008571Y021870D01*
X008571Y021969D02*
X008681Y021969D01*
X008681Y022067D02*
X008571Y022067D01*
X008571Y022166D02*
X008681Y022166D01*
X008681Y022264D02*
X008571Y022264D01*
X008559Y022363D02*
X008681Y022363D01*
X008681Y022461D02*
X008518Y022461D01*
X008432Y022560D02*
X008681Y022560D01*
X008681Y022658D02*
X008250Y022658D01*
X008072Y022658D02*
X004816Y022658D01*
X004915Y022757D02*
X008681Y022757D01*
X008681Y022855D02*
X005004Y022855D01*
X005061Y022954D02*
X008681Y022954D01*
X008681Y023052D02*
X005118Y023052D01*
X005150Y023151D02*
X008681Y023151D01*
X008681Y023250D02*
X005177Y023250D01*
X005199Y023348D02*
X008681Y023348D01*
X008681Y023447D02*
X005199Y023447D01*
X005199Y023545D02*
X008663Y023545D01*
X008661Y023644D02*
X005190Y023644D01*
X005164Y023742D02*
X008661Y023742D01*
X008661Y023841D02*
X005137Y023841D01*
X005090Y023939D02*
X008661Y023939D01*
X008661Y024038D02*
X005033Y024038D01*
X004965Y024136D02*
X008661Y024136D01*
X008661Y024235D02*
X004866Y024235D01*
X004745Y024334D02*
X008661Y024334D01*
X008698Y024432D02*
X004574Y024432D01*
X004659Y022560D02*
X007889Y022560D01*
X007804Y022461D02*
X004403Y022461D01*
X003255Y021673D02*
X002811Y021673D01*
X002811Y021574D02*
X003157Y021574D01*
X003104Y021476D02*
X002811Y021476D01*
X002811Y021377D02*
X003063Y021377D01*
X003061Y021279D02*
X002811Y021279D01*
X002811Y021180D02*
X003061Y021180D01*
X003098Y021082D02*
X002811Y021082D01*
X002811Y020983D02*
X003142Y020983D01*
X003241Y020885D02*
X002811Y020885D01*
X002811Y020786D02*
X003426Y020786D01*
X003695Y020786D02*
X041881Y020786D01*
X041881Y020885D02*
X003881Y020885D01*
X003979Y020983D02*
X041881Y020983D01*
X041881Y021082D02*
X004023Y021082D01*
X004061Y021180D02*
X041881Y021180D01*
X041881Y021279D02*
X004061Y021279D01*
X002811Y020687D02*
X041881Y020687D01*
X041881Y020589D02*
X002811Y020589D01*
X002811Y020490D02*
X041881Y020490D01*
X041881Y020392D02*
X002811Y020392D01*
X002811Y020293D02*
X041881Y020293D01*
X041881Y020195D02*
X002811Y020195D01*
X002811Y020096D02*
X041881Y020096D01*
X041881Y019998D02*
X002811Y019998D01*
X002811Y018914D02*
X003246Y018914D01*
X003147Y018815D02*
X002811Y018815D01*
X002811Y018717D02*
X003100Y018717D01*
X003061Y018618D02*
X002811Y018618D01*
X002811Y018519D02*
X003061Y018519D01*
X003061Y018421D02*
X002811Y018421D01*
X002811Y018322D02*
X003102Y018322D01*
X003151Y018224D02*
X002811Y018224D01*
X002811Y018125D02*
X003250Y018125D01*
X003260Y017928D02*
X002811Y017928D01*
X002811Y017830D02*
X003162Y017830D01*
X003106Y017731D02*
X002811Y017731D01*
X002811Y017633D02*
X003066Y017633D01*
X003061Y017534D02*
X002811Y017534D01*
X002811Y017436D02*
X003061Y017436D01*
X003096Y017337D02*
X002811Y017337D01*
X002811Y017238D02*
X003137Y017238D01*
X003235Y017140D02*
X002811Y017140D01*
X002811Y018027D02*
X003449Y018027D01*
X003673Y018027D02*
X005761Y018027D01*
X003238Y016056D02*
X002811Y016056D01*
X002811Y015957D02*
X003140Y015957D01*
X003097Y015859D02*
X002811Y015859D01*
X002811Y015760D02*
X003061Y015760D01*
X003061Y015662D02*
X002811Y015662D01*
X002811Y015563D02*
X003064Y015563D01*
X003105Y015465D02*
X002811Y015465D01*
X002811Y015366D02*
X003159Y015366D01*
X003258Y015268D02*
X002811Y015268D01*
X009426Y021377D02*
X009895Y021377D01*
X009929Y021344D02*
X010079Y021281D01*
X010242Y021281D01*
X010393Y021344D01*
X010508Y021459D01*
X010571Y021610D01*
X010571Y021707D01*
X010641Y021876D01*
X010641Y023824D01*
X010661Y023872D01*
X010681Y023824D01*
X010681Y021876D01*
X010751Y021707D01*
X010751Y021610D01*
X010813Y021459D01*
X010929Y021344D01*
X011079Y021281D01*
X011242Y021281D01*
X011393Y021344D01*
X011508Y021459D01*
X011571Y021610D01*
X011571Y021707D01*
X011641Y021876D01*
X011641Y023824D01*
X011661Y023872D01*
X011681Y023824D01*
X011681Y021876D01*
X011751Y021707D01*
X011751Y021610D01*
X011813Y021459D01*
X011929Y021344D01*
X012079Y021281D01*
X012242Y021281D01*
X012393Y021344D01*
X012508Y021459D01*
X012571Y021610D01*
X012571Y021707D01*
X012641Y021876D01*
X012641Y023824D01*
X012661Y023872D01*
X012661Y024071D01*
X012585Y024255D01*
X012444Y024395D01*
X012260Y024471D01*
X012061Y024471D01*
X011878Y024395D01*
X011737Y024255D01*
X011661Y024071D01*
X011661Y023872D01*
X011661Y024071D01*
X011585Y024255D01*
X011444Y024395D01*
X011260Y024471D01*
X011061Y024471D01*
X010878Y024395D01*
X010737Y024255D01*
X010661Y024071D01*
X010661Y023872D01*
X010661Y024071D01*
X010585Y024255D01*
X010444Y024395D01*
X010260Y024471D01*
X010061Y024471D01*
X009878Y024395D01*
X009737Y024255D01*
X009661Y024071D01*
X009661Y023872D01*
X009681Y023824D01*
X009681Y021876D01*
X009751Y021707D01*
X009751Y021610D01*
X009813Y021459D01*
X009929Y021344D01*
X009806Y021476D02*
X009515Y021476D01*
X009556Y021574D02*
X009766Y021574D01*
X009751Y021673D02*
X009571Y021673D01*
X009597Y021771D02*
X009724Y021771D01*
X009683Y021870D02*
X009638Y021870D01*
X009641Y021969D02*
X009681Y021969D01*
X009681Y022067D02*
X009641Y022067D01*
X009641Y022166D02*
X009681Y022166D01*
X009681Y022264D02*
X009641Y022264D01*
X009641Y022363D02*
X009681Y022363D01*
X009681Y022461D02*
X009641Y022461D01*
X009641Y022560D02*
X009681Y022560D01*
X009681Y022658D02*
X009641Y022658D01*
X009641Y022757D02*
X009681Y022757D01*
X009681Y022855D02*
X009641Y022855D01*
X009641Y022954D02*
X009681Y022954D01*
X009681Y023052D02*
X009641Y023052D01*
X009641Y023151D02*
X009681Y023151D01*
X009681Y023250D02*
X009641Y023250D01*
X009641Y023348D02*
X009681Y023348D01*
X009681Y023447D02*
X009641Y023447D01*
X009658Y023545D02*
X009681Y023545D01*
X009681Y023644D02*
X009661Y023644D01*
X009661Y023742D02*
X009681Y023742D01*
X009674Y023841D02*
X009661Y023841D01*
X009661Y023939D02*
X009661Y023939D01*
X009661Y024038D02*
X009661Y024038D01*
X009661Y024136D02*
X009688Y024136D01*
X009661Y024235D02*
X009729Y024235D01*
X009661Y024334D02*
X009816Y024334D01*
X009966Y024432D02*
X009624Y024432D01*
X010355Y024432D02*
X010966Y024432D01*
X010816Y024334D02*
X010506Y024334D01*
X010593Y024235D02*
X010729Y024235D01*
X010688Y024136D02*
X010634Y024136D01*
X010661Y024038D02*
X010661Y024038D01*
X010661Y023939D02*
X010661Y023939D01*
X010648Y023841D02*
X010674Y023841D01*
X010681Y023742D02*
X010641Y023742D01*
X010641Y023644D02*
X010681Y023644D01*
X010681Y023545D02*
X010641Y023545D01*
X010641Y023447D02*
X010681Y023447D01*
X010681Y023348D02*
X010641Y023348D01*
X010641Y023250D02*
X010681Y023250D01*
X010681Y023151D02*
X010641Y023151D01*
X010641Y023052D02*
X010681Y023052D01*
X010681Y022954D02*
X010641Y022954D01*
X010641Y022855D02*
X010681Y022855D01*
X010681Y022757D02*
X010641Y022757D01*
X010641Y022658D02*
X010681Y022658D01*
X010681Y022560D02*
X010641Y022560D01*
X010641Y022461D02*
X010681Y022461D01*
X010681Y022363D02*
X010641Y022363D01*
X010641Y022264D02*
X010681Y022264D01*
X010681Y022166D02*
X010641Y022166D01*
X010641Y022067D02*
X010681Y022067D01*
X010681Y021969D02*
X010641Y021969D01*
X010638Y021870D02*
X010683Y021870D01*
X010724Y021771D02*
X010597Y021771D01*
X010571Y021673D02*
X010751Y021673D01*
X010766Y021574D02*
X010556Y021574D01*
X010515Y021476D02*
X010806Y021476D01*
X010895Y021377D02*
X010426Y021377D01*
X011426Y021377D02*
X011895Y021377D01*
X011806Y021476D02*
X011515Y021476D01*
X011556Y021574D02*
X011766Y021574D01*
X011751Y021673D02*
X011571Y021673D01*
X011597Y021771D02*
X011724Y021771D01*
X011683Y021870D02*
X011638Y021870D01*
X011641Y021969D02*
X011681Y021969D01*
X011681Y022067D02*
X011641Y022067D01*
X011641Y022166D02*
X011681Y022166D01*
X011681Y022264D02*
X011641Y022264D01*
X011641Y022363D02*
X011681Y022363D01*
X011681Y022461D02*
X011641Y022461D01*
X011641Y022560D02*
X011681Y022560D01*
X011681Y022658D02*
X011641Y022658D01*
X011641Y022757D02*
X011681Y022757D01*
X011681Y022855D02*
X011641Y022855D01*
X011641Y022954D02*
X011681Y022954D01*
X011681Y023052D02*
X011641Y023052D01*
X011641Y023151D02*
X011681Y023151D01*
X011681Y023250D02*
X011641Y023250D01*
X011641Y023348D02*
X011681Y023348D01*
X011681Y023447D02*
X011641Y023447D01*
X011641Y023545D02*
X011681Y023545D01*
X011681Y023644D02*
X011641Y023644D01*
X011641Y023742D02*
X011681Y023742D01*
X011674Y023841D02*
X011648Y023841D01*
X011661Y023939D02*
X011661Y023939D01*
X011661Y024038D02*
X011661Y024038D01*
X011634Y024136D02*
X011688Y024136D01*
X011729Y024235D02*
X011593Y024235D01*
X011506Y024334D02*
X011816Y024334D01*
X011966Y024432D02*
X011355Y024432D01*
X012355Y024432D02*
X013966Y024432D01*
X013878Y024395D02*
X014061Y024471D01*
X014260Y024471D01*
X014444Y024395D01*
X014585Y024255D01*
X014661Y024071D01*
X014661Y023872D01*
X014585Y023688D01*
X014444Y023548D01*
X014260Y023471D01*
X014061Y023471D01*
X013878Y023548D01*
X013737Y023688D01*
X013661Y023872D01*
X013661Y024071D01*
X013737Y024255D01*
X013878Y024395D01*
X013816Y024334D02*
X012506Y024334D01*
X012593Y024235D02*
X013729Y024235D01*
X013688Y024136D02*
X012634Y024136D01*
X012661Y024038D02*
X013661Y024038D01*
X013661Y023939D02*
X012661Y023939D01*
X012648Y023841D02*
X013674Y023841D01*
X013714Y023742D02*
X012641Y023742D01*
X012641Y023644D02*
X013781Y023644D01*
X013883Y023545D02*
X012641Y023545D01*
X012641Y023447D02*
X016681Y023447D01*
X016681Y023528D02*
X016681Y021876D01*
X016751Y021707D01*
X016751Y021610D01*
X016813Y021459D01*
X016929Y021344D01*
X017079Y021281D01*
X017242Y021281D01*
X017393Y021344D01*
X017508Y021459D01*
X017571Y021610D01*
X017571Y021707D01*
X017641Y021876D01*
X017641Y023528D01*
X017661Y023548D01*
X017661Y024395D01*
X017585Y024471D01*
X016737Y024471D01*
X016661Y024395D01*
X016661Y023548D01*
X016681Y023528D01*
X016663Y023545D02*
X014438Y023545D01*
X014540Y023644D02*
X016661Y023644D01*
X016661Y023742D02*
X014607Y023742D01*
X014648Y023841D02*
X016661Y023841D01*
X016661Y023939D02*
X014661Y023939D01*
X014661Y024038D02*
X016661Y024038D01*
X016661Y024136D02*
X014634Y024136D01*
X014593Y024235D02*
X016661Y024235D01*
X016661Y024334D02*
X014506Y024334D01*
X014355Y024432D02*
X016698Y024432D01*
X017624Y024432D02*
X017966Y024432D01*
X017878Y024395D02*
X018061Y024471D01*
X018260Y024471D01*
X018444Y024395D01*
X018585Y024255D01*
X018661Y024071D01*
X018661Y023872D01*
X018681Y023824D01*
X018681Y021876D01*
X018751Y021707D01*
X018751Y021610D01*
X018813Y021459D01*
X018929Y021344D01*
X019079Y021281D01*
X019242Y021281D01*
X019393Y021344D01*
X019508Y021459D01*
X019571Y021610D01*
X019571Y021707D01*
X019641Y021876D01*
X019641Y023824D01*
X019661Y023872D01*
X019681Y023824D01*
X019681Y021876D01*
X019751Y021707D01*
X019751Y021610D01*
X019813Y021459D01*
X019929Y021344D01*
X020079Y021281D01*
X020242Y021281D01*
X020393Y021344D01*
X020508Y021459D01*
X020571Y021610D01*
X020571Y021707D01*
X020641Y021876D01*
X020641Y023824D01*
X020661Y023872D01*
X020661Y024071D01*
X020585Y024255D01*
X020444Y024395D01*
X020260Y024471D01*
X020061Y024471D01*
X019878Y024395D01*
X019737Y024255D01*
X019661Y024071D01*
X019661Y023872D01*
X019661Y024071D01*
X019585Y024255D01*
X019444Y024395D01*
X019260Y024471D01*
X019061Y024471D01*
X018878Y024395D01*
X018737Y024255D01*
X018661Y024071D01*
X018661Y023872D01*
X018641Y023824D01*
X018641Y021876D01*
X018571Y021707D01*
X018571Y021610D01*
X018508Y021459D01*
X018393Y021344D01*
X018242Y021281D01*
X018079Y021281D01*
X017929Y021344D01*
X017813Y021459D01*
X017751Y021610D01*
X017751Y021707D01*
X017681Y021876D01*
X017681Y023824D01*
X017661Y023872D01*
X017661Y024071D01*
X017737Y024255D01*
X017878Y024395D01*
X017816Y024334D02*
X017661Y024334D01*
X017661Y024235D02*
X017729Y024235D01*
X017688Y024136D02*
X017661Y024136D01*
X017661Y024038D02*
X017661Y024038D01*
X017661Y023939D02*
X017661Y023939D01*
X017661Y023841D02*
X017674Y023841D01*
X017661Y023742D02*
X017681Y023742D01*
X017681Y023644D02*
X017661Y023644D01*
X017658Y023545D02*
X017681Y023545D01*
X017681Y023447D02*
X017641Y023447D01*
X017641Y023348D02*
X017681Y023348D01*
X017681Y023250D02*
X017641Y023250D01*
X017641Y023151D02*
X017681Y023151D01*
X017681Y023052D02*
X017641Y023052D01*
X017641Y022954D02*
X017681Y022954D01*
X017681Y022855D02*
X017641Y022855D01*
X017641Y022757D02*
X017681Y022757D01*
X017681Y022658D02*
X017641Y022658D01*
X017641Y022560D02*
X017681Y022560D01*
X017681Y022461D02*
X017641Y022461D01*
X017641Y022363D02*
X017681Y022363D01*
X017681Y022264D02*
X017641Y022264D01*
X017641Y022166D02*
X017681Y022166D01*
X017681Y022067D02*
X017641Y022067D01*
X017641Y021969D02*
X017681Y021969D01*
X017683Y021870D02*
X017638Y021870D01*
X017597Y021771D02*
X017724Y021771D01*
X017751Y021673D02*
X017571Y021673D01*
X017556Y021574D02*
X017766Y021574D01*
X017806Y021476D02*
X017515Y021476D01*
X017426Y021377D02*
X017895Y021377D01*
X018426Y021377D02*
X018895Y021377D01*
X018806Y021476D02*
X018515Y021476D01*
X018556Y021574D02*
X018766Y021574D01*
X018751Y021673D02*
X018571Y021673D01*
X018597Y021771D02*
X018724Y021771D01*
X018683Y021870D02*
X018638Y021870D01*
X018641Y021969D02*
X018681Y021969D01*
X018681Y022067D02*
X018641Y022067D01*
X018641Y022166D02*
X018681Y022166D01*
X018681Y022264D02*
X018641Y022264D01*
X018641Y022363D02*
X018681Y022363D01*
X018681Y022461D02*
X018641Y022461D01*
X018641Y022560D02*
X018681Y022560D01*
X018681Y022658D02*
X018641Y022658D01*
X018641Y022757D02*
X018681Y022757D01*
X018681Y022855D02*
X018641Y022855D01*
X018641Y022954D02*
X018681Y022954D01*
X018681Y023052D02*
X018641Y023052D01*
X018641Y023151D02*
X018681Y023151D01*
X018681Y023250D02*
X018641Y023250D01*
X018641Y023348D02*
X018681Y023348D01*
X018681Y023447D02*
X018641Y023447D01*
X018641Y023545D02*
X018681Y023545D01*
X018681Y023644D02*
X018641Y023644D01*
X018641Y023742D02*
X018681Y023742D01*
X018674Y023841D02*
X018648Y023841D01*
X018661Y023939D02*
X018661Y023939D01*
X018661Y024038D02*
X018661Y024038D01*
X018634Y024136D02*
X018688Y024136D01*
X018729Y024235D02*
X018593Y024235D01*
X018506Y024334D02*
X018816Y024334D01*
X018966Y024432D02*
X018355Y024432D01*
X019355Y024432D02*
X019966Y024432D01*
X019816Y024334D02*
X019506Y024334D01*
X019593Y024235D02*
X019729Y024235D01*
X019688Y024136D02*
X019634Y024136D01*
X019661Y024038D02*
X019661Y024038D01*
X019661Y023939D02*
X019661Y023939D01*
X019648Y023841D02*
X019674Y023841D01*
X019681Y023742D02*
X019641Y023742D01*
X019641Y023644D02*
X019681Y023644D01*
X019681Y023545D02*
X019641Y023545D01*
X019641Y023447D02*
X019681Y023447D01*
X019681Y023348D02*
X019641Y023348D01*
X019641Y023250D02*
X019681Y023250D01*
X019681Y023151D02*
X019641Y023151D01*
X019641Y023052D02*
X019681Y023052D01*
X019681Y022954D02*
X019641Y022954D01*
X019641Y022855D02*
X019681Y022855D01*
X019681Y022757D02*
X019641Y022757D01*
X019641Y022658D02*
X019681Y022658D01*
X019681Y022560D02*
X019641Y022560D01*
X019641Y022461D02*
X019681Y022461D01*
X019681Y022363D02*
X019641Y022363D01*
X019641Y022264D02*
X019681Y022264D01*
X019681Y022166D02*
X019641Y022166D01*
X019641Y022067D02*
X019681Y022067D01*
X019681Y021969D02*
X019641Y021969D01*
X019638Y021870D02*
X019683Y021870D01*
X019724Y021771D02*
X019597Y021771D01*
X019571Y021673D02*
X019751Y021673D01*
X019766Y021574D02*
X019556Y021574D01*
X019515Y021476D02*
X019806Y021476D01*
X019895Y021377D02*
X019426Y021377D01*
X020426Y021377D02*
X020895Y021377D01*
X020929Y021344D02*
X021079Y021281D01*
X021242Y021281D01*
X021393Y021344D01*
X021508Y021459D01*
X021571Y021610D01*
X021571Y022333D01*
X021508Y022484D01*
X021393Y022599D01*
X021242Y022661D01*
X021079Y022661D01*
X020929Y022599D01*
X020813Y022484D01*
X020751Y022333D01*
X020751Y021610D01*
X020813Y021459D01*
X020929Y021344D01*
X020806Y021476D02*
X020515Y021476D01*
X020556Y021574D02*
X020766Y021574D01*
X020751Y021673D02*
X020571Y021673D01*
X020597Y021771D02*
X020751Y021771D01*
X020751Y021870D02*
X020638Y021870D01*
X020641Y021969D02*
X020751Y021969D01*
X020751Y022067D02*
X020641Y022067D01*
X020641Y022166D02*
X020751Y022166D01*
X020751Y022264D02*
X020641Y022264D01*
X020641Y022363D02*
X020763Y022363D01*
X020804Y022461D02*
X020641Y022461D01*
X020641Y022560D02*
X020889Y022560D01*
X021072Y022658D02*
X020641Y022658D01*
X021250Y022658D02*
X022072Y022658D01*
X022079Y022661D02*
X021929Y022599D01*
X021813Y022484D01*
X021751Y022333D01*
X021751Y021610D01*
X021813Y021459D01*
X021929Y021344D01*
X022079Y021281D01*
X022242Y021281D01*
X022393Y021344D01*
X022508Y021459D01*
X022571Y021610D01*
X022571Y022333D01*
X022508Y022484D01*
X022393Y022599D01*
X022242Y022661D01*
X022079Y022661D01*
X022250Y022658D02*
X024072Y022658D01*
X023889Y022560D02*
X022432Y022560D01*
X022518Y022461D02*
X023804Y022461D01*
X023763Y022363D02*
X022559Y022363D01*
X022571Y022264D02*
X023751Y022264D01*
X023751Y022166D02*
X022571Y022166D01*
X022571Y022067D02*
X023751Y022067D01*
X023751Y021969D02*
X022571Y021969D01*
X022571Y021870D02*
X023751Y021870D01*
X023751Y021771D02*
X022571Y021771D01*
X022571Y021673D02*
X023751Y021673D01*
X023766Y021574D02*
X022556Y021574D01*
X022515Y021476D02*
X023806Y021476D01*
X023895Y021377D02*
X022426Y021377D01*
X021895Y021377D02*
X021426Y021377D01*
X021515Y021476D02*
X021806Y021476D01*
X021766Y021574D02*
X021556Y021574D01*
X021571Y021673D02*
X021751Y021673D01*
X021751Y021771D02*
X021571Y021771D01*
X021571Y021870D02*
X021751Y021870D01*
X021751Y021969D02*
X021571Y021969D01*
X021571Y022067D02*
X021751Y022067D01*
X021751Y022166D02*
X021571Y022166D01*
X021571Y022264D02*
X021751Y022264D01*
X021763Y022363D02*
X021559Y022363D01*
X021518Y022461D02*
X021804Y022461D01*
X021889Y022560D02*
X021432Y022560D01*
X021883Y023545D02*
X020641Y023545D01*
X020641Y023644D02*
X021781Y023644D01*
X021714Y023742D02*
X020641Y023742D01*
X020648Y023841D02*
X021674Y023841D01*
X021661Y023939D02*
X020661Y023939D01*
X020661Y024038D02*
X021661Y024038D01*
X021688Y024136D02*
X020634Y024136D01*
X020593Y024235D02*
X021729Y024235D01*
X021816Y024334D02*
X020506Y024334D01*
X020355Y024432D02*
X021966Y024432D01*
X016681Y023348D02*
X012641Y023348D01*
X012641Y023250D02*
X016681Y023250D01*
X016681Y023151D02*
X012641Y023151D01*
X012641Y023052D02*
X016681Y023052D01*
X016681Y022954D02*
X012641Y022954D01*
X012641Y022855D02*
X016681Y022855D01*
X016681Y022757D02*
X012641Y022757D01*
X012641Y022658D02*
X013072Y022658D01*
X013079Y022661D02*
X012929Y022599D01*
X012813Y022484D01*
X012751Y022333D01*
X012751Y021610D01*
X012813Y021459D01*
X012929Y021344D01*
X013079Y021281D01*
X013242Y021281D01*
X013393Y021344D01*
X013508Y021459D01*
X013571Y021610D01*
X013571Y022333D01*
X013508Y022484D01*
X013393Y022599D01*
X013242Y022661D01*
X013079Y022661D01*
X013250Y022658D02*
X014072Y022658D01*
X014079Y022661D02*
X013929Y022599D01*
X013813Y022484D01*
X013751Y022333D01*
X013751Y021610D01*
X013813Y021459D01*
X013929Y021344D01*
X014079Y021281D01*
X014242Y021281D01*
X014393Y021344D01*
X014508Y021459D01*
X014571Y021610D01*
X014571Y022333D01*
X014508Y022484D01*
X014393Y022599D01*
X014242Y022661D01*
X014079Y022661D01*
X014250Y022658D02*
X016072Y022658D01*
X016079Y022661D02*
X015929Y022599D01*
X015813Y022484D01*
X015751Y022333D01*
X015751Y021610D01*
X015813Y021459D01*
X015929Y021344D01*
X016079Y021281D01*
X016242Y021281D01*
X016393Y021344D01*
X016508Y021459D01*
X016571Y021610D01*
X016571Y022333D01*
X016508Y022484D01*
X016393Y022599D01*
X016242Y022661D01*
X016079Y022661D01*
X016250Y022658D02*
X016681Y022658D01*
X016681Y022560D02*
X016432Y022560D01*
X016518Y022461D02*
X016681Y022461D01*
X016681Y022363D02*
X016559Y022363D01*
X016571Y022264D02*
X016681Y022264D01*
X016681Y022166D02*
X016571Y022166D01*
X016571Y022067D02*
X016681Y022067D01*
X016681Y021969D02*
X016571Y021969D01*
X016571Y021870D02*
X016683Y021870D01*
X016724Y021771D02*
X016571Y021771D01*
X016571Y021673D02*
X016751Y021673D01*
X016766Y021574D02*
X016556Y021574D01*
X016515Y021476D02*
X016806Y021476D01*
X016895Y021377D02*
X016426Y021377D01*
X015895Y021377D02*
X014426Y021377D01*
X014515Y021476D02*
X015806Y021476D01*
X015766Y021574D02*
X014556Y021574D01*
X014571Y021673D02*
X015751Y021673D01*
X015751Y021771D02*
X014571Y021771D01*
X014571Y021870D02*
X015751Y021870D01*
X015751Y021969D02*
X014571Y021969D01*
X014571Y022067D02*
X015751Y022067D01*
X015751Y022166D02*
X014571Y022166D01*
X014571Y022264D02*
X015751Y022264D01*
X015763Y022363D02*
X014559Y022363D01*
X014518Y022461D02*
X015804Y022461D01*
X015889Y022560D02*
X014432Y022560D01*
X013889Y022560D02*
X013432Y022560D01*
X013518Y022461D02*
X013804Y022461D01*
X013763Y022363D02*
X013559Y022363D01*
X013571Y022264D02*
X013751Y022264D01*
X013751Y022166D02*
X013571Y022166D01*
X013571Y022067D02*
X013751Y022067D01*
X013751Y021969D02*
X013571Y021969D01*
X013571Y021870D02*
X013751Y021870D01*
X013751Y021771D02*
X013571Y021771D01*
X013571Y021673D02*
X013751Y021673D01*
X013766Y021574D02*
X013556Y021574D01*
X013515Y021476D02*
X013806Y021476D01*
X013895Y021377D02*
X013426Y021377D01*
X012895Y021377D02*
X012426Y021377D01*
X012515Y021476D02*
X012806Y021476D01*
X012766Y021574D02*
X012556Y021574D01*
X012571Y021673D02*
X012751Y021673D01*
X012751Y021771D02*
X012597Y021771D01*
X012638Y021870D02*
X012751Y021870D01*
X012751Y021969D02*
X012641Y021969D01*
X012641Y022067D02*
X012751Y022067D01*
X012751Y022166D02*
X012641Y022166D01*
X012641Y022264D02*
X012751Y022264D01*
X012763Y022363D02*
X012641Y022363D01*
X012641Y022461D02*
X012804Y022461D01*
X012889Y022560D02*
X012641Y022560D01*
X014861Y014578D02*
X014861Y014578D01*
X014861Y014479D02*
X014861Y014479D01*
X014861Y014381D02*
X014861Y014381D01*
X014861Y014282D02*
X014861Y014282D01*
X014861Y014184D02*
X014861Y014184D01*
X014861Y014085D02*
X014861Y014085D01*
X014861Y013986D02*
X014861Y013986D01*
X014861Y013888D02*
X014861Y013888D01*
X014861Y013789D02*
X014861Y013789D01*
X014861Y013691D02*
X014861Y013691D01*
X014861Y013592D02*
X014861Y013592D01*
X014861Y013494D02*
X014861Y013494D01*
X014861Y013395D02*
X014861Y013395D01*
X014861Y013297D02*
X014861Y013297D01*
X014861Y013198D02*
X014861Y013198D01*
X014861Y013100D02*
X014861Y013100D01*
X014861Y013001D02*
X014861Y013001D01*
X014861Y012903D02*
X014861Y012903D01*
X014861Y012804D02*
X014861Y012804D01*
X014861Y012705D02*
X014861Y012705D01*
X014861Y012607D02*
X014861Y012607D01*
X014861Y012508D02*
X014861Y012508D01*
X014861Y012410D02*
X014861Y012410D01*
X014861Y012311D02*
X014861Y012311D01*
X014861Y012213D02*
X014861Y012213D01*
X014861Y012114D02*
X014861Y012114D01*
X014861Y012016D02*
X014861Y012016D01*
X014861Y011917D02*
X014881Y011917D01*
X014861Y011819D02*
X014954Y011819D01*
X014861Y011720D02*
X015052Y011720D01*
X015151Y011621D02*
X014861Y011621D01*
X014861Y011523D02*
X015244Y011523D01*
X015280Y011424D02*
X014861Y011424D01*
X014861Y011326D02*
X015361Y011326D01*
X015361Y012705D02*
X015531Y012705D01*
X015440Y012804D02*
X015361Y012804D01*
X015361Y012903D02*
X015399Y012903D01*
X015397Y013001D02*
X015361Y013001D01*
X015361Y013100D02*
X015426Y013100D01*
X015361Y013198D02*
X015499Y013198D01*
X015361Y013297D02*
X016356Y013297D01*
X016351Y013395D02*
X015361Y013395D01*
X015361Y013494D02*
X016376Y013494D01*
X016443Y013592D02*
X015361Y013592D01*
X015915Y013198D02*
X016397Y013198D01*
X031511Y005671D02*
X031661Y005821D01*
X040840Y001669D02*
X003852Y001669D01*
X003570Y001767D02*
X041122Y001767D01*
X041292Y001866D02*
X003399Y001866D01*
X003275Y001964D02*
X041416Y001964D01*
X017822Y002358D02*
X017381Y002358D01*
X017582Y002457D02*
X017741Y002457D01*
X017741Y002555D02*
X017680Y002555D01*
X017733Y002654D02*
X017741Y002654D01*
D35*
X015554Y011571D02*
X015111Y012015D01*
X015111Y014796D01*
X020361Y013471D02*
X020811Y013021D01*
X023861Y013021D01*
X025211Y013021D01*
X028036Y015846D01*
X038955Y015846D01*
X039211Y015590D01*
D36*
X036161Y021971D02*
X036161Y023971D01*
X035161Y023971D02*
X035161Y021971D01*
X034161Y021971D02*
X034161Y023971D01*
X033161Y023971D02*
X033161Y021971D01*
X031161Y021971D02*
X031161Y023971D01*
X028161Y023971D02*
X028161Y021971D01*
X027161Y021971D02*
X027161Y023971D01*
X026161Y023971D02*
X026161Y021971D01*
X025161Y021971D02*
X025161Y023971D01*
X023161Y023971D02*
X023161Y021971D01*
X020161Y021971D02*
X020161Y023971D01*
X019161Y023971D02*
X019161Y021971D01*
X018161Y021971D02*
X018161Y023971D01*
X017161Y023971D02*
X017161Y021971D01*
X015161Y021971D02*
X015161Y023971D01*
X012161Y023971D02*
X012161Y021971D01*
X011161Y021971D02*
X011161Y023971D01*
X010161Y023971D02*
X010161Y021971D01*
X009161Y021971D02*
X009161Y023971D01*
D37*
X004161Y007721D02*
X003561Y007721D01*
D38*
X006261Y007271D02*
X006261Y005371D01*
X031161Y009571D02*
X031561Y009571D01*
X032611Y010621D01*
X039426Y010621D01*
D39*
X024961Y013521D03*
X022461Y013571D03*
X014661Y009671D03*
X014161Y009171D03*
M02*
