%
M48
M72
T01C0.0200
T02C0.0236
T03C0.0276
T04C0.0315
T05C0.0320
T06C0.0360
T07C0.0394
T08C0.0400
T09C0.0512
T10C0.0551
T11C0.0700
T12C0.0900
T13C0.1417
%
T01
X6261Y5371
X10061Y8121
X13911Y10771
X15554Y11571
X15811Y12121
X15707Y12968
X16661Y13371
X15911Y14221
X15111Y14796
X16661Y15621
X20361Y13471
X20361Y12671
X20961Y12321
X20511Y11971
X20211Y11421
X19661Y11371
X19111Y11321
X18561Y11271
X18011Y11221
X17461Y11171
X18661Y9921
X18661Y8971
X19161Y8721
X19661Y8221
X20161Y7721
X22411Y10021
X21886Y10596
X21911Y11221
X26261Y9521
X26636Y9171
X26936Y8771
X26561Y8421
X26186Y8071
X25811Y7721
X27161Y6921
X28911Y6421
X30161Y6121
X31661Y5821
X33161Y5521
X34161Y6471
X33671Y6871
X31616Y7317
X31161Y7721
X30661Y8071
X35161Y5271
X37161Y4471
X37661Y4821
X25111Y5371
X23836Y6396
X15361Y6571
X27411Y14321
X25461Y14871
X21911Y17971
X13911Y17971
X8511Y15371
X29911Y17971
T02
X22461Y13571
X24961Y13521
X14661Y9671
X14161Y9171
T03
X10411Y11721
X8411Y11721
X6911Y19371
X6911Y20371
X14911Y20371
X14911Y19371
X22911Y19371
X22911Y20371
X30911Y20371
X30911Y19371
X39211Y18590
X39211Y17590
X39211Y16590
X39211Y15590
X36911Y13446
X35911Y13446
T04
X36161Y16971
X37161Y16971
X38161Y16971
X35161Y16971
X34161Y16971
X33161Y16971
X32161Y16971
X31161Y16971
X30161Y16971
X29161Y16971
X28161Y16971
X27161Y16971
X26161Y16971
X25161Y16971
X24161Y16971
X23161Y16971
X22161Y16971
X21161Y16971
X20161Y16971
X19161Y16971
X18161Y16971
X17161Y16971
X16161Y16971
X15161Y16971
X14161Y16971
X13161Y16971
X12161Y16971
X11161Y16971
X10161Y16971
X9161Y16971
X8161Y16971
X7161Y16971
X7161Y21971
X8161Y21971
X9161Y21971
X10161Y21971
X11161Y21971
X12161Y21971
X13161Y21971
X14161Y21971
X15161Y21971
X16161Y21971
X17161Y21971
X18161Y21971
X19161Y21971
X20161Y21971
X21161Y21971
X22161Y21971
X23161Y21971
X24161Y21971
X25161Y21971
X26161Y21971
X27161Y21971
X28161Y21971
X29161Y21971
X30161Y21971
X31161Y21971
X32161Y21971
X33161Y21971
X34161Y21971
X35161Y21971
X36161Y21971
X37161Y21971
X38161Y21971
T05
X37411Y11571
X35411Y11571
X33961Y11571
X32961Y11571
T06
X31161Y11571
X30161Y11571
X30161Y10571
X31161Y10571
X31161Y9571
X30161Y9571
X30161Y8571
X31161Y8571
X31161Y12571
X30161Y12571
X30161Y13571
X31161Y13571
X31161Y14571
X30161Y14571
X9153Y5851
X8169Y5851
X8169Y5071
X9153Y5071
T07
X27661Y3471
X28661Y3471
X29661Y3471
X30661Y3471
X31661Y3471
X32661Y3471
X33661Y3471
X34661Y3471
X34661Y2471
X33661Y2471
X32661Y2471
X31661Y2471
X30661Y2471
X29661Y2471
X28661Y2471
X27661Y2471
X36661Y2471
X37661Y2471
X38661Y2471
X38661Y3471
X37661Y3471
X36661Y3471
T08
X35841Y7581
X33281Y7581
X33281Y9361
X35841Y9361
X25261Y2871
X24261Y2871
X23261Y2871
X21761Y2871
X20761Y2871
X19761Y2871
X18261Y2871
X17261Y2871
X16261Y2871
X14761Y2871
X13761Y2871
X12761Y2871
X18061Y7171
X23896Y13786
X23189Y14493
X24161Y17971
X25161Y17971
X26161Y17971
X27161Y17971
X28161Y17971
X29161Y17971
X32161Y17971
X33161Y17971
X34161Y17971
X35161Y17971
X36161Y17971
X37161Y17971
X40511Y18490
X40511Y16490
X36161Y23971
X35161Y23971
X34161Y23971
X33161Y23971
X31161Y23971
X30161Y23971
X28161Y23971
X27161Y23971
X26161Y23971
X25161Y23971
X23161Y23971
X22161Y23971
X20161Y23971
X19161Y23971
X18161Y23971
X17161Y23971
X15161Y23971
X14161Y23971
X12161Y23971
X11161Y23971
X10161Y23971
X9161Y23971
X3561Y21271
X3561Y20271
X3561Y18521
X3561Y17521
X3561Y15671
X3561Y14671
X3561Y13671
X3561Y12671
X3561Y10721
X3561Y9721
X3561Y8721
X3561Y7721
X3561Y5971
X3561Y4971
X6411Y8221
X6411Y9221
X6411Y10221
X6411Y13171
X6411Y14171
X6411Y15171
X8161Y17971
X9161Y17971
X10161Y17971
X11161Y17971
X12161Y17971
X13161Y17971
X16161Y17971
X17161Y17971
X18161Y17971
X19161Y17971
X20161Y17971
X21161Y17971
T09
X40061Y9021
X40061Y7053
T10
X41143Y8195
X38978Y8195
X38978Y9848
X41143Y9848
T11
X40354Y13490
X40354Y15490
X40354Y17490
X40354Y19490
T12
X11031Y4001
X6291Y4001
T13
X4161Y2971
X4161Y23471
X40661Y23471
X40661Y2971
M30
